# 3ds Max Wavefront OBJ Exporter v0.97b - (c)2007 guruware
# File Created: 26.06.2015 14:39:02

mtllib antenna_crash.mtl

#
# object antenna_crash
#

v  13.2850 -227.6095 -26.3421
v  13.2850 -78.9066 -26.3421
v  1.0807 -78.9066 -26.3422
v  1.0807 -227.6095 -26.3422
v  7.1829 -78.6738 -36.9112
v  7.1829 -227.3766 -36.9112
v  10.2266 -78.9066 -28.1078
v  4.1391 -78.9066 -28.1079
v  7.1829 -78.6738 -33.3797
v  7.0445 25.4779 -32.4770
v  0.9570 25.4779 -32.4771
v  4.0007 25.7108 -37.7489
v  11.7914 121.8585 -21.9038
v  17.8789 121.8585 -21.9037
v  16.6688 121.8585 -22.6024
v  13.0015 121.8585 -22.6024
v  14.8352 122.0914 -27.1756
v  14.8352 122.0914 -25.7784
v  6.1381 176.1515 -3.9413
v  2.4708 176.1515 -3.9413
v  4.3044 176.3843 -7.1172
v  9.0165 225.1991 60.0052
v  7.1829 227.6095 57.9242
v  5.3492 225.1991 60.0052
v  -5.6748 -208.5270 -49.4361
v  -5.6748 -146.0836 -49.4361
v  -17.8791 -146.0836 -49.4362
v  -17.8791 -208.5270 -49.4362
v  -11.7769 -145.8508 -60.0052
v  -11.7769 -208.2941 -60.0052
v  -8.4310 -146.0836 -51.0274
v  -15.1228 -146.0836 -51.0274
v  -11.7769 -145.8508 -56.8226
v  -8.4310 -13.6925 -51.0274
v  -15.1228 -13.6925 -51.0274
v  -11.7769 -13.4597 -56.8226
v  -11.7769 84.7535 -52.9592
# 37 vertices

vn 0.8607 0.0000 0.5091
vn 0.8712 0.0000 0.4909
vn -0.8712 0.0000 0.4909
vn -0.8607 0.0000 0.5091
vn 0.0000 0.0000 -1.0000
vn 0.0095 0.9998 0.0165
vn -0.0052 0.9998 0.0211
vn -0.0191 0.9993 0.0330
vn 0.0061 0.9999 0.0153
vn -0.0018 1.0000 0.0060
vn -0.0219 0.9998 0.0024
vn 0.8479 0.0479 0.5279
vn 0.8739 -0.0539 0.4831
vn -0.8910 0.0207 0.4536
vn -0.8404 -0.0029 0.5420
vn -0.0370 0.0370 -0.9986
vn 0.0180 -0.0413 -0.9990
vn 0.0191 0.9993 0.0331
vn -0.0127 0.9991 0.0400
vn -0.0315 0.9980 0.0546
vn 0.0146 0.9994 0.0313
vn -0.0028 1.0000 0.0090
vn -0.0287 0.9996 0.0030
vn 0.9327 0.0586 0.3560
vn 0.9409 -0.0834 0.3281
vn -0.9545 -0.1488 0.2586
vn -0.8732 -0.3011 0.3832
vn 0.0796 0.3378 -0.9379
vn -0.0813 0.5136 -0.8541
vn 0.0000 0.6535 0.7569
vn 0.8586 -0.1503 0.4901
vn -0.8304 0.0323 0.5563
vn 0.0644 0.1017 -0.9927
vn 0.8562 -0.4309 0.2851
vn -0.8477 -0.4064 0.3411
vn 0.0199 0.7850 -0.6191
vn -0.0058 0.9998 0.0205
vn -0.0174 0.9994 0.0301
vn 0.0067 0.9999 0.0155
vn -0.0016 1.0000 0.0053
vn -0.0180 0.9998 0.0019
vn -0.8562 0.0000 0.5167
vn 0.8562 0.0000 0.5167
vn 0.8658 0.0192 0.5000
vn -0.8658 0.0192 0.5000
vn 0.0000 0.0199 -0.9998
vn -0.0001 1.0000 -0.0000
# 47 vertex normals

vt 0.3512 0.0847 0.0000
vt 0.4271 0.0847 0.0000
vt 0.4271 0.0909 0.0000
vt 0.3512 0.0909 0.0000
vt 0.4272 0.0972 0.0000
vt 0.3513 0.0972 0.0000
vt 0.3513 0.0785 0.0000
vt 0.4272 0.0785 0.0000
vt 0.3346 0.1264 0.0000
vt 0.3377 0.1210 0.0000
vt 0.3377 0.1228 0.0000
vt 0.3362 0.1255 0.0000
vt 0.3408 0.1264 0.0000
vt 0.3393 0.1255 0.0000
vt 0.2628 0.1061 0.0000
vt 0.3142 0.1061 0.0000
vt 0.3142 0.1092 0.0000
vt 0.2628 0.1092 0.0000
vt 0.3143 0.1123 0.0000
vt 0.2629 0.1123 0.0000
vt 0.2629 0.1030 0.0000
vt 0.3143 0.1030 0.0000
vt 0.3605 0.1333 0.0000
vt 0.3617 0.1304 0.0000
vt 0.3618 0.1311 0.0000
vt 0.3611 0.1329 0.0000
vt 0.3636 0.1329 0.0000
vt 0.3629 0.1326 0.0000
vt 0.2618 0.1195 0.0000
vt 0.2941 0.1195 0.0000
vt 0.2940 0.1214 0.0000
vt 0.2618 0.1214 0.0000
vt 0.2619 0.1233 0.0000
vt 0.2942 0.1233 0.0000
vt 0.2619 0.1177 0.0000
vt 0.2942 0.1177 0.0000
vt 0.3673 0.1269 0.0000
vt 0.3664 0.1286 0.0000
vt 0.3655 0.1269 0.0000
vt 0.3656 0.1061 0.0000
vt 0.3656 0.1092 0.0000
vt 0.3657 0.1123 0.0000
vt 0.3657 0.1030 0.0000
vt 0.3263 0.1195 0.0000
vt 0.3263 0.1214 0.0000
vt 0.3264 0.1233 0.0000
vt 0.3264 0.1177 0.0000
vt 0.6331 0.0753 0.0000
vt 0.6650 0.0753 0.0000
vt 0.6650 0.0815 0.0000
vt 0.6331 0.0815 0.0000
vt 0.6651 0.0878 0.0000
vt 0.6332 0.0878 0.0000
vt 0.6332 0.0691 0.0000
vt 0.6651 0.0691 0.0000
vt 0.3512 0.1264 0.0000
vt 0.3543 0.1210 0.0000
vt 0.3543 0.1226 0.0000
vt 0.3526 0.1256 0.0000
vt 0.3574 0.1264 0.0000
vt 0.3560 0.1256 0.0000
vt 0.3500 0.0663 0.0000
vt 0.3500 0.0629 0.0000
vt 0.4176 0.0634 0.0000
vt 0.4176 0.0668 0.0000
vt 0.3501 0.0697 0.0000
vt 0.4178 0.0702 0.0000
vt 0.3502 0.0595 0.0000
vt 0.4178 0.0600 0.0000
vt 0.4678 0.0651 0.0000
# 70 texture coords

g antenna_crash
usemtl 07___Default
s 1
f 1/1/1 2/2/2 3/3/3 
f 3/3/3 4/4/4 1/1/1 
f 4/4/4 3/3/3 5/5/5 
f 5/5/5 6/6/5 4/4/4 
f 6/7/5 5/8/5 2/2/2 
f 2/2/2 1/1/1 6/7/5 
s 2
f 3/9/6 2/10/7 7/11/8 
f 7/11/8 8/12/9 3/9/6 
f 5/13/10 3/9/6 8/12/9 
f 8/12/9 9/14/11 5/13/10 
f 2/10/7 5/13/10 9/14/11 
f 9/14/11 7/11/8 2/10/7 
s 1
f 7/15/12 10/16/13 11/17/14 
f 11/17/14 8/18/15 7/15/12 
f 8/18/15 11/17/14 12/19/16 
f 12/19/16 9/20/17 8/18/15 
f 9/21/17 12/22/16 10/16/13 
f 10/16/13 7/15/12 9/21/17 
s 2
f 13/23/18 14/24/19 15/25/20 
f 15/25/20 16/26/21 13/23/18 
f 17/27/22 13/23/18 16/26/21 
f 16/26/21 18/28/23 17/27/22 
f 14/24/19 17/27/22 18/28/23 
f 18/28/23 15/25/20 14/24/19 
s 1
f 15/29/24 19/30/25 20/31/26 
f 20/31/26 16/32/27 15/29/24 
f 18/33/28 16/32/27 20/31/26 
f 20/31/26 21/34/29 18/33/28 
f 18/35/28 21/36/29 19/30/25 
f 19/30/25 15/29/24 18/35/28 
s 2
f 22/37/30 23/38/30 24/39/30 
s 1
f 14/40/31 13/41/32 11/17/14 
f 11/17/14 10/16/13 14/40/31 
f 13/41/32 17/42/33 12/19/16 
f 12/19/16 11/17/14 13/41/32 
f 17/43/33 14/40/31 10/16/13 
f 10/16/13 12/22/16 17/43/33 
f 22/44/34 24/45/35 20/31/26 
f 20/31/26 19/30/25 22/44/34 
f 24/45/35 23/46/36 21/34/29 
f 21/34/29 20/31/26 24/45/35 
f 21/36/29 23/47/36 22/44/34 
f 22/44/34 19/30/25 21/36/29 
f 25/48/1 26/49/2 27/50/3 
f 27/50/3 28/51/4 25/48/1 
f 28/51/4 27/50/3 29/52/5 
f 29/52/5 30/53/5 28/51/4 
f 30/54/5 29/55/5 26/49/2 
f 26/49/2 25/48/1 30/54/5 
s 2
f 27/56/6 26/57/37 31/58/38 
f 31/58/38 32/59/39 27/56/6 
f 29/60/40 27/56/6 32/59/39 
f 32/59/39 33/61/41 29/60/40 
f 26/57/37 29/60/40 33/61/41 
f 33/61/41 31/58/38 26/57/37 
s 1
f 32/62/42 31/63/43 34/64/44 
f 34/64/44 35/65/45 32/62/42 
f 33/66/5 32/62/42 35/65/45 
f 35/65/45 36/67/46 33/66/5 
f 31/63/43 33/68/5 36/69/46 
f 36/69/46 34/64/44 31/63/43 
f 35/65/45 34/64/44 37/70/47 
f 36/67/46 35/65/45 37/70/47 
f 34/64/44 36/69/46 37/70/47 
# 64 faces

