# 3ds Max Wavefront OBJ Exporter v0.97b - (c)2007 guruware
# File Created: 26.06.2015 14:36:11

mtllib brige_crash_1.mtl

#
# object brige_crash_1
#

v  18.4160 118.3923 46.7271
v  116.1693 118.3923 46.7271
v  116.1547 133.3361 31.7833
v  11.8661 133.3361 31.7833
v  116.1693 90.1562 46.7271
v  116.1539 74.4072 30.9781
v  116.0933 74.4072 -30.9780
v  116.0779 90.1562 -46.7271
v  116.0779 118.3923 -46.7271
v  116.0925 133.3361 -31.7833
v  2.9071 115.8067 36.1896
v  -1.8821 126.7333 25.2630
v  16.0486 126.7333 25.2630
v  16.3648 115.8067 36.1896
v  8.6981 133.3361 22.1375
v  -4.1985 126.7333 18.2101
v  -13.5617 133.3361 -3.8527
v  -20.4744 126.7334 -0.7934
v  -48.9204 133.3361 -10.6691
v  -46.3280 126.7334 -5.7775
v  -64.9468 133.3362 0.7654
v  -69.9797 126.7334 11.0976
v  -73.8369 107.2562 46.7271
v  -26.7748 109.5499 46.7271
v  -30.1356 109.3413 36.1896
v  -64.5465 107.6642 36.1896
v  -5.8915 100.1959 46.7271
v  -14.8661 102.5019 36.1896
v  15.4347 126.7333 -21.2158
v  15.4624 115.8067 -32.1423
v  15.7874 95.1610 -32.1423
v  16.1206 83.6456 -20.6270
v  16.7190 83.6456 24.6743
v  16.6898 95.1610 36.1896
v  -69.6839 133.3361 -31.7833
v  -53.1144 118.3923 -46.7271
v  -86.7800 96.8451 -46.7271
v  -90.3323 90.1562 -46.7271
v  -101.0439 74.4072 -30.9780
v  -98.7580 74.4072 30.9781
v  -116.1692 90.1562 46.7271
v  -114.3492 98.7701 46.7271
v  -78.8433 126.8457 -21.3101
v  -112.5801 95.3131 36.0620
v  -110.4269 101.6683 36.0713
v  -105.8681 83.7898 24.5533
v  -112.8594 83.7983 -20.7550
v  -109.8409 83.7947 -8.5538
v  -105.7556 83.7897 24.4316
v  -96.4695 95.2943 -32.2542
v  -101.4165 87.7300 -24.6889
v  -68.6662 115.9070 -32.2264
v  -90.2154 99.9597 -32.2479
# 53 vertices

vn 0.0000 0.7071 0.7071
vn 0.0000 0.9238 0.3829
vn 0.0000 0.9518 0.3068
vn 1.0000 -0.0000 -0.0010
vn 1.0000 0.0000 -0.0010
vn 0.0000 -0.7071 -0.7071
vn -0.0000 -0.9518 -0.3068
vn 0.0000 -0.9222 -0.3868
vn -0.5310 0.5469 0.6473
vn -0.5589 0.6205 0.5501
vn -0.5407 0.7503 0.3803
vn -0.5249 0.5693 0.6328
vn -0.4984 0.8353 0.2323
vn -0.5097 0.7818 0.3592
vn -0.4075 0.6989 0.5877
vn -0.3028 0.6430 0.7035
vn 0.1919 0.6318 0.7510
vn 0.1232 0.6215 0.7737
vn 0.4467 0.6392 0.6260
vn -0.1144 0.9929 -0.0325
vn 0.2268 0.9696 -0.0915
vn 0.1404 0.9880 -0.0643
vn -0.0705 0.9972 -0.0236
vn -0.2649 0.8699 0.4160
vn 0.1248 0.9861 0.1095
vn -0.9998 -0.0157 0.0132
vn -0.0000 1.0000 0.0000
vn 0.0000 1.0000 -0.0000
vn 0.0000 0.9240 -0.3825
vn 0.0000 0.9552 -0.2960
vn 0.0000 0.7071 -0.7071
vn 0.0000 0.0000 -1.0000
vn 0.0000 -0.9240 -0.3825
vn 0.0000 -0.9465 -0.3228
vn 0.0000 -0.9238 0.3829
vn 0.0000 -0.8960 0.4441
vn 0.0000 -0.7071 0.7071
vn 0.0000 0.0000 1.0000
vn -0.0010 -0.9246 0.3809
vn -0.0000 -1.0000 -0.0000
vn -0.0006 -1.0000 -0.0017
vn 0.0011 -1.0000 -0.0096
vn -0.0021 -1.0000 -0.0029
vn -0.0016 -0.9448 0.3277
vn 0.0011 0.0104 -0.9999
vn 0.0009 0.0038 -1.0000
vn 0.0002 0.0006 -1.0000
vn 0.0010 0.0011 -1.0000
vn 0.0010 0.0018 -1.0000
vn 0.0015 0.7071 -0.7071
vn 0.0015 0.9232 -0.3842
vn 0.0015 0.8473 -0.5311
vn 0.0007 0.9257 0.3783
vn 0.0010 0.9816 0.1912
vn 0.0012 1.0000 0.0000
vn 0.0012 1.0000 -0.0000
vn 0.0001 0.7071 0.7071
vn -0.0010 -0.0000 1.0000
vn -0.0016 -0.7071 0.7071
vn -0.0015 -0.7071 0.7071
vn -0.7305 0.6543 -0.1958
vn -0.6313 0.7555 0.1753
vn -0.6100 0.7770 0.1555
vn -0.7832 0.2940 -0.5479
vn -0.6805 0.4073 -0.6091
vn -0.6454 0.4539 -0.6144
vn -0.7110 0.6248 -0.3228
vn -0.5991 0.7092 -0.3716
vn -0.8290 0.3938 -0.3971
vn -0.7813 0.4093 -0.4712
vn -0.8787 -0.1146 -0.4635
vn -0.7259 0.2769 -0.6296
vn -0.7265 -0.6391 -0.2526
vn -0.6798 -0.7313 0.0561
vn -0.7937 -0.6032 0.0793
vn -0.8304 -0.5476 0.1028
vn -0.8010 -0.5602 -0.2113
vn -0.7350 -0.6609 -0.1517
vn -0.9565 -0.1004 -0.2738
vn -0.9458 0.0668 -0.3177
vn -0.9434 0.2359 -0.2330
vn -0.9163 0.3108 -0.2527
vn -0.1919 0.9698 0.1505
vn -0.2014 0.9614 0.1874
# 84 vertex normals

vt 0.8027 0.4755 0.0000
vt 0.7528 0.4755 0.0000
vt 0.7528 0.4644 0.0000
vt 0.8061 0.4644 0.0000
vt 0.4502 0.9260 0.0000
vt 0.4502 0.9116 0.0000
vt 0.4582 0.9036 0.0000
vt 0.4899 0.9036 0.0000
vt 0.4979 0.9116 0.0000
vt 0.4979 0.9260 0.0000
vt 0.4903 0.9337 0.0000
vt 0.4578 0.9337 0.0000
vt 0.7936 0.4644 0.0000
vt 0.7933 0.4755 0.0000
vt 0.6354 0.7271 0.0000
vt 0.6306 0.7357 0.0000
vt 0.6236 0.7338 0.0000
vt 0.6270 0.7275 0.0000
vt 0.6269 0.7383 0.0000
vt 0.6209 0.7356 0.0000
vt 0.6123 0.7425 0.0000
vt 0.6103 0.7385 0.0000
vt 0.5967 0.7388 0.0000
vt 0.5991 0.7359 0.0000
vt 0.5908 0.7322 0.0000
vt 0.5906 0.7264 0.0000
vt 0.5963 0.7071 0.0000
vt 0.6157 0.7146 0.0000
vt 0.6126 0.7185 0.0000
vt 0.5984 0.7129 0.0000
vt 0.6250 0.7186 0.0000
vt 0.6194 0.7214 0.0000
vt 0.4584 0.9333 0.0000
vt 0.4509 0.9258 0.0000
vt 0.4509 0.9114 0.0000
vt 0.4589 0.9035 0.0000
vt 0.4903 0.9035 0.0000
vt 0.4982 0.9114 0.0000
vt 0.4982 0.9258 0.0000
vt 0.4907 0.9333 0.0000
vt 0.8077 0.4595 0.0000
vt 0.8190 0.4464 0.0000
vt 0.7528 0.4323 0.0000
vt 0.8477 0.4323 0.0000
vt 0.8371 0.4430 0.0000
vt 0.8453 0.4487 0.0000
vt 0.7528 0.4212 0.0000
vt 0.8392 0.4212 0.0000
vt 0.0924 0.0200 0.0000
vt 0.0060 0.0200 0.0000
vt 0.0060 0.0056 0.0000
vt 0.1096 0.0090 0.0000
vt 0.1114 0.0056 0.0000
vt 0.8082 0.4212 0.0000
vt 0.9136 0.4212 0.0000
vt 0.9136 0.4323 0.0000
vt 0.8027 0.4323 0.0000
vt 0.9136 0.4644 0.0000
vt 0.8038 0.4644 0.0000
vt 0.9136 0.4755 0.0000
vt 0.7949 0.4755 0.0000
vt 0.0491 0.0100 0.0000
vt 0.0481 0.0056 0.0000
vt 0.1668 0.0056 0.0000
vt 0.1668 0.0200 0.0000
vt 0.1168 0.0200 0.0000
vt 0.1044 0.0107 0.0000
vt 0.0938 0.0155 0.0000
vt 0.0697 0.0143 0.0000
vt 0.7940 0.4323 0.0000
vt 0.8536 0.4546 0.0000
vt 0.8478 0.4329 0.0000
vt 0.1262 0.0200 0.0000
vt 0.1265 0.0056 0.0000
vt 0.0362 0.0057 0.0000
vt 0.0377 0.0101 0.0000
vt 0.8733 0.4755 0.0000
vt 0.8733 0.4644 0.0000
vt 0.7877 0.4644 0.0000
vt 0.7830 0.4755 0.0000
vt 0.8729 0.4323 0.0000
vt 0.7994 0.4323 0.0000
vt 0.8011 0.4410 0.0000
vt 0.8034 0.4643 0.0000
vt 0.8033 0.4644 0.0000
vt 0.8727 0.4212 0.0000
vt 0.8088 0.4212 0.0000
vt 0.8059 0.4285 0.0000
vt 0.0469 0.0056 0.0000
vt 0.0471 0.0200 0.0000
vt 0.1059 0.0201 0.0000
vt 0.1209 0.0089 0.0000
vt 0.1253 0.0057 0.0000
vt 0.8598 0.4323 0.0000
vt 0.8527 0.4213 0.0000
vt 0.7939 0.4212 0.0000
vt 0.5940 0.7312 0.0000
vt 0.6078 0.7366 0.0000
vt 0.6026 0.7393 0.0000
vt 0.5886 0.7353 0.0000
vt 0.5866 0.7279 0.0000
vt 0.5775 0.7307 0.0000
vt 0.5854 0.7146 0.0000
vt 0.5914 0.7175 0.0000
vt 0.5869 0.7111 0.0000
vt 0.5930 0.7151 0.0000
vt 0.5975 0.7068 0.0000
vt 0.5973 0.7134 0.0000
vt 0.6022 0.7134 0.0000
vt 0.6073 0.7128 0.0000
vt 0.6252 0.7076 0.0000
vt 0.6220 0.7127 0.0000
vt 0.6236 0.7132 0.0000
vt 0.6344 0.7159 0.0000
vt 0.6295 0.7181 0.0000
vt 0.6342 0.7197 0.0000
vt 0.6292 0.7211 0.0000
vt 0.5793 0.7056 0.0000
vt 0.5792 0.7005 0.0000
# 119 texture coords

g brige_crash_1
usemtl 07___Default
s 1
f 1/1/1 2/2/1 3/3/2 
f 3/3/2 4/4/3 1/1/1 
s 4
f 2/5/4 5/6/5 6/7/5 
f 6/7/5 7/8/4 8/9/5 
f 8/9/5 9/10/5 10/11/5 
f 6/7/5 8/9/5 10/11/5 
f 2/5/4 6/7/5 10/11/5 
f 3/12/4 2/5/4 10/11/5 
s 1
f 11/1/6 12/4/7 13/13/8 
f 13/13/8 14/14/6 11/1/6 
s 4
f 1/15/9 4/16/10 12/17/11 
f 12/17/11 11/18/12 1/15/9 
f 4/16/10 15/19/13 16/20/14 
f 16/20/14 12/17/11 4/16/10 
f 15/19/13 17/21/15 18/22/16 
f 18/22/16 16/20/14 15/19/13 
f 17/21/15 19/23/17 20/24/18 
f 20/24/18 18/22/16 17/21/15 
f 19/23/17 21/25/19 22/26/19 
f 22/26/19 20/24/18 19/23/17 
f 23/27/20 24/28/21 25/29/22 
f 25/29/22 26/30/23 23/27/20 
f 24/28/21 27/31/24 28/32/25 
f 28/32/25 25/29/22 24/28/21 
f 27/31/24 1/15/9 11/18/12 
f 11/18/12 28/32/25 27/31/24 
f 29/33/26 30/34/26 31/35/26 
f 31/35/26 32/36/26 33/37/26 
f 29/33/26 31/35/26 33/37/26 
f 33/37/26 34/38/26 14/39/26 
f 29/33/26 33/37/26 14/39/26 
f 13/40/26 29/33/26 14/39/26 
s 1
f 15/41/27 4/4/3 3/3/2 
f 17/42/28 15/41/27 3/3/2 
f 3/3/2 10/43/29 35/44/30 
f 17/42/28 3/3/2 35/44/30 
f 19/45/28 17/42/28 35/44/30 
f 21/46/28 19/45/28 35/44/30 
f 10/43/29 9/47/31 36/48/31 
f 36/48/31 35/44/30 10/43/29 
s 2
f 36/49/32 9/50/32 8/51/32 
f 37/52/32 36/49/32 8/51/32 
f 37/52/32 8/51/32 38/53/32 
s 1
f 38/54/6 8/55/6 7/56/33 
f 7/56/33 39/57/34 38/54/6 
f 7/56/33 6/58/35 40/59/36 
f 40/59/36 39/57/34 7/56/33 
f 40/59/36 6/58/35 5/60/37 
f 5/60/37 41/61/37 40/59/36 
s 2
f 42/62/38 41/63/38 5/64/38 
f 5/64/38 2/65/38 1/66/38 
f 5/64/38 1/66/38 27/67/38 
f 42/62/38 5/64/38 27/67/38 
f 27/67/38 24/68/38 23/69/38 
f 42/62/38 27/67/38 23/69/38 
s 1
f 29/70/39 13/13/8 12/4/7 
f 29/70/39 12/4/7 16/41/40 
f 29/70/39 16/41/40 18/42/41 
f 20/45/42 22/71/43 43/72/44 
f 18/42/41 20/45/42 43/72/44 
f 29/70/39 18/42/41 43/72/44 
s 2
f 26/69/45 25/68/32 28/67/46 
f 28/67/46 11/66/32 14/73/32 
f 28/67/46 14/73/32 34/74/47 
f 34/74/47 44/75/48 45/76/49 
f 28/67/46 34/74/47 45/76/49 
f 26/69/45 28/67/46 45/76/49 
s 1
f 34/77/50 33/78/51 46/79/52 
f 46/79/52 44/80/50 34/77/50 
f 32/81/53 47/82/54 48/83/55 
f 32/81/53 48/83/55 49/84/56 
f 33/78/51 32/81/53 49/84/56 
f 33/78/51 49/84/56 46/85/52 
f 32/81/53 31/86/57 50/87/57 
f 32/81/53 50/87/57 51/88/57 
f 32/81/53 51/88/57 47/82/54 
s 2
f 31/89/58 30/90/58 52/91/58 
f 31/89/58 52/91/58 53/92/58 
f 31/89/58 53/92/58 50/93/58 
s 1
f 29/70/39 43/94/44 52/95/59 
f 52/95/59 30/96/60 29/70/39 
s 8
f 43/97/61 22/98/62 21/99/63 
f 21/99/63 35/100/64 43/97/61 
f 52/101/65 43/97/61 35/100/64 
f 35/100/64 36/102/66 52/101/65 
f 52/101/65 36/102/66 37/103/67 
f 37/103/67 53/104/68 52/101/65 
f 53/104/68 37/103/67 38/105/69 
f 38/105/69 50/106/70 53/104/68 
f 50/106/70 38/105/69 39/107/71 
f 39/107/71 51/108/72 50/106/70 
f 47/109/73 51/108/72 39/107/71 
f 48/110/74 47/109/73 39/107/71 
f 39/107/71 40/111/75 48/110/74 
f 49/112/76 48/110/74 40/111/75 
s 16
f 46/113/77 40/111/78 41/114/79 
f 41/114/79 44/115/80 46/113/77 
f 44/115/80 41/114/79 42/116/81 
f 42/116/81 45/117/82 44/115/80 
s 4
f 45/118/83 42/119/84 23/27/20 
f 23/27/20 26/30/23 45/118/83 
# 101 faces

