# 3ds Max Wavefront OBJ Exporter v0.97b - (c)2007 guruware
# File Created: 26.06.2015 14:34:13

mtllib build_small_crash_2.mtl

#
# object build_small_crash_2
#

v  48.9951 -37.6707 -124.0642
v  42.4209 -53.4515 -107.2276
v  52.2073 -43.0898 -131.9060
v  47.0409 -54.4089 -72.9511
v  54.9229 -81.3035 -80.7453
v  59.7260 -85.7733 -113.9022
v  112.9591 -125.1853 -34.5135
v  112.9590 -155.8362 -113.6083
v  88.6721 -125.1853 -137.9028
v  89.1739 -115.4070 -116.5632
v  96.7879 -115.9980 -85.3115
v  107.3162 -123.5604 -55.3443
v  71.2057 -85.8619 -135.0303
v  76.2010 -92.0092 -127.1992
v  64.2868 -56.9151 -39.7170
v  91.8039 -43.1495 -5.9851
v  103.6971 -89.2691 -22.0234
v  79.6351 -87.8150 -39.7996
v  84.5489 -37.6707 -17.8475
v  33.3513 -37.6707 -55.9542
v  40.8279 -37.6707 -88.5057
v  -64.1998 -201.5481 -162.3759
v  -112.9107 -201.5481 -113.6800
v  -112.9107 -125.1853 -113.6800
v  -64.1998 -125.1853 -162.3759
v  64.2466 -201.5481 -162.3360
v  64.2466 -125.1853 -162.3360
v  112.9590 -201.5481 -113.6083
v  64.2464 -201.5481 162.3228
v  112.9593 -201.5481 113.5955
v  112.9593 -125.1853 113.5955
v  64.2464 -125.1853 162.3228
v  -64.1998 -201.5481 162.3628
v  -64.1998 -125.1853 162.3628
v  -91.7552 -43.1492 -92.3862
v  -52.1604 -43.0896 -131.9382
v  91.8039 -43.1495 92.3152
v  52.2073 -43.0898 131.8928
v  -52.1606 -43.0896 131.9252
v  -84.5092 -37.6707 -88.5475
v  -84.4869 -37.6707 18.9216
v  -91.7552 -43.1492 18.9097
v  -48.9505 -37.6707 -124.0945
v  84.5364 -37.6707 88.4572
v  48.9954 -37.6707 124.0513
v  -48.9509 -37.6707 124.0815
v  -84.4862 -37.6707 88.5115
v  -91.7555 -43.1492 92.3734
v  -112.9107 -125.1853 87.0688
v  -104.2634 -91.6528 73.1219
v  -95.6458 -58.2352 96.2891
v  -74.1632 -53.7805 43.8143
v  -74.1634 -53.7805 63.6161
v  -59.5940 -53.7805 78.1805
v  59.6426 -53.7805 78.1407
v  74.2114 -53.7805 63.5668
v  74.2113 -53.7805 43.8140
v  59.6426 -53.7805 29.2452
v  -59.5944 -53.7805 29.2452
v  -74.1634 -37.6707 63.6161
v  -74.1632 -37.6707 43.8143
v  59.6426 -37.6707 78.1407
v  -59.5940 -37.6707 78.1805
v  74.2114 -37.6707 63.5668
v  74.2113 -37.6707 43.8140
v  59.6426 -37.6707 29.2452
v  -59.5944 -37.6707 29.2452
v  -93.5150 -141.2676 133.0567
v  -89.4759 -125.1853 137.0946
v  -83.7740 -62.2237 110.2208
v  -91.3484 -107.9232 70.8523
v  -88.4634 -86.1194 90.7099
v  -99.8406 -129.8020 84.8887
v  -112.9106 -137.2469 113.6671
v  -103.8433 -137.6717 109.1761
v  -107.8846 -147.8865 118.6916
v  -100.8834 -144.6136 113.0077
v  -92.4211 -140.2951 123.9623
v  -90.0424 -129.8020 127.0415
v  -76.7974 -100.3970 136.9447
v  -80.6461 -113.6285 124.9966
v  -81.7826 -88.7218 101.6445
v  -112.9106 -201.5481 113.6671
# 83 vertices

vn 0.9426 -0.0390 0.3316
vn 0.9604 0.2203 0.1706
vn 0.8765 0.2072 0.4346
vn 0.8620 0.4879 -0.1376
vn 0.8411 0.5229 -0.1385
vn 0.7938 0.5696 0.2131
vn 0.9800 0.1817 -0.0807
vn 0.9613 0.2569 -0.0996
vn 0.8727 0.4425 -0.2065
vn 0.8451 0.5159 -0.1404
vn 0.7928 0.5840 -0.1743
vn 0.8437 0.4841 -0.2319
vn 0.7971 0.5580 0.2310
vn 0.7827 0.6068 0.1385
vn 0.6962 0.3839 -0.6065
vn 0.9076 0.2358 -0.3473
vn 0.8590 0.3888 -0.3332
vn 0.6649 0.5257 -0.5305
vn 0.7689 -0.0902 -0.6330
vn 0.7420 0.6236 -0.2461
vn 0.9702 0.2378 0.0465
vn -0.3825 0.0000 -0.9240
vn -0.7070 0.0000 -0.7072
vn -0.6961 0.1745 -0.6964
vn -0.3757 0.1806 -0.9090
vn 0.3829 0.0000 -0.9238
vn 0.3761 0.1805 -0.9088
vn 0.7072 0.0000 -0.7070
vn 0.7018 0.1237 -0.7016
vn 0.3829 0.0000 0.9238
vn 0.7072 0.0000 0.7070
vn 0.6964 0.1745 0.6962
vn 0.3761 0.1805 0.9088
vn -0.3825 -0.0000 0.9240
vn -0.3757 0.1806 0.9090
vn -0.6640 0.3436 -0.6642
vn -0.3566 0.3703 -0.8577
vn 0.1287 0.3612 -0.9236
vn 0.6642 0.3435 -0.6640
vn 0.6642 0.3435 0.6640
vn 0.3570 0.3702 0.8576
vn -0.3566 0.3703 0.8577
vn 0.0000 1.0000 -0.0000
vn -0.3321 0.9347 -0.1271
vn -0.3173 0.9483 0.0000
vn -0.5111 0.8308 -0.2204
vn -0.6019 0.7985 0.0001
vn -0.1316 0.9395 -0.3162
vn -0.2061 0.8425 -0.4977
vn 0.0001 0.9376 -0.3478
vn 0.0002 0.8227 -0.5685
vn 0.5100 0.8316 0.2198
vn 0.3313 0.9350 0.1265
vn 0.1318 0.9395 0.3162
vn 0.2064 0.8425 0.4977
vn -0.1315 0.9395 0.3162
vn -0.2061 0.8424 0.4978
vn -0.3313 0.9350 0.1264
vn -0.5100 0.8316 0.2198
vn -0.9933 0.1151 -0.0000
vn -1.0000 -0.0000 0.0000
vn -0.9971 0.0765 0.0000
vn -0.9683 0.2497 -0.0000
vn 0.7173 0.6303 0.2971
vn 0.7173 0.6302 -0.2972
vn 0.2969 0.6302 -0.7174
vn -0.2973 0.6303 -0.7172
vn -0.7173 0.6303 -0.2970
vn -0.7173 0.6303 0.2971
vn -0.2971 0.6303 0.7173
vn 0.2971 0.6303 0.7173
vn 0.6025 0.7981 0.0001
vn 0.1427 0.9898 0.0000
vn 0.9239 0.0000 0.3827
vn 0.9238 0.0000 -0.3828
vn 0.3824 0.0000 -0.9240
vn -0.3829 0.0000 -0.9238
vn -0.9239 0.0000 -0.3826
vn -0.9239 0.0000 0.3827
vn -0.3827 0.0000 0.9239
vn 0.3827 0.0000 0.9239
vn 0.9683 0.2497 -0.0000
vn 0.9933 0.1152 -0.0000
vn 1.0000 0.0000 -0.0000
vn 1.0000 -0.0000 -0.0000
vn -0.7070 -0.0000 0.7072
vn -0.7003 0.1376 0.7005
vn -0.6640 0.3436 0.6642
vn -0.7328 -0.3355 0.5920
vn -0.1673 -0.2358 0.9573
vn -0.4512 0.2616 0.8532
vn -0.8359 -0.2876 0.4675
vn 0.3259 0.6438 0.6923
vn -0.2753 0.7367 0.6176
vn 0.3238 0.7275 0.6049
vn -0.1960 0.7998 0.5673
vn -0.0505 0.8845 0.4639
vn -0.3894 0.6507 0.6519
vn -0.8455 0.5327 -0.0378
vn -0.8376 0.4799 0.2610
vn -0.9026 0.4040 -0.1486
vn -0.9164 0.3907 0.0872
vn -0.9851 0.1654 0.0466
vn -0.9303 0.3596 0.0726
vn -0.8914 -0.2273 0.3921
vn -0.9550 -0.0226 0.2956
vn -0.7070 0.0000 0.7072
vn -1.0000 0.0000 0.0000
# 108 vertex normals

vt 0.6363 0.8551 0.0000
vt 0.6288 0.8514 0.0000
vt 0.6388 0.8521 0.0000
vt 0.6165 0.8524 0.0000
vt 0.6187 0.8425 0.0000
vt 0.6295 0.8387 0.0000
vt 0.5989 0.8202 0.0000
vt 0.6259 0.8077 0.0000
vt 0.6361 0.8202 0.0000
vt 0.6289 0.8241 0.0000
vt 0.6175 0.8236 0.0000
vt 0.6063 0.8209 0.0000
vt 0.6373 0.8354 0.0000
vt 0.6343 0.8330 0.0000
vt 0.6036 0.8495 0.0000
vt 0.5875 0.8492 0.0000
vt 0.5940 0.8328 0.0000
vt 0.6032 0.8373 0.0000
vt 0.5918 0.8523 0.0000
vt 0.6123 0.8608 0.0000
vt 0.6235 0.8579 0.0000
vt 0.3826 0.3408 0.0000
vt 0.4186 0.3445 0.0000
vt 0.4150 0.3844 0.0000
vt 0.3811 0.3792 0.0000
vt 0.3151 0.3411 0.0000
vt 0.3173 0.3794 0.0000
vt 0.2792 0.3449 0.0000
vt 0.3004 0.3821 0.0000
vt 0.2818 0.3688 0.0000
vt 0.4058 0.4291 0.0000
vt 0.3770 0.4235 0.0000
vt 0.3221 0.4237 0.0000
vt 0.3108 0.4020 0.0000
vt 0.2428 0.0668 0.0000
vt 0.2261 0.0706 0.0000
vt 0.2259 0.0067 0.0000
vt 0.2811 0.0067 0.0000
vt 0.2236 0.0021 0.0000
vt 0.2811 0.0021 0.0000
vt 0.2079 0.0249 0.0000
vt 0.2032 0.0230 0.0000
vt 0.2081 0.0748 0.0000
vt 0.2034 0.0768 0.0000
vt 0.3187 0.0974 0.0000
vt 0.3164 0.0930 0.0000
vt 0.3344 0.0749 0.0000
vt 0.3391 0.0768 0.0000
vt 0.3342 0.0250 0.0000
vt 0.3389 0.0231 0.0000
vt 0.3161 0.0067 0.0000
vt 0.3184 0.0021 0.0000
vt 0.1553 0.8504 0.0000
vt 0.1553 0.8117 0.0000
vt 0.2581 0.8504 0.0000
vt 0.2510 0.8680 0.0000
vt 0.2628 0.8856 0.0000
vt 0.2608 0.8936 0.0000
vt 0.2232 0.8936 0.0000
vt 0.1662 0.8936 0.0000
vt 0.7821 0.7920 0.0000
vt 0.7730 0.7919 0.0000
vt 0.7663 0.7851 0.0000
vt 0.7669 0.7252 0.0000
vt 0.7737 0.7185 0.0000
vt 0.7828 0.7186 0.0000
vt 0.7895 0.7254 0.0000
vt 0.7889 0.7853 0.0000
vt 0.2682 0.0974 0.0000
vt 0.2622 0.0930 0.0000
vt 0.3038 0.0121 0.0000
vt 0.2937 0.0119 0.0000
vt 0.3110 0.0804 0.0000
vt 0.3112 0.0196 0.0000
vt 0.7847 0.7985 0.0000
vt 0.7702 0.7983 0.0000
vt 0.7599 0.7877 0.0000
vt 0.7605 0.7225 0.0000
vt 0.7711 0.7121 0.0000
vt 0.7855 0.7122 0.0000
vt 0.7959 0.7229 0.0000
vt 0.7953 0.7881 0.0000
vt 0.2863 0.0192 0.0000
vt 0.3035 0.0878 0.0000
vt 0.2861 0.0801 0.0000
vt 0.2165 0.8941 0.0000
vt 0.1663 0.8941 0.0000
vt 0.1554 0.8508 0.0000
vt 0.2311 0.8508 0.0000
vt 0.2247 0.8698 0.0000
vt 0.1554 0.8119 0.0000
vt 0.2715 0.8119 0.0000
vt 0.2715 0.8352 0.0000
vt 0.2935 0.0877 0.0000
vt 0.2961 0.3743 0.0000
vt 0.2998 0.3822 0.0000
vt 0.3002 0.4174 0.0000
vt 0.2933 0.4295 0.0000
vt 0.2915 0.4213 0.0000
vt 0.7261 0.5969 0.0000
vt 0.7221 0.5805 0.0000
vt 0.7277 0.5784 0.0000
vt 0.7301 0.5876 0.0000
vt 0.7305 0.5686 0.0000
vt 0.7329 0.5722 0.0000
vt 0.7408 0.5656 0.0000
vt 0.7409 0.5695 0.0000
vt 0.7452 0.5660 0.0000
vt 0.7436 0.5688 0.0000
vt 0.7502 0.5719 0.0000
vt 0.7471 0.5720 0.0000
vt 0.7503 0.5781 0.0000
vt 0.7470 0.5758 0.0000
vt 0.7483 0.5880 0.0000
vt 0.7454 0.5824 0.0000
vt 0.7340 0.5980 0.0000
vt 0.7349 0.5885 0.0000
vt 0.2858 0.3724 0.0000
vt 0.2829 0.3785 0.0000
vt 0.3075 0.3946 0.0000
vt 0.2717 0.8117 0.0000
vt 0.2717 0.8443 0.0000
# 122 texture coords

g build_small_crash_2
usemtl 07___Default
s 1
f 1/1/1 2/2/2 3/3/3 
f 4/4/4 5/5/5 6/6/6 
f 6/6/6 2/2/2 4/4/4 
f 7/7/7 8/8/8 9/9/9 
f 9/9/9 10/10/10 11/11/11 
f 9/9/9 11/11/11 12/12/12 
f 7/7/7 9/9/9 12/12/12 
f 11/11/11 10/10/10 6/6/6 
f 6/6/6 5/5/5 11/11/11 
f 9/9/9 13/13/13 14/14/14 
f 14/14/14 10/10/10 9/9/9 
f 6/6/6 14/14/14 13/13/13 
f 13/13/13 3/3/3 2/2/2 
f 6/6/6 13/13/13 2/2/2 
f 15/15/15 16/16/16 17/17/17 
f 17/17/17 18/18/18 15/15/15 
f 4/4/4 15/15/15 18/18/18 
f 18/18/18 5/5/5 4/4/4 
f 17/17/17 7/7/7 12/12/12 
f 12/12/12 18/18/18 17/17/17 
f 18/18/18 12/12/12 11/11/11 
f 11/11/11 5/5/5 18/18/18 
f 10/10/10 14/14/14 6/6/6 
f 19/19/19 16/16/16 15/15/15 
f 20/20/20 19/19/19 15/15/15 
f 15/15/15 4/4/4 20/20/20 
f 1/1/1 21/21/21 2/2/2 
f 21/21/21 20/20/20 4/4/4 
f 4/4/4 2/2/2 21/21/21 
s 8
f 22/22/22 23/23/23 24/24/24 
f 24/24/24 25/25/25 22/22/22 
f 26/26/26 22/22/22 25/25/25 
f 25/25/25 27/27/27 26/26/26 
f 28/28/28 26/26/26 27/27/27 
f 28/28/28 27/27/27 9/29/29 
f 28/28/28 9/29/29 8/30/28 
f 29/22/30 30/23/31 31/24/32 
f 31/24/32 32/25/33 29/22/30 
f 33/26/34 29/22/30 32/25/33 
f 32/25/33 34/27/35 33/26/34 
f 24/24/24 35/31/36 36/32/37 
f 36/32/37 25/25/25 24/24/24 
f 25/25/25 36/32/37 3/33/38 
f 3/33/38 27/27/27 25/25/25 
f 27/27/27 3/33/38 13/34/39 
f 13/34/39 9/29/29 27/27/27 
f 31/24/32 37/31/40 38/32/41 
f 38/32/41 32/25/33 31/24/32 
f 32/25/33 38/32/41 39/33/42 
f 39/33/42 34/27/35 32/25/33 
s 2
f 20/35/43 21/36/43 40/37/44 
f 40/37/44 41/38/45 20/35/43 
f 40/37/44 35/39/46 42/40/47 
f 42/40/47 41/38/45 40/37/44 
f 35/39/46 40/37/44 43/41/48 
f 43/41/48 36/42/49 35/39/46 
f 36/42/49 43/41/48 1/43/50 
f 1/43/50 3/44/51 36/42/49 
f 37/45/52 44/46/53 45/47/54 
f 45/47/54 38/48/55 37/45/52 
f 38/48/55 45/47/54 46/49/56 
f 46/49/56 39/50/57 38/48/55 
f 39/50/57 46/49/56 47/51/58 
f 47/51/58 48/52/59 39/50/57 
f 46/49/56 45/47/54 44/46/53 
f 44/46/53 47/51/58 46/49/56 
f 1/43/50 43/41/48 40/37/44 
f 40/37/44 21/36/43 1/43/50 
s 1
f 24/53/60 23/54/61 49/55/62 
f 50/56/63 51/57/63 48/58/63 
f 50/56/63 48/58/63 42/59/63 
f 35/60/63 50/56/63 42/59/63 
f 52/61/64 53/62/65 54/63/66 
f 54/63/66 55/64/67 56/65/68 
f 56/65/68 57/66/69 58/67/70 
f 54/63/66 56/65/68 58/67/70 
f 52/61/64 54/63/66 58/67/70 
f 59/68/71 52/61/64 58/67/70 
s 2
f 42/40/47 48/52/59 47/51/58 
f 47/51/58 41/38/45 42/40/47 
f 44/46/53 37/45/52 16/69/72 
f 16/69/72 19/70/73 44/46/53 
f 41/38/45 47/51/58 60/71/43 
f 60/71/43 61/72/43 41/38/45 
f 47/51/58 44/46/53 62/73/43 
f 62/73/43 63/74/43 47/51/58 
s 1
f 61/75/74 60/76/75 53/62/65 
f 53/62/65 52/61/64 61/75/74 
f 63/77/76 62/78/77 55/64/67 
f 55/64/67 54/63/66 63/77/76 
f 64/79/78 65/80/79 57/66/69 
f 57/66/69 56/65/68 64/79/78 
f 66/81/80 67/82/81 59/68/71 
f 59/68/71 58/67/70 66/81/80 
s 2
f 41/38/45 61/72/43 67/83/43 
f 47/51/58 63/74/43 60/71/43 
f 44/46/53 64/84/43 62/73/43 
f 41/38/45 67/83/43 66/85/43 
f 41/38/45 66/85/43 19/70/73 
f 20/35/43 41/38/45 19/70/73 
s 1
f 67/82/81 61/75/74 52/61/64 
f 52/61/64 59/68/71 67/82/81 
f 60/76/75 63/77/76 54/63/66 
f 54/63/66 53/62/65 60/76/75 
f 62/78/77 64/79/78 56/65/68 
f 56/65/68 55/64/67 62/78/77 
f 65/80/79 66/81/80 58/67/70 
f 58/67/70 57/66/69 65/80/79 
f 16/86/16 37/87/82 31/88/83 
f 31/88/83 7/89/7 17/90/17 
f 16/86/16 31/88/83 17/90/17 
f 31/88/83 30/91/84 28/92/85 
f 7/89/7 31/88/83 28/92/85 
f 7/89/7 28/92/85 8/93/8 
s 2
f 65/94/43 64/84/43 44/46/53 
f 44/46/53 19/70/73 65/94/43 
f 66/85/43 65/94/43 19/70/73 
s 8
f 68/95/86 33/26/34 34/27/35 
f 34/27/35 69/96/87 68/95/86 
f 70/97/88 39/33/42 48/98/88 
f 48/98/88 51/99/88 70/97/88 
s 2
f 51/100/89 50/101/90 71/102/91 
f 71/102/91 72/103/92 51/100/89 
f 50/101/90 49/104/93 73/105/94 
f 73/105/94 71/102/91 50/101/90 
f 49/104/93 74/106/95 75/107/96 
f 75/107/96 73/105/94 49/104/93 
f 74/106/95 76/108/97 77/109/98 
f 77/109/98 75/107/96 74/106/95 
f 76/108/97 68/110/99 78/111/100 
f 78/111/100 77/109/98 76/108/97 
f 68/110/99 69/112/101 79/113/102 
f 79/113/102 78/111/100 68/110/99 
f 69/112/101 80/114/103 81/115/104 
f 81/115/104 79/113/102 69/112/101 
f 80/114/103 70/116/105 82/117/106 
f 82/117/106 81/115/104 80/114/103 
f 70/116/105 51/100/89 72/103/92 
f 72/103/92 82/117/106 70/116/105 
f 71/102/91 82/117/106 72/103/92 
f 75/107/96 77/109/98 78/111/100 
f 78/111/100 79/113/102 75/107/96 
f 73/105/94 81/115/104 82/117/106 
f 82/117/106 71/102/91 73/105/94 
f 73/105/94 75/107/96 79/113/102 
f 79/113/102 81/115/104 73/105/94 
s 8
f 76/118/86 74/119/107 83/28/86 
f 76/118/86 83/28/86 33/26/34 
f 33/26/34 68/95/86 76/118/86 
f 80/120/88 69/96/87 34/27/35 
f 80/120/88 34/27/35 39/33/42 
f 39/33/42 70/97/88 80/120/88 
s 1
f 35/60/63 24/53/60 50/56/63 
f 24/53/60 49/55/62 50/56/63 
f 83/121/61 74/122/108 49/55/62 
f 49/55/62 23/54/61 83/121/61 
# 156 faces

