# 3ds Max Wavefront OBJ Exporter v0.97b - (c)2007 guruware
# File Created: 26.06.2015 14:36:43

mtllib build_att_crash_2.mtl

#
# object build_att_small_crash_2
#

v  -64.7327 -46.0599 80.3374
v  -40.7776 -46.0599 104.2851
v  -37.0714 22.4663 94.8062
v  -57.1185 42.6221 70.8873
v  40.7651 -46.0599 104.2598
v  37.8549 7.7568 96.8173
v  64.7327 -46.0599 80.2848
v  59.9063 10.1479 74.2991
v  64.7324 -46.0599 -80.2849
v  56.9513 44.5592 -70.6346
v  40.7649 -46.0599 -104.2599
v  37.3222 17.6045 -95.4555
v  -40.7776 -46.0599 -104.2852
v  -35.7953 46.0599 -91.5425
v  19.4081 5.6544 -97.1139
v  -64.7327 -46.0599 -80.3375
v  -59.0880 19.6827 -73.3318
v  -25.2014 22.4663 63.3141
v  -39.2328 42.6221 46.5727
v  27.2413 7.7568 64.7217
v  42.6757 10.1479 48.9607
v  40.6074 44.5592 -52.4820
v  26.8685 17.6045 -69.8547
v  14.3300 5.6544 -71.0154
v  -24.3082 46.0599 -67.1159
v  -40.6113 19.6827 -54.3698
v  -25.2014 -6.4237 63.3141
v  -39.2328 -6.3459 46.5727
v  27.2413 -6.4805 64.7217
v  42.6757 -6.4713 48.9607
v  40.6074 -6.3384 -52.4820
v  26.8685 -6.4425 -69.8547
v  14.3300 -6.4886 -71.0154
v  -24.3082 -6.3326 -67.1159
v  -40.6113 -6.4345 -54.3698
# 35 vertices

vn -0.7005 0.1348 0.7008
vn -0.3777 0.1469 0.9142
vn -0.4579 0.1461 0.8769
vn 0.3781 0.1469 0.9140
vn 0.3666 0.1469 0.9187
vn 0.7008 0.1348 0.7005
vn 0.9963 0.0856 -0.0000
vn 0.7008 0.1348 -0.7005
vn 0.3781 0.1469 -0.9140
vn 0.5194 0.1446 -0.8422
vn -0.3777 0.1469 -0.9142
vn -0.3592 0.1469 -0.9216
vn 0.0003 0.1370 -0.9906
vn -0.7005 0.1348 -0.7008
vn -0.9963 0.0855 -0.0000
vn 0.3842 0.9013 0.2000
vn 0.4004 0.9079 0.1243
vn 0.4234 0.8822 0.2063
vn 0.0965 0.9939 0.0540
vn 0.0640 0.9978 -0.0146
vn 0.0433 0.9990 0.0077
vn -0.1295 0.9855 0.1093
vn -0.3207 0.9234 0.2109
vn -0.3986 0.8806 -0.2563
vn -0.1145 0.9908 -0.0725
vn -0.6177 0.7570 -0.2133
vn -0.6410 0.7015 -0.3116
vn 0.0082 0.9981 -0.0610
vn 0.1532 0.9880 -0.0206
vn -0.0790 0.9906 0.1113
vn -0.0568 0.9929 0.1048
vn -0.2974 0.9176 0.2636
vn -0.1214 0.9912 0.0523
vn 0.9637 0.0000 -0.2671
vn 0.5449 0.0000 -0.8385
vn 0.4344 0.0000 -0.9007
vn 0.9373 0.0000 -0.3484
vn -0.3561 0.0000 -0.9345
vn -0.3752 0.0000 -0.9269
vn -0.9483 0.0000 -0.3174
vn -0.9296 0.0000 -0.3686
vn -0.9693 0.0000 0.2457
vn -0.9410 0.0000 0.3383
vn -0.6512 0.0000 0.7589
vn -0.4758 0.0000 0.8796
vn 0.0051 0.0000 1.0000
vn 0.0041 0.0000 1.0000
vn 0.3540 0.0000 0.9353
vn 0.3729 0.0000 0.9279
vn 0.8649 0.0000 0.5019
vn 0.9021 0.0000 0.4315
vn 0.0008 1.0000 0.0007
vn 0.0007 1.0000 0.0013
vn -0.0013 1.0000 -0.0013
vn -0.0034 1.0000 -0.0033
vn -0.0010 1.0000 -0.0046
vn 0.0056 0.9999 0.0151
vn 0.0007 1.0000 0.0019
vn 0.0020 1.0000 0.0003
vn 0.0010 1.0000 0.0038
# 60 vertex normals

vt 0.2945 0.1422 0.0000
vt 0.3118 0.1398 0.0000
vt 0.3139 0.1750 0.0000
vt 0.2996 0.1879 0.0000
vt 0.3536 0.1398 0.0000
vt 0.3520 0.1674 0.0000
vt 0.3708 0.1421 0.0000
vt 0.3676 0.1711 0.0000
vt 0.3741 0.1937 0.0000
vt 0.3710 0.1649 0.0000
vt 0.4530 0.1649 0.0000
vt 0.4481 0.2114 0.0000
vt 0.3137 0.1725 0.0000
vt 0.2997 0.1889 0.0000
vt 0.3508 0.1871 0.0000
vt 0.3226 0.1664 0.0000
vt 0.3671 0.1760 0.0000
vt 0.3746 0.1986 0.0000
vt 0.4482 0.2104 0.0000
vt 0.6393 0.7005 0.0000
vt 0.6502 0.7125 0.0000
vt 0.6362 0.7172 0.0000
vt 0.6278 0.7072 0.0000
vt 0.6504 0.7461 0.0000
vt 0.6362 0.7414 0.0000
vt 0.6406 0.7557 0.0000
vt 0.6293 0.7486 0.0000
vt 0.5747 0.7594 0.0000
vt 0.5823 0.7521 0.0000
vt 0.5606 0.7468 0.0000
vt 0.5717 0.7419 0.0000
vt 0.5593 0.7367 0.0000
vt 0.5708 0.7350 0.0000
vt 0.5635 0.7060 0.0000
vt 0.5740 0.7113 0.0000
vt 0.5751 0.6919 0.0000
vt 0.5829 0.7004 0.0000
vt 0.8418 0.6513 0.0000
vt 0.8432 0.6384 0.0000
vt 0.8362 0.6366 0.0000
vt 0.8335 0.6408 0.0000
vt 0.8350 0.6204 0.0000
vt 0.8323 0.6223 0.0000
vt 0.8266 0.6155 0.0000
vt 0.8266 0.6196 0.0000
vt 0.7912 0.6196 0.0000
vt 0.7995 0.6311 0.0000
vt 0.7903 0.6330 0.0000
vt 0.7961 0.6357 0.0000
vt 0.7931 0.6404 0.0000
vt 0.7962 0.6394 0.0000
vt 0.7938 0.6604 0.0000
vt 0.8023 0.6486 0.0000
vt 0.8067 0.6578 0.0000
vt 0.8067 0.6514 0.0000
vt 0.4981 0.9269 0.0000
vt 0.4927 0.9324 0.0000
vt 0.4576 0.9322 0.0000
vt 0.4515 0.9275 0.0000
vt 0.4510 0.9232 0.0000
vt 0.4522 0.9098 0.0000
vt 0.4565 0.9041 0.0000
vt 0.4915 0.9040 0.0000
vt 0.4973 0.9088 0.0000
# 64 texture coords

g build_att_small_crash_2
usemtl 07___Default
s 1
f 1/1/1 2/2/2 3/3/3 
f 3/3/3 4/4/1 1/1/1 
f 2/2/2 5/5/4 6/6/5 
f 6/6/5 3/3/3 2/2/2 
f 6/6/5 5/5/4 7/7/6 
f 7/7/6 8/8/6 6/6/5 
s 2
f 8/9/7 7/10/7 9/11/7 
f 9/11/7 10/12/7 8/9/7 
s 1
f 9/1/8 11/2/9 12/13/10 
f 12/13/10 10/14/8 9/1/8 
f 13/5/11 14/15/12 15/16/13 
f 11/2/9 13/5/11 15/16/13 
f 12/13/10 11/2/9 15/16/13 
f 13/5/11 16/7/14 17/17/14 
f 17/17/14 14/15/12 13/5/11 
s 2
f 17/18/15 16/10/15 1/11/15 
f 1/11/15 4/19/15 17/18/15 
s 4
f 4/20/16 3/21/17 18/22/18 
f 18/22/18 19/23/19 4/20/16 
f 3/21/17 6/24/20 20/25/21 
f 20/25/21 18/22/18 3/21/17 
f 6/24/20 8/26/22 21/27/23 
f 21/27/23 20/25/21 6/24/20 
f 8/26/22 10/28/24 22/29/25 
f 22/29/25 21/27/23 8/26/22 
f 10/28/24 12/30/26 23/31/27 
f 23/31/27 22/29/25 10/28/24 
f 12/30/26 15/32/28 24/33/29 
f 24/33/29 23/31/27 12/30/26 
f 15/32/28 14/34/30 25/35/31 
f 25/35/31 24/33/29 15/32/28 
f 14/34/30 17/36/32 26/37/33 
f 26/37/33 25/35/31 14/34/30 
f 17/36/32 4/20/16 19/23/19 
f 19/23/19 26/37/33 17/36/32 
s 1
f 19/38/34 18/39/35 27/40/36 
f 27/40/36 28/41/37 19/38/34 
f 18/39/35 20/42/38 29/43/39 
f 29/43/39 27/40/36 18/39/35 
f 20/42/38 21/44/40 30/45/41 
f 30/45/41 29/43/39 20/42/38 
f 21/44/40 22/46/42 31/47/43 
f 31/47/43 30/45/41 21/44/40 
f 22/46/42 23/48/44 32/49/45 
f 32/49/45 31/47/43 22/46/42 
f 23/48/44 24/50/46 33/51/47 
f 33/51/47 32/49/45 23/48/44 
f 24/50/46 25/52/48 34/53/49 
f 34/53/49 33/51/47 24/50/46 
f 25/52/48 26/54/50 35/55/51 
f 35/55/51 34/53/49 25/52/48 
f 26/54/50 19/38/34 28/41/37 
f 28/41/37 35/55/51 26/54/50 
s 2
f 29/56/52 30/57/53 31/58/54 
f 31/58/54 32/59/55 33/60/56 
f 33/60/56 34/61/57 35/62/58 
f 31/58/54 33/60/56 35/62/58 
f 29/56/52 31/58/54 35/62/58 
f 29/56/52 35/62/58 28/63/59 
f 27/64/60 29/56/52 28/63/59 
# 60 faces

