# 3ds Max Wavefront OBJ Exporter v0.97b - (c)2007 guruware
# File Created: 26.06.2015 14:34:25

mtllib build_small_crash_1.mtl

#
# object build_small_crash_1
#

v  -64.2241 -201.5481 -162.3694
v  -112.9351 -201.5481 -113.6735
v  -112.9351 -125.1853 -113.6735
v  -64.2241 -125.1853 -162.3694
v  64.2224 -125.1853 -162.3295
v  64.2224 -201.5481 -162.3295
v  112.9348 -201.5481 -113.6019
v  112.9348 -125.1853 -113.6019
v  112.9351 -125.1853 113.6019
v  112.9351 -201.5481 113.6019
v  64.2224 -201.5481 162.3295
v  64.2224 -125.1853 162.3295
v  -64.2241 -125.1853 162.3694
v  -64.2241 -201.5481 162.3694
v  -112.9351 -201.5481 113.6735
v  -112.9351 -125.1853 113.6735
v  -91.7798 -43.1492 -92.3798
v  -52.1846 -43.0896 -131.9318
v  52.1833 -43.0898 -131.8994
v  91.7795 -43.1495 -92.3217
v  91.7798 -43.1495 92.3218
v  52.1833 -43.0898 131.8994
v  -52.1846 -43.0896 131.9318
v  -84.5332 -37.6707 88.5409
v  84.5332 -37.6707 88.4847
v  84.5330 -37.6707 -88.4846
v  -84.5332 -37.6707 -88.5409
v  -91.7798 -43.1492 92.3799
v  -48.9749 -37.6707 -124.0882
v  48.9709 -37.6707 -124.0577
v  48.9709 -37.6707 124.0577
v  -48.9749 -37.6707 124.0882
v  -96.5068 -61.4806 20.1249
v  -108.6827 -108.6958 -24.1743
v  -112.9351 -176.8005 -0.9971
v  -112.9351 -166.8797 103.6254
v  -106.9131 -101.8337 107.6123
v  -108.4247 -107.6953 102.3318
v  -112.9351 -125.1853 103.6252
v  -80.5076 -85.5798 125.6005
v  -97.5118 -65.3772 98.1494
v  -99.4884 -108.3046 2.0758
v  -87.3125 -75.3678 32.9785
v  -112.9351 -125.1853 -17.1276
v  -103.7407 -119.8076 6.9915
v  -103.7407 -155.8139 18.2440
v  -103.7407 -148.8932 91.2276
v  -103.7407 -119.8076 91.2275
v  -99.2304 -107.6067 90.3253
v  -97.7188 -103.5177 94.0088
v  -71.3132 -92.1791 106.5572
v  -88.3175 -78.0860 87.4077
v  -95.2776 -56.7134 70.1461
v  -86.0833 -72.0422 67.8728
# 54 vertices

vn -0.3825 0.0000 -0.9240
vn -0.7070 0.0000 -0.7072
vn -0.6961 0.1745 -0.6964
vn -0.3757 0.1806 -0.9090
vn 0.3761 0.1805 -0.9088
vn 0.3829 0.0000 -0.9238
vn 0.7072 0.0000 -0.7070
vn 0.6964 0.1745 -0.6962
vn 1.0000 0.0000 -0.0000
vn 0.9933 0.1152 -0.0000
vn 0.3829 0.0000 0.9238
vn 0.7072 0.0000 0.7070
vn 0.6964 0.1745 0.6962
vn 0.3761 0.1805 0.9088
vn -0.3757 0.1806 0.9090
vn -0.3825 0.0000 0.9240
vn -0.7070 0.0000 0.7072
vn -0.6961 0.1745 0.6964
vn -0.6639 0.3436 -0.6642
vn -0.3566 0.3703 -0.8577
vn 0.3570 0.3702 -0.8576
vn 0.6642 0.3435 -0.6640
vn 0.9683 0.2497 -0.0000
vn 0.6642 0.3435 0.6640
vn 0.3570 0.3702 0.8576
vn -0.3566 0.3703 0.8577
vn -0.3320 0.9347 0.1268
vn 0.3321 0.9347 0.1270
vn 0.3321 0.9347 -0.1268
vn -0.3320 0.9347 -0.1271
vn -0.5110 0.8308 -0.2204
vn -0.5113 0.8307 0.2203
vn -0.1316 0.9395 -0.3162
vn -0.2061 0.8425 -0.4977
vn 0.2062 0.8423 -0.4979
vn 0.1315 0.9395 -0.3162
vn 0.5114 0.8306 -0.2202
vn 0.5111 0.8308 0.2203
vn 0.1318 0.9395 0.3162
vn 0.2064 0.8425 0.4977
vn -0.1313 0.9395 0.3162
vn -0.2060 0.8424 0.4980
vn -0.9683 0.2497 0.0000
vn -1.0000 0.0000 -0.0000
vn -0.9933 0.1151 0.0000
vn -0.9917 0.1287 0.0000
vn -0.6639 0.3436 0.6642
vn -0.6640 0.3436 0.6642
vn -0.9100 -0.2732 0.3119
vn -0.9291 0.2125 0.3027
vn -0.9479 0.2197 0.2309
vn -0.9834 -0.0850 0.1603
vn -0.9248 0.2332 0.3005
vn -0.9540 0.2209 0.2027
vn -0.9510 0.2508 0.1809
vn -0.9650 0.2355 0.1153
vn -0.9196 0.2806 -0.2748
vn -0.9513 0.1535 -0.2673
vn -0.8075 0.0723 -0.5854
vn -0.9188 0.1965 -0.3423
vn -0.7203 0.4108 -0.5589
vn -0.8945 0.3943 -0.2108
vn -0.4104 0.8130 -0.4131
vn -0.7266 0.6776 -0.1139
vn -0.9000 0.1507 -0.4089
vn -0.9719 0.2349 0.0129
vn -0.8342 -0.5455 -0.0807
vn -0.9832 -0.1702 0.0653
vn -0.8614 -0.5023 -0.0759
vn -0.9902 -0.1335 -0.0408
vn -0.9683 0.2497 -0.0000
vn -0.9953 0.0971 -0.0000
# 72 vertex normals

vt 0.3826 0.3408 0.0000
vt 0.4186 0.3445 0.0000
vt 0.4150 0.3844 0.0000
vt 0.3811 0.3792 0.0000
vt 0.3173 0.3794 0.0000
vt 0.3151 0.3411 0.0000
vt 0.2792 0.3449 0.0000
vt 0.2836 0.3848 0.0000
vt 0.2715 0.8119 0.0000
vt 0.2715 0.8508 0.0000
vt 0.1554 0.8508 0.0000
vt 0.1554 0.8119 0.0000
vt 0.4058 0.4291 0.0000
vt 0.3770 0.4235 0.0000
vt 0.3221 0.4237 0.0000
vt 0.2933 0.4295 0.0000
vt 0.2606 0.8941 0.0000
vt 0.1663 0.8941 0.0000
vt 0.2262 0.0930 0.0000
vt 0.2259 0.0067 0.0000
vt 0.3161 0.0067 0.0000
vt 0.3164 0.0930 0.0000
vt 0.3187 0.0974 0.0000
vt 0.2239 0.0974 0.0000
vt 0.3344 0.0749 0.0000
vt 0.3391 0.0768 0.0000
vt 0.3389 0.0231 0.0000
vt 0.3342 0.0250 0.0000
vt 0.3184 0.0021 0.0000
vt 0.2236 0.0021 0.0000
vt 0.2079 0.0249 0.0000
vt 0.2032 0.0230 0.0000
vt 0.2081 0.0748 0.0000
vt 0.2034 0.0768 0.0000
vt 0.2238 0.8844 0.0000
vt 0.2011 0.8595 0.0000
vt 0.2130 0.8245 0.0000
vt 0.2664 0.8295 0.0000
vt 0.2684 0.8631 0.0000
vt 0.2657 0.8600 0.0000
vt 0.2664 0.8508 0.0000
vt 0.3043 0.4032 0.0000
vt 0.2907 0.4174 0.0000
vt 0.6020 0.9459 0.0000
vt 0.5867 0.9280 0.0000
vt 0.5964 0.9287 0.0000
vt 0.6072 0.9408 0.0000
vt 0.5891 0.9218 0.0000
vt 0.5981 0.9243 0.0000
vt 0.5959 0.9038 0.0000
vt 0.6026 0.9120 0.0000
vt 0.6327 0.9076 0.0000
vt 0.6280 0.9144 0.0000
vt 0.6334 0.9219 0.0000
vt 0.6283 0.9246 0.0000
vt 0.6333 0.9275 0.0000
vt 0.6282 0.9293 0.0000
vt 0.6352 0.9285 0.0000
vt 0.6297 0.9309 0.0000
vt 0.6416 0.9404 0.0000
vt 0.6359 0.9388 0.0000
vt 0.6292 0.9471 0.0000
vt 0.6266 0.9405 0.0000
vt 0.6196 0.9482 0.0000
vt 0.6193 0.9421 0.0000
vt 0.2493 0.8869 0.0000
vt 0.2047 0.8508 0.0000
vt 0.2636 0.8824 0.0000
vt 0.2864 0.3975 0.0000
# 69 texture coords

g build_small_crash_1
usemtl 07___Default
s 2
f 1/1/1 2/2/2 3/3/3 
f 3/3/3 4/4/4 1/1/1 
f 1/1/1 4/4/4 5/5/5 
f 5/5/5 6/6/6 1/1/1 
f 7/7/7 6/6/6 5/5/5 
f 5/5/5 8/8/8 7/7/7 
s 1
f 7/9/9 8/10/10 9/11/10 
f 9/11/10 10/12/9 7/9/9 
s 2
f 11/1/11 10/2/12 9/3/13 
f 9/3/13 12/4/14 11/1/11 
f 11/1/11 12/4/14 13/5/15 
f 13/5/15 14/6/16 11/1/11 
f 15/7/17 14/6/16 13/5/15 
f 13/5/15 16/8/18 15/7/17 
f 4/4/4 3/3/3 17/13/19 
f 17/13/19 18/14/20 4/4/4 
f 18/14/20 19/15/21 5/5/5 
f 5/5/5 4/4/4 18/14/20 
f 8/8/8 5/5/5 19/15/21 
f 19/15/21 20/16/22 8/8/8 
s 1
f 8/10/10 20/17/23 21/18/23 
f 21/18/23 9/11/10 8/10/10 
s 2
f 12/4/14 9/3/13 21/13/24 
f 21/13/24 22/14/25 12/4/14 
f 12/4/14 22/14/25 23/15/26 
f 23/15/26 13/5/15 12/4/14 
s 4
f 24/19/27 25/20/28 26/21/29 
f 26/21/29 27/22/30 24/19/27 
f 17/23/31 28/24/32 24/19/27 
f 24/19/27 27/22/30 17/23/31 
f 17/23/31 27/22/30 29/25/33 
f 29/25/33 18/26/34 17/23/31 
f 19/27/35 18/26/34 29/25/33 
f 29/25/33 30/28/36 19/27/35 
f 19/27/35 30/28/36 26/21/29 
f 26/21/29 20/29/37 19/27/35 
f 25/20/28 21/30/38 20/29/37 
f 20/29/37 26/21/29 25/20/28 
f 21/30/38 25/20/28 31/31/39 
f 31/31/39 22/32/40 21/30/38 
f 32/33/41 23/34/42 22/32/40 
f 22/32/40 31/31/39 32/33/41 
f 23/34/42 32/33/41 24/19/27 
f 24/19/27 28/24/32 23/34/42 
f 31/31/39 25/20/28 24/19/27 
f 24/19/27 32/33/41 31/31/39 
f 30/28/36 29/25/33 27/22/30 
f 27/22/30 26/21/29 30/28/36 
s 1
f 33/35/43 17/18/43 34/36/43 
f 35/37/44 2/12/44 15/9/44 
f 15/9/44 36/38/44 35/37/44 
f 16/10/45 37/39/43 38/40/43 
f 38/40/43 39/41/46 16/10/45 
s 2
f 40/42/47 23/15/26 28/16/47 
f 28/16/47 41/43/48 40/42/47 
s 4
f 33/44/49 34/45/50 42/46/51 
f 42/46/51 43/47/52 33/44/49 
f 34/45/50 44/48/53 45/49/54 
f 45/49/54 42/46/51 34/45/50 
f 44/48/53 35/50/55 46/51/56 
f 46/51/56 45/49/54 44/48/53 
f 35/50/55 36/52/57 47/53/58 
f 47/53/58 46/51/56 35/50/55 
f 36/52/57 39/54/59 48/55/60 
f 48/55/60 47/53/58 36/52/57 
f 39/54/59 38/56/61 49/57/62 
f 49/57/62 48/55/60 39/54/59 
f 38/56/61 37/58/63 50/59/64 
f 50/59/64 49/57/62 38/56/61 
f 37/58/63 40/60/65 51/61/66 
f 51/61/66 50/59/64 37/58/63 
f 40/60/65 41/62/67 52/63/68 
f 52/63/68 51/61/66 40/60/65 
f 53/64/69 33/44/49 43/47/52 
f 43/47/52 54/65/70 53/64/69 
f 41/62/67 53/64/69 54/65/70 
f 54/65/70 52/63/68 41/62/67 
f 45/49/54 54/65/70 43/47/52 
f 43/47/52 42/46/51 45/49/54 
s 1
f 33/35/43 53/66/71 28/17/71 
f 28/17/71 17/18/43 33/35/43 
f 3/11/45 44/67/72 34/36/43 
f 34/36/43 17/18/43 3/11/45 
f 53/66/71 41/68/71 28/17/71 
s 2
f 37/69/47 16/8/18 13/5/15 
f 13/5/15 40/42/47 37/69/47 
f 40/42/47 13/5/15 23/15/26 
s 1
f 16/10/45 39/41/46 36/38/44 
f 36/38/44 15/9/44 16/10/45 
f 44/67/72 3/11/45 2/12/44 
f 2/12/44 35/37/44 44/67/72 
s 4
f 48/55/60 49/57/62 52/63/68 
f 52/63/68 46/51/56 48/55/60 
f 45/49/54 46/51/56 52/63/68 
f 52/63/68 54/65/70 45/49/54 
f 50/59/64 51/61/66 52/63/68 
f 52/63/68 49/57/62 50/59/64 
f 46/51/56 47/53/58 48/55/60 
# 98 faces

