# 3ds Max Wavefront OBJ Exporter v0.97b - (c)2007 guruware
# File Created: 26.06.2015 14:34:47

mtllib junk_13.mtl

#
# object junk_13
#

v  -96.8442 21.3708 169.1371
v  4.0542 21.3710 -6.4933
v  4.0542 -36.3034 -6.4933
v  -96.8442 -36.3036 169.1371
v  39.6548 21.3708 -205.8905
v  39.6548 -36.3036 -205.8905
v  43.7113 36.3148 7.9408
v  26.3419 36.3147 38.1788
v  42.4816 21.3711 39.7503
v  57.8170 21.3712 13.0749
v  18.0967 36.3148 -1.3822
v  -85.3965 36.3145 178.7425
v  54.5985 36.3145 -205.8903
v  -82.2494 25.1482 181.3781
v  21.9618 25.1515 0.0246
v  39.0579 25.4975 6.2471
v  2.1143 25.5007 70.5490
v  -12.0221 25.4185 86.6505
v  -8.5278 25.5016 89.0719
v  -68.2952 25.5067 193.0995
v  58.7034 25.1482 -205.8863
v  64.2513 25.2574 -205.8893
v  52.4488 25.3590 -109.7067
v  57.4692 25.5020 -96.8919
v  14.3086 16.6325 -2.7609
v  -88.4781 16.6286 176.1411
v  -88.1003 -9.8375 176.4579
v  14.7711 -9.8354 -2.5926
v  50.5657 16.6286 -205.8784
v  51.0587 -9.8375 -205.8781
v  -0.6770 16.9579 92.9903
v  -61.5132 16.9878 198.7952
v  60.9150 16.9531 -66.3127
v  47.4440 16.9343 9.2994
v  89.7819 1.1966 -166.0535
v  96.8439 -36.3036 -205.8897
v  96.8439 1.1631 -205.8897
v  57.2762 33.5260 -52.3157
v  69.3423 21.3710 -51.5893
v  85.5496 2.0746 -205.8970
v  85.3629 -9.8150 -205.8948
v  47.2371 -9.7277 9.2241
v  70.3353 -6.6144 -120.9666
v  62.5152 -3.6626 -76.6581
v  -61.8306 -9.6579 198.5225
v  51.2212 36.3147 -103.4221
v  75.2280 -13.6300 -83.9556
v  61.0173 36.3145 -205.8902
v  -6.0183 27.2937 112.3888
v  -53.0343 21.3708 205.8969
v  1.3148 21.3710 111.3586
v  -53.0343 -36.3036 205.8969
v  6.1042 3.7328 103.1407
v  5.3608 36.3147 62.4350
v  20.8082 22.7499 43.6779
v  25.2157 16.9452 47.9584
v  25.0355 9.1631 48.1308
v  12.0189 -2.1853 70.4978
v  0.0562 5.2232 91.4497
v  -14.4726 36.3147 91.5732
v  -9.2706 36.3147 100.1755
v  34.4965 2.9078 53.8078
v  -64.4820 36.3145 196.2914
v  85.3629 -36.2923 -205.8948
v  51.0587 -36.3148 -205.8781
v  58.2093 -36.3036 13.2177
# 66 vertices

vn -0.7971 0.3935 -0.4580
vn -0.7972 0.3933 -0.4580
vn -0.8671 0.0000 -0.4981
vn -0.9051 0.3933 -0.1616
vn -0.9050 0.3935 -0.1616
vn -0.9844 0.0000 -0.1758
vn 0.3654 0.9068 0.2100
vn 0.1976 0.9737 0.1135
vn 0.8138 0.3447 0.4678
vn 0.8059 0.3679 0.4638
vn -0.3038 0.9366 -0.1745
vn -0.3031 0.9369 -0.1742
vn -0.3441 0.9369 -0.0614
vn -0.3449 0.9366 -0.0616
vn 0.3206 -0.9291 0.1842
vn 0.3208 -0.9290 0.1843
vn -0.3508 -0.9145 -0.2015
vn -0.0075 -1.0000 -0.0043
vn 0.0174 -0.9998 0.0101
vn -0.3145 -0.9319 -0.1807
vn -0.3521 -0.9138 -0.2023
vn 0.3640 -0.9291 0.0650
vn 0.0197 -0.9998 0.0035
vn 0.0192 -0.9998 0.0034
vn 0.3642 -0.9290 0.0650
vn -0.3983 -0.9145 -0.0711
vn -0.0762 -0.9970 -0.0136
vn 0.8043 -0.3737 0.4621
vn 0.8669 0.0183 0.4981
vn 0.9131 -0.3736 0.1630
vn 0.9131 -0.3737 0.1630
vn 0.9843 0.0183 0.1757
vn -0.8087 -0.3604 -0.4649
vn -0.8071 -0.3647 -0.4643
vn -0.8837 -0.4408 -0.1576
vn -0.9152 -0.3686 -0.1627
vn 0.9846 0.0000 0.1746
vn 0.9847 0.0006 0.1744
vn 0.4549 0.8885 0.0612
vn 0.9153 0.3681 0.1633
vn 0.9397 0.2988 0.1666
vn -0.9845 0.0152 -0.1745
vn -0.9845 0.0154 -0.1745
vn -0.9846 0.0082 -0.1746
vn 0.9845 -0.0220 0.1741
vn -0.9846 0.0103 -0.1747
vn -0.0044 1.0000 -0.0026
vn -0.0027 1.0000 -0.0012
vn -0.0030 1.0000 -0.0013
vn -0.0046 1.0000 -0.0026
vn -0.0009 1.0000 -0.0005
vn -0.0007 1.0000 -0.0005
vn 0.8621 0.3581 -0.3587
vn 0.8345 0.4640 -0.2970
vn 0.6048 0.5507 -0.5753
vn 0.9076 0.3907 -0.1535
vn 0.9897 0.1363 -0.0444
vn 0.9528 0.2828 -0.1104
vn 0.3833 0.7479 -0.5419
vn 0.4947 0.8590 -0.1319
vn 0.0220 0.9996 0.0197
vn -0.2186 0.9742 0.0568
vn 0.0804 0.9967 0.0134
vn 0.0834 0.9831 0.1628
vn 0.9601 0.2637 0.0936
vn 0.9558 0.2796 0.0914
vn 0.6172 0.7024 0.3547
vn 0.8075 0.3636 0.4645
vn 0.8373 0.2591 0.4814
vn 0.8666 0.0009 0.4990
vn 0.8668 0.0007 0.4987
vn 0.0000 1.0000 0.0000
vn -0.6051 -0.7163 -0.3476
vn -0.8058 -0.3686 -0.4635
vn -0.8100 -0.3565 -0.4656
vn -0.8671 0.0123 -0.4979
vn -0.8665 0.0101 -0.4991
vn -0.8665 0.0083 -0.4991
vn -0.8665 0.0152 -0.4989
vn -0.8669 0.0099 -0.4983
vn 0.1667 0.4301 0.8873
vn 0.5127 0.1704 0.8415
vn 0.5385 0.2356 0.8091
vn 0.3289 0.3463 0.8786
vn 0.7450 0.2212 0.6293
vn 0.7405 0.2225 0.6341
vn 0.9263 0.3549 -0.1265
vn 0.9652 0.2599 0.0290
vn 0.8528 0.4693 -0.2293
vn 0.6779 0.4900 -0.5481
vn 0.8532 0.4947 -0.1654
vn 0.9756 0.2049 0.0791
vn 0.5520 0.6302 -0.5461
vn 0.6786 0.7182 -0.1540
vn 0.6464 0.6881 -0.3297
vn 0.0178 0.8229 0.5679
vn -0.2201 0.9689 -0.1132
vn 0.1818 0.5815 0.7929
vn -0.6426 0.0000 0.7662
vn -0.6425 0.0003 0.7663
vn -0.6427 0.0002 0.7661
vn -0.6427 -0.0001 0.7661
vn -0.6422 0.0002 0.7665
vn -0.6426 0.0006 0.7662
vn -0.6428 0.0004 0.7660
vn -0.6428 -0.0002 0.7660
vn -0.6428 -0.0006 0.7660
vn -0.6422 -0.0004 0.7665
vn -0.6422 -0.0007 0.7666
vn 0.0006 0.0000 -1.0000
vn 0.0002 -0.0000 -1.0000
vn -0.0000 0.0000 -1.0000
vn 0.0003 0.0000 -1.0000
vn -0.0000 -0.0004 -1.0000
vn 0.0008 -0.0007 -1.0000
vn 0.0007 -0.0004 -1.0000
vn 0.0001 -0.0003 -1.0000
vn -0.0001 -0.0003 -1.0000
vn -0.0005 -0.0002 -1.0000
vn 0.0011 0.0000 -1.0000
vn 0.0006 -0.0002 -1.0000
vn 0.0005 -0.0001 -1.0000
vn 0.0004 0.0000 -1.0000
vn 0.8662 0.0067 0.4996
vn 0.8663 0.0059 0.4995
vn 0.2082 0.9707 0.1196
vn 0.3672 0.9059 0.2111
vn -0.0000 1.0000 0.0000
vn 0.9848 0.0046 0.1737
vn 0.9846 0.0062 0.1746
vn 0.0162 0.9999 0.0011
vn 0.4151 0.9069 0.0724
vn 0.0000 1.0000 -0.0000
# 133 vertex normals

vt 0.2220 0.2037 0.0000
vt 0.2275 0.3076 0.0000
vt 0.2568 0.3061 0.0000
vt 0.2516 0.2034 0.0000
vt 0.6613 0.0946 0.0000
vt 0.6670 0.1986 0.0000
vt 0.6374 0.1988 0.0000
vt 0.6321 0.0960 0.0000
vt 0.2036 0.3142 0.0000
vt 0.2026 0.2965 0.0000
vt 0.1919 0.3011 0.0000
vt 0.1928 0.3167 0.0000
vt 0.2171 0.3100 0.0000
vt 0.2110 0.2038 0.0000
vt 0.6780 0.1985 0.0000
vt 0.6716 0.0922 0.0000
vt 0.2014 0.2763 0.0000
vt 0.2040 0.2649 0.0000
vt 0.2008 0.2653 0.0000
vt 0.1971 0.2039 0.0000
vt 0.6823 0.1985 0.0000
vt 0.6833 0.1484 0.0000
vt 0.6851 0.0880 0.0000
vt 0.6884 0.1417 0.0000
vt 0.2368 0.2035 0.0000
vt 0.2421 0.3068 0.0000
vt 0.6467 0.0953 0.0000
vt 0.6522 0.1987 0.0000
vt 0.1901 0.2669 0.0000
vt 0.1866 0.2040 0.0000
vt 0.6982 0.1252 0.0000
vt 0.6959 0.0856 0.0000
vt 0.7116 0.1776 0.0000
vt 0.7317 0.1982 0.0000
vt 0.7127 0.1983 0.0000
vt 0.6890 0.1191 0.0000
vt 0.6979 0.1189 0.0000
vt 0.7107 0.1983 0.0000
vt 0.7172 0.1983 0.0000
vt 0.7107 0.0849 0.0000
vt 0.7129 0.1535 0.0000
vt 0.7100 0.1301 0.0000
vt 0.8749 0.5598 0.0000
vt 0.8378 0.5621 0.0000
vt 0.8384 0.5563 0.0000
vt 0.8735 0.5542 0.0000
vt 0.8047 0.5464 0.0000
vt 0.8021 0.5516 0.0000
vt 0.5454 0.6517 0.0000
vt 0.5348 0.6588 0.0000
vt 0.5357 0.6486 0.0000
vt 0.5611 0.6612 0.0000
vt 0.5680 0.6638 0.0000
vt 0.5634 0.6694 0.0000
vt 0.5563 0.6442 0.0000
vt 0.5604 0.6348 0.0000
vt 0.6326 0.6381 0.0000
vt 0.6099 0.6322 0.0000
vt 0.6335 0.6316 0.0000
vt 0.5820 0.6402 0.0000
vt 0.6242 0.6666 0.0000
vt 0.6237 0.6733 0.0000
vt 0.1938 0.2565 0.0000
vt 0.1896 0.2592 0.0000
vt 0.1574 0.2042 0.0000
vt 0.1809 0.2642 0.0000
vt 0.2048 0.2801 0.0000
vt 0.1989 0.2934 0.0000
vt 0.1915 0.2937 0.0000
vt 0.1872 0.2937 0.0000
vt 0.1802 0.2806 0.0000
vt 0.1780 0.3175 0.0000
vt 0.1720 0.2041 0.0000
vt 0.1837 0.2678 0.0000
vt 0.6300 0.7212 0.0000
vt 0.6253 0.7303 0.0000
vt 0.6211 0.7249 0.0000
vt 0.6214 0.7219 0.0000
vt 0.6109 0.7316 0.0000
vt 0.6070 0.7269 0.0000
vt 0.5950 0.7315 0.0000
vt 0.5977 0.7269 0.0000
vt 0.5905 0.7296 0.0000
vt 0.5963 0.7262 0.0000
vt 0.5862 0.7236 0.0000
vt 0.5958 0.7214 0.0000
vt 0.5876 0.7194 0.0000
vt 0.5985 0.7181 0.0000
vt 0.5951 0.7135 0.0000
vt 0.6207 0.7141 0.0000
vt 0.6089 0.7187 0.0000
vt 0.6204 0.7195 0.0000
vt 0.5639 0.6493 0.0000
vt 0.5439 0.6492 0.0000
vt 0.5372 0.6337 0.0000
vt 0.5706 0.6337 0.0000
vt 0.5642 0.6648 0.0000
vt 0.5706 0.6674 0.0000
vt 0.5619 0.6761 0.0000
vt 0.5590 0.6698 0.0000
vt 0.5460 0.6761 0.0000
vt 0.5484 0.6696 0.0000
vt 0.5372 0.6674 0.0000
vt 0.5436 0.6646 0.0000
vt 0.5641 0.6492 0.0000
vt 0.5441 0.6494 0.0000
vt 0.5439 0.6339 0.0000
vt 0.5640 0.6337 0.0000
vt 0.5599 0.6696 0.0000
vt 0.5646 0.6646 0.0000
vt 0.5710 0.6673 0.0000
vt 0.5623 0.6761 0.0000
vt 0.5585 0.6761 0.0000
vt 0.5566 0.6697 0.0000
vt 0.5706 0.6336 0.0000
vt 0.5441 0.6563 0.0000
vt 0.5375 0.6559 0.0000
vt 0.5372 0.6340 0.0000
vt 0.1632 0.3183 0.0000
vt 0.1821 0.2931 0.0000
vt 0.2005 0.2602 0.0000
vt 0.2051 0.2621 0.0000
vt 0.7168 0.1348 0.0000
vt 0.7255 0.0842 0.0000
vt 0.6824 0.1456 0.0000
vt 0.6813 0.1985 0.0000
# 126 texture coords

g junk_13
usemtl 07___Default
s 2
f 1/1/1 2/2/2 3/3/3 
f 3/3/3 4/4/3 1/1/1 
s 1
f 2/5/4 5/6/5 6/7/6 
f 6/7/6 3/8/6 2/5/4 
s 2
f 7/9/7 8/10/8 9/11/9 
f 9/11/9 10/12/10 7/9/7 
f 11/13/11 2/2/2 1/1/1 
f 1/1/1 12/14/12 11/13/11 
s 1
f 13/15/13 5/6/5 2/5/4 
f 2/5/4 11/16/14 13/15/13 
s 2
f 14/14/15 15/13/16 16/9/17 
f 16/9/17 17/17/18 18/18/19 
f 14/14/15 16/9/17 18/18/19 
f 14/14/15 18/18/19 19/19/20 
f 20/20/21 14/14/15 19/19/20 
s 1
f 21/15/22 22/21/23 23/22/24 
f 15/16/25 21/15/22 23/22/24 
f 16/23/26 15/16/25 23/22/24 
f 16/23/26 23/22/24 24/24/27 
s 2
f 25/2/28 26/1/28 27/25/29 
f 27/25/29 28/26/29 25/2/28 
s 1
f 29/6/30 25/5/31 28/27/32 
f 28/27/32 30/28/32 29/6/30 
s 2
f 20/20/21 19/19/20 31/29/33 
f 31/29/33 32/30/34 20/20/21 
s 1
f 16/23/26 24/24/27 33/31/35 
f 33/31/35 34/32/36 16/23/26 
s 2
f 15/13/16 14/14/15 26/1/28 
f 26/1/28 25/2/28 15/13/16 
s 1
f 21/15/22 15/16/25 25/5/31 
f 25/5/31 29/6/30 21/15/22 
f 35/33/37 36/34/38 37/35/37 
f 38/36/39 10/32/40 39/37/41 
f 40/38/42 41/39/43 42/40/44 
f 43/41/45 40/38/42 42/40/44 
f 44/42/46 43/41/45 42/40/44 
f 44/42/46 42/40/44 34/32/36 
f 44/42/46 34/32/36 33/31/35 
s 4
f 45/43/47 42/44/48 28/45/49 
f 28/45/49 27/46/50 45/43/47 
f 30/47/51 28/45/49 42/44/48 
f 42/44/48 41/48/52 30/47/51 
s 2
f 33/49/53 38/50/54 39/51/55 
f 24/52/56 23/53/57 46/54/58 
f 46/54/58 38/50/54 24/52/56 
f 44/55/59 39/51/55 47/56/60 
f 40/57/61 35/58/62 37/59/63 
f 40/57/61 43/60/64 35/58/62 
f 43/60/64 47/56/60 35/58/62 
f 43/60/64 44/55/59 47/56/60 
f 22/61/65 48/62/66 46/54/58 
f 46/54/58 23/53/57 22/61/65 
f 49/63/67 50/30/68 51/64/69 
f 50/30/68 52/65/70 53/66/71 
f 53/66/71 51/64/69 50/30/68 
f 7/9/7 11/13/11 54/67/72 
f 54/67/72 8/10/8 7/9/7 
f 55/68/73 17/17/18 16/9/17 
f 55/68/73 16/9/17 34/12/74 
f 56/69/75 55/68/73 34/12/74 
f 57/70/76 56/69/75 34/12/74 
f 58/71/77 57/70/76 34/12/74 
f 58/71/77 34/12/74 42/72/78 
f 58/71/77 42/72/78 45/73/79 
f 58/71/77 45/73/79 32/30/34 
f 59/74/80 58/71/77 32/30/34 
f 59/74/80 32/30/34 31/29/33 
s 1
f 9/75/81 8/76/82 55/77/83 
f 55/77/83 56/78/84 9/75/81 
f 8/76/82 54/79/85 17/80/86 
f 17/80/86 55/77/83 8/76/82 
f 54/79/85 60/81/87 18/82/88 
f 18/82/88 17/80/86 54/79/85 
f 60/81/87 61/83/89 19/84/90 
f 19/84/90 18/82/88 60/81/87 
f 61/83/89 49/85/91 31/86/92 
f 31/86/92 19/84/90 61/83/89 
f 49/85/91 51/87/93 59/88/94 
f 59/88/94 31/86/92 49/85/91 
f 51/87/93 53/89/95 59/88/94 
f 53/89/95 62/90/96 58/91/97 
f 62/90/96 9/75/81 57/92/98 
f 53/89/95 58/91/97 59/88/94 
f 62/90/96 57/92/98 58/91/97 
f 9/75/81 56/78/84 57/92/98 
f 45/93/99 27/94/100 4/95/101 
f 4/95/101 52/96/102 45/93/99 
f 32/97/103 50/98/103 63/99/104 
f 63/99/104 20/100/105 32/97/103 
f 20/100/105 63/99/104 12/101/106 
f 12/101/106 14/102/107 20/100/105 
f 14/102/107 12/101/106 1/103/108 
f 1/103/108 26/104/109 14/102/107 
f 27/94/100 26/104/109 1/103/108 
f 1/103/108 4/95/101 27/94/100 
f 45/93/99 52/96/102 50/98/103 
f 32/97/103 45/93/99 50/98/103 
s 8
f 30/105/110 41/106/111 64/107/112 
f 64/107/112 65/108/113 30/105/110 
f 21/109/114 29/110/115 5/111/116 
f 5/111/116 13/112/117 21/109/114 
f 21/109/114 13/112/117 48/113/118 
f 48/113/118 22/114/119 21/109/114 
f 30/105/110 65/108/113 6/115/120 
f 6/115/120 5/111/116 30/105/110 
f 29/110/115 30/105/110 5/111/116 
f 41/106/111 40/116/121 37/117/122 
f 37/117/122 36/118/123 41/106/111 
f 64/107/112 41/106/111 36/118/123 
s 2
f 52/65/70 66/119/124 62/120/125 
f 62/120/125 53/66/71 52/65/70 
f 10/12/10 9/11/9 62/120/125 
f 62/120/125 66/119/124 10/12/10 
f 49/63/67 61/121/126 63/20/127 
f 49/63/67 63/20/127 50/30/68 
f 11/13/11 12/14/12 60/122/128 
f 60/122/128 54/67/72 11/13/11 
f 63/20/127 61/121/126 60/122/128 
f 60/122/128 12/14/12 63/20/127 
f 44/55/59 33/49/53 39/51/55 
f 33/49/53 24/52/56 38/50/54 
s 1
f 47/123/129 66/124/130 36/34/38 
f 35/33/37 47/123/129 36/34/38 
f 39/37/41 10/32/40 66/124/130 
f 66/124/130 47/123/129 39/37/41 
f 38/36/39 46/125/131 7/23/132 
f 38/36/39 7/23/132 10/32/40 
f 46/125/131 48/126/133 13/15/13 
f 13/15/13 11/16/14 46/125/131 
f 46/125/131 11/16/14 7/23/132 
# 130 faces

