# 3ds Max Wavefront OBJ Exporter v0.97b - (c)2007 guruware
# File Created: 26.06.2015 14:37:44

mtllib junk_12.mtl

#
# object junk_12
#

v  36.6044 32.7705 30.2386
v  34.3978 32.7705 17.7245
v  12.2985 32.7705 19.9321
v  16.0497 32.7705 30.2386
v  28.0443 32.7705 6.7198
v  18.3101 32.7705 -1.4481
v  2.8001 32.7705 14.4482
v  6.3694 32.7705 -5.7942
v  -6.3376 32.7705 -5.7942
v  -8.0010 32.7705 16.3528
v  -18.2784 32.7705 -1.4481
v  -28.0126 32.7705 6.7198
v  -15.0510 32.7705 24.7545
v  -34.3661 32.7705 17.7245
v  -36.5726 32.7705 30.2386
v  -15.0510 32.7705 35.7225
v  -34.3661 32.7705 42.7524
v  -28.0126 32.7705 53.7571
v  -8.0010 32.7705 44.1241
v  -18.2784 32.7705 61.9250
v  -6.3376 32.7705 66.2711
v  2.8001 32.7705 46.0287
v  6.3694 32.7705 66.2711
v  18.3101 32.7705 61.9250
v  12.2985 32.7705 40.5448
v  28.0443 32.7705 53.7571
v  34.3978 32.7705 42.7524
v  12.2985 40.3345 19.9321
v  16.0497 40.3345 30.2386
v  2.8001 40.3345 14.4482
v  -8.0010 40.3345 16.3528
v  -15.0510 40.3345 24.7545
v  -15.0510 40.3345 35.7225
v  -8.0010 40.3345 44.1241
v  2.8001 40.3345 46.0287
v  12.2985 40.3345 40.5448
v  40.1418 27.8569 30.2386
v  37.7219 27.8569 16.5146
v  30.7541 27.8569 4.4460
v  20.0788 27.8569 -4.5116
v  6.9836 27.8569 -9.2778
v  -6.9519 27.8569 -9.2778
v  -20.0471 27.8569 -4.5116
v  -30.7224 27.8569 4.4460
v  -37.6901 27.8569 16.5146
v  -40.1100 27.8569 30.2384
v  -37.6901 27.8569 43.9623
v  -30.7224 27.8569 56.0309
v  -20.0471 27.8569 64.9885
v  -6.9519 27.8569 69.7548
v  6.9836 27.8569 69.7548
v  20.0788 27.8569 64.9885
v  30.7541 27.8569 56.0309
v  37.7219 27.8569 43.9624
v  19.0064 27.5860 79.0223
v  -18.9749 27.5860 79.0223
v  -18.9749 -13.9796 79.0421
v  19.0064 -13.9796 79.0421
v  41.9325 -15.3875 -3.3209
v  41.9325 -14.0043 56.1161
v  -41.9010 -14.0044 56.1161
v  -41.9010 -15.3875 -3.3209
v  41.9325 27.5810 56.0961
v  -41.9010 27.5810 56.0961
v  41.9819 -10.7719 -37.1993
v  42.0670 27.6964 -53.2098
v  41.9326 -35.3603 -58.9276
v  -41.9009 -40.3345 -72.7765
v  -41.9485 -10.9599 -35.8192
v  -42.0673 27.7237 -79.0421
# 70 vertices

vn 0.4942 0.8694 0.0000
vn 0.4644 0.8693 -0.1690
vn 0.0000 1.0000 -0.0000
vn 0.3786 0.8693 -0.3177
vn 0.2471 0.8693 -0.4280
vn 0.0858 0.8693 -0.4867
vn -0.0858 0.8693 -0.4867
vn -0.2471 0.8693 -0.4280
vn -0.3786 0.8693 -0.3177
vn -0.4644 0.8693 -0.1690
vn -0.4942 0.8694 0.0000
vn -0.4644 0.8693 0.1690
vn -0.3786 0.8693 0.3177
vn -0.2471 0.8694 0.4280
vn -0.0858 0.8693 0.4867
vn 0.0858 0.8693 0.4867
vn 0.2471 0.8693 0.4280
vn 0.3786 0.8694 0.3177
vn 0.4644 0.8693 0.1690
vn 1.0000 0.0000 0.0000
vn 0.7660 0.0000 -0.6428
vn 0.5901 0.6376 -0.4952
vn 0.7704 0.6376 0.0000
vn 0.1736 0.0000 -0.9848
vn 0.1338 0.6376 -0.7587
vn -0.5000 0.0000 -0.8660
vn -0.3852 0.6376 -0.6671
vn -0.9397 0.0000 -0.3420
vn -0.7239 0.6376 -0.2635
vn -0.9397 0.0000 0.3420
vn -0.7239 0.6376 0.2635
vn -0.5000 0.0000 0.8660
vn -0.3852 0.6376 0.6671
vn 0.1736 0.0000 0.9848
vn 0.1338 0.6376 0.7587
vn 0.7660 0.0000 0.6428
vn 0.5901 0.6376 0.4952
vn 0.8116 0.5843 0.0000
vn 0.7626 0.5843 -0.2776
vn 0.6217 0.5843 -0.5217
vn 0.4058 0.5843 -0.7028
vn 0.1409 0.5843 -0.7992
vn -0.1409 0.5843 -0.7992
vn -0.4058 0.5843 -0.7028
vn -0.6217 0.5843 -0.5217
vn -0.7626 0.5843 -0.2776
vn -0.8116 0.5843 -0.0000
vn -0.7626 0.5843 0.2776
vn -0.6217 0.5843 0.5217
vn -0.4058 0.5843 0.7028
vn -0.1409 0.5843 0.7992
vn 0.1409 0.5843 0.7992
vn 0.4058 0.5843 0.7028
vn 0.6217 0.5843 0.5217
vn 0.7626 0.5843 0.2776
vn 0.3827 0.0004 0.9239
vn -0.3827 0.0004 0.9239
vn 0.0000 -0.9831 0.1830
vn 0.0000 -0.9999 0.0159
vn 0.7071 0.0003 0.7071
vn -0.7071 0.0003 0.7071
vn 0.0000 1.0000 -0.0002
vn 0.0000 1.0000 0.0006
vn 0.0000 -1.0000 0.0011
vn 1.0000 -0.0007 0.0005
vn 1.0000 0.0000 -0.0000
vn 1.0000 -0.0016 0.0010
vn 1.0000 -0.0023 0.0011
vn 1.0000 -0.0017 0.0012
vn 1.0000 -0.0029 0.0011
vn -0.0000 -0.9411 0.3380
vn -1.0000 -0.0030 0.0011
vn -1.0000 -0.0016 0.0010
vn -1.0000 -0.0023 0.0011
vn -1.0000 0.0000 -0.0000
vn -1.0000 -0.0007 0.0005
vn -1.0000 -0.0017 0.0012
vn 0.0000 1.0000 0.0011
vn 0.1452 0.1094 -0.9833
vn 0.0779 -0.6508 -0.7552
vn 0.2725 -0.3702 -0.8881
vn -0.0165 0.0289 -0.9994
vn 0.0842 0.6597 -0.7468
vn 0.0116 0.7555 -0.6550
# 84 vertex normals

vt 0.5429 0.3266 0.0000
vt 0.5373 0.3296 0.0000
vt 0.5313 0.3200 0.0000
vt 0.5364 0.3184 0.0000
vt 0.5310 0.3305 0.0000
vt 0.5247 0.3291 0.0000
vt 0.5262 0.3179 0.0000
vt 0.5193 0.3258 0.0000
vt 0.5153 0.3207 0.0000
vt 0.5237 0.3131 0.0000
vt 0.5134 0.3146 0.0000
vt 0.5136 0.3083 0.0000
vt 0.5248 0.3078 0.0000
vt 0.5159 0.3023 0.0000
vt 0.5202 0.2975 0.0000
vt 0.5291 0.3045 0.0000
vt 0.5258 0.2945 0.0000
vt 0.5322 0.2936 0.0000
vt 0.5346 0.3047 0.0000
vt 0.5384 0.2950 0.0000
vt 0.5439 0.2984 0.0000
vt 0.5386 0.3084 0.0000
vt 0.5478 0.3034 0.0000
vt 0.5498 0.3095 0.0000
vt 0.5393 0.3138 0.0000
vt 0.5496 0.3159 0.0000
vt 0.5472 0.3218 0.0000
vt 0.3858 0.3241 0.0000
vt 0.3913 0.3241 0.0000
vt 0.3913 0.3279 0.0000
vt 0.3858 0.3279 0.0000
vt 0.3969 0.3241 0.0000
vt 0.3969 0.3279 0.0000
vt 0.3470 0.3241 0.0000
vt 0.3525 0.3241 0.0000
vt 0.3525 0.3279 0.0000
vt 0.3470 0.3279 0.0000
vt 0.3581 0.3241 0.0000
vt 0.3581 0.3279 0.0000
vt 0.3636 0.3241 0.0000
vt 0.3636 0.3279 0.0000
vt 0.3692 0.3241 0.0000
vt 0.3692 0.3279 0.0000
vt 0.3747 0.3241 0.0000
vt 0.3747 0.3279 0.0000
vt 0.3803 0.3241 0.0000
vt 0.3803 0.3279 0.0000
vt 0.5448 0.3290 0.0000
vt 0.5383 0.3325 0.0000
vt 0.5309 0.3335 0.0000
vt 0.5236 0.3320 0.0000
vt 0.5172 0.3280 0.0000
vt 0.5126 0.3222 0.0000
vt 0.5103 0.3151 0.0000
vt 0.5106 0.3076 0.0000
vt 0.5133 0.3007 0.0000
vt 0.5183 0.2951 0.0000
vt 0.5249 0.2916 0.0000
vt 0.5323 0.2906 0.0000
vt 0.5396 0.2921 0.0000
vt 0.5459 0.2961 0.0000
vt 0.5505 0.3020 0.0000
vt 0.5528 0.3090 0.0000
vt 0.5526 0.3165 0.0000
vt 0.5498 0.3234 0.0000
vt 0.7168 0.3470 0.0000
vt 0.7168 0.3664 0.0000
vt 0.6956 0.3664 0.0000
vt 0.6956 0.3470 0.0000
vt 0.6499 0.3364 0.0000
vt 0.6802 0.3364 0.0000
vt 0.6802 0.3792 0.0000
vt 0.6499 0.3792 0.0000
vt 0.6956 0.3304 0.0000
vt 0.7168 0.3304 0.0000
vt 0.7168 0.3829 0.0000
vt 0.6956 0.3829 0.0000
vt 0.6361 0.5092 0.0000
vt 0.6361 0.4898 0.0000
vt 0.6478 0.4781 0.0000
vt 0.6478 0.5209 0.0000
vt 0.6919 0.3481 0.0000
vt 0.6919 0.3675 0.0000
vt 0.7259 0.4150 0.0000
vt 0.7260 0.3938 0.0000
vt 0.7564 0.3932 0.0000
vt 0.7737 0.3957 0.0000
vt 0.7817 0.4153 0.0000
vt 0.7848 0.3831 0.0000
vt 0.6197 0.3364 0.0000
vt 0.6122 0.3792 0.0000
vt 0.7919 0.3806 0.0000
vt 0.7730 0.3956 0.0000
vt 0.7949 0.4154 0.0000
vt 0.7036 0.4781 0.0000
vt 0.7168 0.5210 0.0000
vt 0.7143 0.5841 0.0000
vt 0.6846 0.6039 0.0000
vt 0.7151 0.5987 0.0000
vt 0.6848 0.5835 0.0000
vt 0.7148 0.5726 0.0000
vt 0.6854 0.5669 0.0000
# 102 texture coords

g junk_12
usemtl 07___Default
s 1
f 1/1/1 2/2/2 3/3/3 
f 3/3/3 4/4/3 1/1/1 
f 2/2/2 5/5/4 3/3/3 
f 5/5/4 6/6/5 7/7/3 
f 7/7/3 3/3/3 5/5/4 
f 6/6/5 8/8/6 7/7/3 
f 8/8/6 9/9/7 10/10/3 
f 10/10/3 7/7/3 8/8/6 
f 9/9/7 11/11/8 10/10/3 
f 11/11/8 12/12/9 13/13/3 
f 13/13/3 10/10/3 11/11/8 
f 12/12/9 14/14/10 13/13/3 
f 14/14/10 15/15/11 16/16/3 
f 16/16/3 13/13/3 14/14/10 
f 15/15/11 17/17/12 16/16/3 
f 17/17/12 18/18/13 19/19/3 
f 19/19/3 16/16/3 17/17/12 
f 18/18/13 20/20/14 19/19/3 
f 20/20/14 21/21/15 22/22/3 
f 22/22/3 19/19/3 20/20/14 
f 21/21/15 23/23/16 22/22/3 
f 23/23/16 24/24/17 25/25/3 
f 25/25/3 22/22/3 23/23/16 
f 24/24/17 26/26/18 25/25/3 
f 27/27/19 4/4/3 25/25/3 
f 25/25/3 26/26/18 27/27/19 
f 27/27/19 1/1/1 4/4/3 
s 2
f 4/28/20 3/29/21 28/30/22 
f 28/30/22 29/31/23 4/28/20 
f 3/29/21 7/32/24 30/33/25 
f 30/33/25 28/30/22 3/29/21 
f 7/34/24 10/35/26 31/36/27 
f 31/36/27 30/37/25 7/34/24 
f 10/35/26 13/38/28 32/39/29 
f 32/39/29 31/36/27 10/35/26 
f 13/38/28 16/40/30 33/41/31 
f 33/41/31 32/39/29 13/38/28 
f 16/40/30 19/42/32 34/43/33 
f 34/43/33 33/41/31 16/40/30 
f 19/42/32 22/44/34 35/45/35 
f 35/45/35 34/43/33 19/42/32 
f 22/44/34 25/46/36 36/47/37 
f 36/47/37 35/45/35 22/44/34 
f 25/46/36 4/28/20 29/31/23 
f 29/31/23 36/47/37 25/46/36 
s 1
f 1/1/1 37/48/38 38/49/39 
f 38/49/39 2/2/2 1/1/1 
f 2/2/2 38/49/39 39/50/40 
f 39/50/40 5/5/4 2/2/2 
f 5/5/4 39/50/40 40/51/41 
f 40/51/41 6/6/5 5/5/4 
f 6/6/5 40/51/41 41/52/42 
f 41/52/42 8/8/6 6/6/5 
f 8/8/6 41/52/42 42/53/43 
f 42/53/43 9/9/7 8/8/6 
f 9/9/7 42/53/43 43/54/44 
f 43/54/44 11/11/8 9/9/7 
f 11/11/8 43/54/44 44/55/45 
f 44/55/45 12/12/9 11/11/8 
f 12/12/9 44/55/45 45/56/46 
f 45/56/46 14/14/10 12/12/9 
f 14/14/10 45/56/46 46/57/47 
f 46/57/47 15/15/11 14/14/10 
f 15/15/11 46/57/47 47/58/48 
f 47/58/48 17/17/12 15/15/11 
f 17/17/12 47/58/48 48/59/49 
f 48/59/49 18/18/13 17/17/12 
f 18/18/13 48/59/49 49/60/50 
f 49/60/50 20/20/14 18/18/13 
f 20/20/14 49/60/50 50/61/51 
f 50/61/51 21/21/15 20/20/14 
f 21/21/15 50/61/51 51/62/52 
f 51/62/52 23/23/16 21/21/15 
f 23/23/16 51/62/52 52/63/53 
f 52/63/53 24/24/17 23/23/16 
f 24/24/17 52/63/53 53/64/54 
f 53/64/54 26/26/18 24/24/17 
f 26/26/18 53/64/54 54/65/55 
f 54/65/55 27/27/19 26/26/18 
f 27/27/19 54/65/55 37/48/38 
f 37/48/38 1/1/1 27/27/19 
s 4
f 55/66/56 56/67/57 57/68/57 
f 57/68/57 58/69/56 55/66/56 
s 2
f 59/70/58 60/71/59 61/72/59 
f 61/72/59 62/73/58 59/70/58 
s 4
f 58/69/56 60/74/60 63/75/60 
f 63/75/60 55/66/56 58/69/56 
f 56/67/57 64/76/61 61/77/61 
f 61/77/61 57/68/57 56/67/57 
s 2
f 56/78/62 55/79/62 63/80/63 
f 63/80/63 64/81/63 56/78/62 
f 58/82/64 57/83/64 61/72/59 
f 61/72/59 60/71/59 58/82/64 
f 31/36/27 32/39/29 33/41/31 
f 33/41/31 34/43/33 35/45/35 
f 35/45/35 36/47/37 29/31/23 
f 33/41/31 35/45/35 29/31/23 
f 31/36/27 33/41/31 29/31/23 
f 31/36/27 29/31/23 28/30/22 
f 30/33/25 31/36/27 28/30/22 
s 1
f 63/84/65 60/85/66 59/86/67 
f 63/84/65 59/86/67 65/87/68 
f 66/88/69 63/84/65 65/87/68 
f 65/87/68 59/86/67 67/89/70 
s 2
f 67/90/71 59/70/58 62/73/58 
f 62/73/58 68/91/71 67/90/71 
s 1
f 68/92/72 62/86/73 69/93/74 
f 62/86/73 61/85/75 64/84/76 
f 62/86/73 64/84/76 70/94/77 
f 69/93/74 62/86/73 70/94/77 
s 2
f 64/81/63 63/80/63 66/95/78 
f 66/95/78 70/96/78 64/81/63 
s 4
f 65/97/79 70/98/80 66/99/81 
f 65/97/79 69/100/82 70/98/80 
f 65/97/79 67/101/83 68/102/84 
f 65/97/79 68/102/84 69/100/82 
# 116 faces

