# 3ds Max Wavefront OBJ Exporter v0.97b - (c)2007 guruware
# File Created: 26.06.2015 14:38:41

mtllib junk_5.mtl

#
# object junk_5
#

v  11.8039 -25.6568 -61.3058
v  15.6915 -23.3761 -61.9921
v  56.1913 2.9720 33.8000
v  -6.5745 -33.5202 57.9447
v  9.2921 -25.0056 -61.8889
v  -55.2240 -25.9251 63.0957
v  16.1284 -20.9951 -63.0956
v  62.1185 33.3069 12.8345
v  -62.1183 -16.6920 60.5126
v  53.1807 33.5202 2.0477
# 10 vertices

vn 0.1663 -0.8772 -0.4504
vn 0.5513 -0.6517 -0.5210
vn 0.7379 -0.6624 -0.1298
vn 0.0932 -0.9943 -0.0522
vn -0.1508 -0.9018 -0.4049
vn -0.5247 -0.8050 -0.2768
vn 0.7250 -0.3777 -0.5759
vn 0.8960 -0.2077 -0.3925
vn -0.6949 -0.6205 -0.3633
vn 0.7519 0.2281 -0.6185
vn -0.5188 0.7774 -0.3555
vn -0.6567 0.5114 0.5543
vn -0.3359 0.6229 0.7065
vn -0.2125 0.6940 0.6879
vn 0.1444 0.5446 0.8262
vn 0.1774 0.4522 0.8741
vn 0.1550 0.3718 0.9153
# 17 vertex normals

vt 0.0037 0.3968 0.0000
vt 0.0037 0.3943 0.0000
vt 0.0551 0.3768 0.0000
vt 0.0621 0.4151 0.0000
vt 0.0033 0.3980 0.0000
vt 0.0621 0.4405 0.0000
vt 0.0033 0.3931 0.0000
vt 0.0459 0.3606 0.0000
vt 0.0595 0.4458 0.0000
vt 0.0390 0.3612 0.0000
vt 0.5675 0.6746 0.0000
vt 0.5484 0.6240 0.0000
vt 0.5512 0.6203 0.0000
vt 0.6337 0.6280 0.0000
vt 0.7414 0.5362 0.0000
vt 0.7432 0.5408 0.0000
vt 0.7513 0.5275 0.0000
vt 0.7781 0.5280 0.0000
vt 0.7919 0.5431 0.0000
vt 0.7917 0.5390 0.0000
# 20 texture coords

g junk_5
usemtl 07___Default
s 1
f 1/1/1 2/2/2 3/3/3 
f 3/3/3 4/4/4 1/1/1 
f 5/5/5 1/1/1 4/4/4 
f 4/4/4 6/6/6 5/5/5 
f 2/2/2 7/7/7 8/8/8 
f 8/8/8 3/3/3 2/2/2 
f 2/2/2 1/1/1 5/5/5 
f 5/5/5 7/7/7 2/2/2 
f 5/5/5 6/6/6 9/9/9 
f 8/8/8 7/7/7 10/10/10 
s 2
f 10/11/11 7/12/11 5/13/11 
f 5/13/11 9/14/11 10/11/11 
s 4
f 8/15/12 10/16/13 3/17/14 
f 10/16/13 4/18/15 3/17/14 
f 9/19/16 6/20/17 4/18/15 
f 4/18/15 10/16/13 9/19/16 
# 16 faces

