# 3ds Max Wavefront OBJ Exporter v0.97b - (c)2007 guruware
# File Created: 26.06.2015 14:38:18

mtllib junk_1.mtl

#
# object junk_1
#

v  117.8680 -201.5480 7.6168
v  -65.3991 -201.5480 -64.9527
v  -66.4861 -201.5480 -14.1307
v  79.3538 -201.5480 54.2189
v  72.5379 -201.5480 97.2410
v  -117.8683 -201.5480 27.9385
v  -117.8683 -217.5432 27.9385
v  72.5379 -217.5432 97.2410
v  -66.4861 -217.5432 -14.1307
v  -65.3991 -217.5432 -64.9527
v  40.4138 -201.5480 -97.2410
v  40.4138 -217.5432 -97.2410
v  54.4163 -201.5480 -72.3864
v  54.4163 -217.5432 -72.3864
v  87.2195 -201.5480 -66.3893
v  87.2195 -217.5432 -66.3893
v  117.8680 -217.5432 7.6168
v  79.3538 -217.5432 54.2189
# 18 vertices

vn 0.7856 0.6074 0.1179
vn -0.6403 0.5959 -0.4847
vn -0.5217 0.8144 -0.2540
vn 0.5799 0.7715 0.2617
vn 0.4177 0.5679 0.7092
vn -0.8205 0.5543 0.1396
vn -0.9858 0.0000 0.1677
vn 0.5075 0.0000 0.8616
vn -0.8991 0.0000 -0.4377
vn -0.7973 0.0000 -0.6036
vn 0.3002 0.5896 -0.7498
vn 0.3717 0.0000 -0.9284
vn 0.3354 0.8162 -0.4705
vn 0.5805 0.0000 -0.8143
vn 0.4962 0.6136 -0.6142
vn 0.6284 0.0000 -0.7779
vn 0.9889 0.0000 0.1485
vn 0.9115 0.0000 0.4113
# 18 vertex normals

vt 0.4729 0.7214 0.0000
vt 0.4449 0.6380 0.0000
vt 0.4676 0.6387 0.0000
vt 0.4946 0.7054 0.0000
vt 0.5140 0.7033 0.0000
vt 0.4876 0.6168 0.0000
vt 0.4280 0.6844 0.0000
vt 0.4388 0.6912 0.0000
vt 0.4407 0.7060 0.0000
# 9 texture coords

g junk_1
usemtl 07___Default
s 1
f 1/1/1 2/2/2 3/3/3 
f 3/3/3 4/4/4 1/1/1 
f 5/5/5 6/6/6 7/6/7 
f 7/6/7 8/5/8 5/5/5 
f 6/6/6 3/3/3 9/3/9 
f 9/3/9 7/6/7 6/6/6 
f 2/2/2 10/2/10 9/3/9 
f 9/3/9 3/3/3 2/2/2 
f 2/2/2 11/7/11 12/7/12 
f 12/7/12 10/2/10 2/2/2 
f 11/7/11 13/8/13 14/8/14 
f 14/8/14 12/7/12 11/7/11 
f 13/8/13 15/9/15 16/9/16 
f 16/9/16 14/8/14 13/8/13 
f 1/1/1 17/1/17 16/9/16 
f 16/9/16 15/9/15 1/1/1 
f 1/1/1 4/4/4 18/4/18 
f 18/4/18 17/1/17 1/1/1 
f 4/4/4 5/5/5 8/5/8 
f 8/5/8 18/4/18 4/4/4 
f 1/1/1 13/8/13 2/2/2 
f 3/3/3 6/6/6 5/5/5 
f 5/5/5 4/4/4 3/3/3 
f 13/8/13 11/7/11 2/2/2 
f 1/1/1 15/9/15 13/8/13 
# 25 faces

