# 3ds Max Wavefront OBJ Exporter v0.97b - (c)2007 guruware
# File Created: 26.06.2015 14:35:33

mtllib reactor_crash.mtl

#
# object reactor_crash
#

v  -42.3244 -124.7160 -243.0540
v  -42.3245 -70.2281 -190.4912
v  -43.0352 -12.8459 -320.2371
v  -43.0482 -37.1100 -347.0157
v  41.5085 -124.7160 -243.0540
v  41.5085 -70.2281 -190.4912
v  41.8233 -53.7170 -256.5306
v  41.9398 -35.4072 -269.2241
v  41.7620 -67.4428 -253.8305
v  41.8692 -81.0503 -294.8719
v  -43.6760 -285.4017 -429.5346
v  -42.3243 -285.4017 -291.6924
v  -42.3243 -233.6921 -285.6299
v  -42.3244 -179.2041 -264.5771
v  -43.3452 48.7133 -405.6064
v  -43.1930 65.7808 -390.0373
v  -43.6774 66.4330 -435.0513
v  -43.6760 38.8793 -437.1919
v  -42.3247 -15.3908 -137.9602
v  -42.6599 42.7562 -292.7044
v  -43.0339 13.0939 -295.0175
v  41.5083 -285.4017 -291.6924
v  41.5084 -233.6921 -285.6298
v  41.5084 -179.2041 -264.5771
v  41.5088 -15.3908 -137.9602
v  42.8600 -285.4017 -429.5346
v  42.8600 38.8793 -437.1919
v  42.8615 66.4330 -435.0513
v  41.9736 65.2374 -352.5330
v  -40.8845 66.4424 -437.8428
v  40.0685 66.4424 -437.8427
v  -28.0686 237.7144 -382.7027
v  -29.4360 283.6706 -440.8235
v  -39.7814 100.4815 -358.6979
v  28.6201 283.6706 -440.8234
v  27.2526 237.7144 -382.7026
v  -26.6435 285.4020 -443.0132
v  25.8275 285.4020 -443.0131
v  -42.3248 -3.0769 -103.6768
v  41.5087 1.8973 -89.8280
v  -42.3723 26.2977 -66.7195
v  -42.6928 56.2100 -286.2726
v  -42.4911 64.9813 -109.9423
v  -42.7027 65.1630 -281.9996
v  4.7042 85.1042 -356.0081
v  12.1151 65.2374 -352.5330
v  -43.5034 31.9483 -398.9759
v  -43.4422 20.0117 -394.5308
v  -43.3144 -4.8814 -385.2612
v  -43.4256 -49.3614 -399.8568
v  -35.0460 17.9181 -319.3448
v  -39.0829 -24.6862 -359.7609
v  -22.1957 58.7817 -374.5508
v  -26.0827 45.2266 -328.5693
v  -31.8398 4.5545 -363.2978
v  -41.5978 61.1566 -294.1708
v  -25.2456 44.1832 -380.7954
v  -15.8886 69.5458 -339.7183
v  -19.0712 65.1780 -296.2410
v  41.6432 64.9540 -84.1102
v  41.5581 26.4858 -68.0996
v  41.7100 40.6503 -172.0659
v  41.7193 48.7111 -168.5358
v  41.7650 65.0585 -183.0788
v  41.8145 42.3382 -266.0707
v  41.7493 26.3411 -249.0197
v  41.8614 65.1412 -261.3828
v  28.2586 65.0588 -183.3035
v  12.9785 65.0992 -221.4284
v  25.3315 65.1307 -251.3848
v  27.3542 57.3276 -192.3567
v  15.8889 57.3579 -220.9635
v  37.4886 57.3274 -192.1881
v  37.4544 45.0612 -181.2758
v  37.4474 39.0128 -183.9246
v  41.6645 22.3200 -180.0753
v  37.4132 25.2587 -189.9344
v  41.8164 12.7483 -234.5169
v  37.5272 18.0766 -230.7844
v  37.4769 28.2760 -241.6665
v  37.5258 40.2793 -254.4606
v  37.5610 57.3894 -250.9431
v  25.1579 57.3815 -243.4411
v  42.2197 -72.4649 -344.4189
v  42.4767 -40.3981 -381.3517
v  42.4463 -11.1959 -377.7679
v  42.4540 22.5730 -347.2826
v  42.1408 28.6105 -311.4661
v  42.1107 8.7851 -271.2597
v  42.0150 -8.2123 -262.6750
v  41.9916 -20.8364 -268.7096
v  25.6526 -64.6703 -342.3429
v  39.1634 -69.9540 -311.8501
v  25.9095 -44.9354 -365.0724
v  25.8792 -26.9634 -362.8669
v  2.4884 -6.1810 -344.1053
v  25.5737 -2.4653 -322.0627
v  10.5143 -14.6665 -297.3184
v  25.4479 -25.1273 -292.0351
v  25.4245 -32.8965 -295.7490
v  25.3727 -41.8639 -296.0656
v  25.2561 -53.1323 -288.2536
v  25.1949 -61.5795 -286.5919
# 103 vertices

vn -1.0000 -0.0028 0.0046
vn -1.0000 -0.0037 0.0038
vn -1.0000 -0.0021 0.0058
vn -0.0000 -0.5412 0.8409
vn -0.0000 -0.6930 0.7209
vn 1.0000 -0.0037 0.0038
vn 1.0000 -0.0022 0.0061
vn 1.0000 -0.0009 0.0062
vn -1.0000 -0.0008 0.0088
vn -1.0000 -0.0012 0.0098
vn -0.9999 -0.0032 0.0105
vn -1.0000 -0.0015 0.0078
vn -0.9999 0.0041 0.0092
vn -0.9979 0.0634 0.0117
vn -0.9730 0.0394 -0.2274
vn -1.0000 0.0010 0.0079
vn -1.0000 -0.0024 0.0021
vn -1.0000 0.0040 0.0037
vn -1.0000 0.0032 0.0051
vn -0.0000 -0.1164 0.9932
vn -0.0000 -0.2403 0.9707
vn -0.0000 -0.3639 0.9314
vn -0.0000 -0.8387 0.5445
vn 0.9999 -0.0032 0.0105
vn 1.0000 -0.0012 0.0098
vn 1.0000 -0.0011 0.0086
vn 0.9999 -0.0043 0.0110
vn 1.0000 0.0010 0.0079
vn 0.9729 0.0399 -0.2277
vn 0.9994 0.0329 0.0082
vn 0.0000 -0.0236 -0.9997
vn -0.0321 -0.0203 -0.9993
vn 0.0321 -0.0203 -0.9993
vn -0.2403 0.0014 -0.9707
vn 0.2403 0.0014 -0.9707
vn -0.9954 0.0711 0.0640
vn -0.8125 0.0393 -0.5816
vn -0.9961 0.0871 0.0120
vn 0.8117 0.0377 -0.5828
vn 0.9954 0.0711 0.0640
vn -0.0000 -0.9411 0.3380
vn -1.0000 -0.0029 0.0011
vn -1.0000 -0.0024 0.0011
vn -1.0000 -0.0017 0.0012
vn -0.0000 0.7844 0.6202
vn -0.7060 0.0548 -0.7061
vn 0.7060 0.0548 -0.7061
vn -0.6254 0.0223 -0.7800
vn -0.7060 0.0275 -0.7077
vn 0.6261 0.0204 -0.7795
vn 0.7067 0.0293 -0.7069
vn -0.0000 0.1723 0.9850
vn -0.0000 0.7797 0.6262
vn 0.0000 0.7856 0.6187
vn -1.0000 0.0014 0.0048
vn -1.0000 -0.0006 0.0064
vn -1.0000 -0.0000 0.0073
vn -0.9480 0.1952 -0.2514
vn -0.9830 0.1839 0.0007
vn -0.9525 0.2387 -0.1891
vn -0.9497 0.1251 -0.2870
vn -0.9433 0.1211 0.3090
vn -0.9957 0.0547 0.0742
vn -0.6920 -0.0536 0.7199
vn -0.1724 0.3257 0.9296
vn -0.3774 -0.4325 0.8189
vn -0.9405 0.2098 -0.2673
vn -0.9625 0.2340 0.1375
vn -0.8315 0.5008 -0.2403
vn -0.9137 0.0440 0.4039
vn -0.4861 0.8707 0.0752
vn -0.9740 0.1978 -0.1102
vn -0.9012 0.1472 0.4076
vn -0.8124 -0.0971 0.5749
vn -0.7964 0.2706 0.5409
vn -0.8923 0.1734 -0.4167
vn -0.4790 0.3777 -0.7924
vn -0.7042 0.6308 -0.3259
vn -0.7571 -0.4123 0.5068
vn -0.1139 0.9933 0.0175
vn 0.4029 0.6223 0.6712
vn 1.0000 -0.0017 0.0012
vn 1.0000 -0.0023 0.0011
vn 1.0000 -0.0024 0.0011
vn 1.0000 -0.0027 0.0011
vn 0.9999 0.0102 0.0060
vn 1.0000 -0.0023 0.0012
vn -0.0000 1.0000 0.0011
vn 0.0000 1.0000 0.0011
vn 0.9356 0.3527 0.0161
vn 0.3207 0.7042 -0.6334
vn 0.6329 0.5564 -0.5384
vn 0.9362 0.3514 -0.0092
vn 0.7545 0.2813 -0.5930
vn 0.5979 0.4505 -0.6630
vn 0.9516 -0.0581 -0.3019
vn 0.9502 -0.0263 -0.3106
vn 0.9231 0.1530 -0.3529
vn 0.9232 0.1524 -0.3529
vn 0.9055 0.2988 -0.3014
vn 0.8379 0.5033 -0.2113
vn 0.8256 0.5309 0.1909
vn 0.8086 0.5794 0.1022
vn 0.8335 0.4026 0.3784
vn 0.8330 0.4043 0.3776
vn 0.9313 0.0726 0.3569
vn 0.9011 0.2224 0.3723
vn 0.8047 0.2675 0.5301
vn 0.7354 0.3628 0.5723
vn 0.5575 0.5881 0.5859
vn 0.7402 0.4732 0.4778
vn 0.8875 0.3670 -0.2786
vn 0.8818 0.4531 0.1306
vn 0.9135 0.4057 0.0294
vn 0.7771 -0.0306 -0.6287
vn 0.8529 0.3821 0.3557
vn 0.7549 0.0297 -0.6552
vn 0.8301 0.2219 -0.5116
vn 0.0124 -0.6646 -0.7471
vn 0.8120 0.2462 0.5292
vn 0.5097 -0.1743 0.8425
vn 0.8164 0.2509 0.5201
vn 1.0000 0.0002 0.0071
vn 1.0000 -0.0015 0.0057
vn 1.0000 0.0079 0.0059
vn 0.9999 0.0121 0.0067
vn 0.9999 0.0106 0.0063
vn 1.0000 -0.0029 0.0011
vn 1.0000 -0.0025 0.0022
vn 1.0000 -0.0018 0.0021
vn 0.9999 0.0082 0.0060
vn 0.4961 0.8172 0.2934
vn 0.7986 0.5750 0.1781
vn 0.8737 0.4862 -0.0142
vn 0.9814 0.1891 -0.0328
vn 0.6597 0.1948 0.7259
vn 0.7535 0.3699 0.5435
vn 0.6346 -0.2530 0.7303
vn 0.6426 -0.0520 0.7645
vn 0.5615 -0.7394 0.3715
vn 0.9618 -0.2308 0.1471
vn 0.8254 -0.5358 -0.1780
vn 0.8117 -0.3639 -0.4569
vn 0.7916 -0.4724 -0.3875
vn 0.9861 0.1586 0.0486
vn 0.7639 -0.0067 -0.6454
vn 0.8481 0.4029 -0.3440
vn 0.7961 0.1924 -0.5738
vn 0.9022 0.0019 -0.4313
vn 0.8569 -0.1543 -0.4918
vn 0.9650 0.1017 -0.2419
vn 0.8711 -0.1769 -0.4582
vn 0.9557 -0.1368 -0.2606
vn 0.9120 0.2017 -0.3571
vn 0.8987 0.4306 -0.0832
vn -0.2725 0.3702 0.8881
vn -0.0779 0.6508 0.7552
vn -0.1452 -0.1094 0.9833
vn 0.0165 -0.0289 0.9994
vn -0.0116 -0.7555 0.6550
vn -0.0842 -0.6597 0.7468
# 161 vertex normals

vt 0.8632 0.3188 0.0000
vt 0.8363 0.3465 0.0000
vt 0.9024 0.3761 0.0000
vt 0.9161 0.3638 0.0000
vt 0.5162 0.3792 0.0000
vt 0.5162 0.3364 0.0000
vt 0.5548 0.3364 0.0000
vt 0.5548 0.3792 0.0000
vt 0.8700 0.3551 0.0000
vt 0.8764 0.3645 0.0000
vt 0.8686 0.3481 0.0000
vt 0.8896 0.3412 0.0000
vt 0.9587 0.2372 0.0000
vt 0.8884 0.2369 0.0000
vt 0.8852 0.2633 0.0000
vt 0.8743 0.2911 0.0000
vt 0.9459 0.4077 0.0000
vt 0.9379 0.4164 0.0000
vt 0.9609 0.4166 0.0000
vt 0.9620 0.4027 0.0000
vt 0.8094 0.3744 0.0000
vt 0.8883 0.4045 0.0000
vt 0.8895 0.3893 0.0000
vt 0.4298 0.3792 0.0000
vt 0.4298 0.3364 0.0000
vt 0.4564 0.3364 0.0000
vt 0.4564 0.3792 0.0000
vt 0.4863 0.3364 0.0000
vt 0.4863 0.3792 0.0000
vt 0.5936 0.3364 0.0000
vt 0.5936 0.3792 0.0000
vt 0.9188 0.4161 0.0000
vt 0.4564 0.1680 0.0000
vt 0.4812 0.1680 0.0000
vt 0.4812 0.2610 0.0000
vt 0.4564 0.2610 0.0000
vt 0.4804 0.2689 0.0000
vt 0.4572 0.2689 0.0000
vt 0.9346 0.5045 0.0000
vt 0.9645 0.5277 0.0000
vt 0.9220 0.4342 0.0000
vt 0.4763 0.3317 0.0000
vt 0.4613 0.3317 0.0000
vt 0.6122 0.3792 0.0000
vt 0.6197 0.3364 0.0000
vt 0.7919 0.3806 0.0000
vt 0.7730 0.3956 0.0000
vt 0.8850 0.4114 0.0000
vt 0.7949 0.4154 0.0000
vt 0.8828 0.4159 0.0000
vt 0.7829 0.2379 0.0000
vt 0.7815 0.2364 0.0000
vt 0.8112 0.2364 0.0000
vt 0.8097 0.2379 0.0000
vt 0.4816 0.2689 0.0000
vt 0.4561 0.2689 0.0000
vt 0.9663 0.5287 0.0000
vt 0.9629 0.4167 0.0000
vt 0.7822 0.1986 0.0000
vt 0.8105 0.1986 0.0000
vt 0.9301 0.5136 0.0000
vt 0.8589 0.5196 0.0000
vt 0.8510 0.4969 0.0000
vt 0.9301 0.4854 0.0000
vt 0.8407 0.4779 0.0000
vt 0.8407 0.4931 0.0000
vt 0.9425 0.3991 0.0000
vt 0.9403 0.3930 0.0000
vt 0.9356 0.3803 0.0000
vt 0.9431 0.3576 0.0000
vt 0.7920 0.5707 0.0000
vt 0.7767 0.5569 0.0000
vt 0.7910 0.5596 0.0000
vt 0.8006 0.5676 0.0000
vt 0.7676 0.5638 0.0000
vt 0.7624 0.5484 0.0000
vt 0.7721 0.5879 0.0000
vt 0.7795 0.6003 0.0000
vt 0.7652 0.6037 0.0000
vt 0.7891 0.5821 0.0000
vt 0.7763 0.5678 0.0000
vt 0.8033 0.5840 0.0000
vt 0.7705 0.5823 0.0000
vt 0.7856 0.5918 0.0000
vt 0.7810 0.5519 0.0000
vt 0.7643 0.5722 0.0000
vt 0.7597 0.5809 0.0000
vt 0.7624 0.5759 0.0000
vt 0.8029 0.5776 0.0000
vt 0.8059 0.5819 0.0000
vt 0.8078 0.5846 0.0000
vt 0.7617 0.5881 0.0000
vt 0.8009 0.5904 0.0000
vt 0.7842 0.6030 0.0000
vt 0.7817 0.4153 0.0000
vt 0.7737 0.3957 0.0000
vt 0.8267 0.4031 0.0000
vt 0.8249 0.4072 0.0000
vt 0.8323 0.4156 0.0000
vt 0.8747 0.4042 0.0000
vt 0.8660 0.3960 0.0000
vt 0.8722 0.4159 0.0000
vt 0.8119 0.5090 0.0000
vt 0.8047 0.5211 0.0000
vt 0.7168 0.5210 0.0000
vt 0.7036 0.4781 0.0000
vt 0.7542 0.4780 0.0000
vt 0.7543 0.4849 0.0000
vt 0.7737 0.4927 0.0000
vt 0.7890 0.4864 0.0000
vt 0.7941 0.4779 0.0000
vt 0.7163 0.5499 0.0000
vt 0.7019 0.5486 0.0000
vt 0.7052 0.5460 0.0000
vt 0.7160 0.5470 0.0000
vt 0.6987 0.5451 0.0000
vt 0.7027 0.5434 0.0000
vt 0.6954 0.5382 0.0000
vt 0.7003 0.5381 0.0000
vt 0.6973 0.5357 0.0000
vt 0.7017 0.5362 0.0000
vt 0.7013 0.5300 0.0000
vt 0.7047 0.5318 0.0000
vt 0.7205 0.5276 0.0000
vt 0.7192 0.5300 0.0000
vt 0.7262 0.5317 0.0000
vt 0.7235 0.5331 0.0000
vt 0.7329 0.5364 0.0000
vt 0.7285 0.5367 0.0000
vt 0.7334 0.5445 0.0000
vt 0.7288 0.5429 0.0000
vt 0.7274 0.5478 0.0000
vt 0.7244 0.5454 0.0000
vt 0.7064 0.5331 0.0000
vt 0.7191 0.5310 0.0000
vt 0.7163 0.5450 0.0000
vt 0.7069 0.5435 0.0000
vt 0.7228 0.5337 0.0000
vt 0.7031 0.5389 0.0000
vt 0.7041 0.5371 0.0000
vt 0.7038 0.5439 0.0000
vt 0.7272 0.5370 0.0000
vt 0.7281 0.5424 0.0000
vt 0.7237 0.5436 0.0000
vt 0.9149 0.3457 0.0000
vt 0.9337 0.3621 0.0000
vt 0.9318 0.3770 0.0000
vt 0.9162 0.3942 0.0000
vt 0.8979 0.3973 0.0000
vt 0.8586 0.3890 0.0000
vt 0.7848 0.3831 0.0000
vt 0.8308 0.3938 0.0000
vt 0.8774 0.3870 0.0000
vt 0.8730 0.3783 0.0000
vt 0.8761 0.3719 0.0000
vt 0.6359 0.9543 0.0000
vt 0.6342 0.9601 0.0000
vt 0.6236 0.9562 0.0000
vt 0.6177 0.9526 0.0000
vt 0.6502 0.9658 0.0000
vt 0.6420 0.9661 0.0000
vt 0.6506 0.9780 0.0000
vt 0.6428 0.9727 0.0000
vt 0.6395 0.9930 0.0000
vt 0.6339 0.9793 0.0000
vt 0.6242 0.9963 0.0000
vt 0.6262 0.9835 0.0000
vt 0.6080 0.9886 0.0000
vt 0.6183 0.9776 0.0000
vt 0.6046 0.9810 0.0000
vt 0.6164 0.9734 0.0000
vt 0.6061 0.9752 0.0000
vt 0.6170 0.9705 0.0000
vt 0.6062 0.9693 0.0000
vt 0.6175 0.9672 0.0000
vt 0.6025 0.9617 0.0000
vt 0.6149 0.9634 0.0000
vt 0.6027 0.9560 0.0000
vt 0.6144 0.9608 0.0000
vt 0.7151 0.5987 0.0000
vt 0.6846 0.6039 0.0000
vt 0.7143 0.5841 0.0000
vt 0.6848 0.5835 0.0000
vt 0.6853 0.5669 0.0000
vt 0.7147 0.5726 0.0000
# 185 texture coords

g reactor_crash
usemtl 07___Default
s 1
f 1/1/1 2/2/2 3/3/2 
f 3/3/2 4/4/3 1/1/1 
s 2
f 1/5/4 5/6/4 6/7/5 
f 6/7/5 2/8/5 1/5/4 
s 1
f 7/9/6 8/10/6 6/2/6 
f 9/11/6 7/9/6 6/2/6 
f 9/11/6 6/2/6 5/1/7 
f 10/12/8 9/11/6 5/1/7 
f 11/13/9 12/14/10 13/15/11 
f 11/13/9 13/15/11 14/16/12 
f 15/17/13 16/18/14 17/19/15 
f 17/19/15 18/20/16 15/17/13 
f 19/21/17 20/22/18 21/23/19 
f 2/2/2 19/21/17 21/23/19 
f 21/23/19 3/3/2 2/2/2 
s 2
f 12/24/20 22/25/20 23/26/21 
f 23/26/21 13/27/21 12/24/20 
f 13/27/21 23/26/21 24/28/22 
f 24/28/22 14/29/22 13/27/21 
f 14/29/22 24/28/22 5/6/4 
f 5/6/4 1/5/4 14/29/22 
f 25/30/23 19/31/23 2/8/5 
f 2/8/5 6/7/5 25/30/23 
s 1
f 23/15/24 22/14/25 26/13/26 
f 24/16/27 23/15/24 26/13/26 
f 27/20/28 28/19/29 29/32/30 
s 2
f 26/33/31 11/34/31 18/35/32 
f 18/35/32 27/36/33 26/33/31 
f 30/37/34 31/38/35 27/36/33 
f 27/36/33 18/35/32 30/37/34 
s 1
f 32/39/36 33/40/37 17/19/15 
f 34/41/38 32/39/36 17/19/15 
f 34/41/38 17/19/15 16/18/14 
f 28/19/29 35/40/39 36/39/40 
f 36/39/40 29/32/30 28/19/29 
s 2
f 37/42/31 38/43/31 31/38/35 
f 31/38/35 30/37/34 37/42/31 
f 39/44/41 19/31/23 25/30/23 
f 25/30/23 40/45/41 39/44/41 
s 1
f 39/46/42 41/47/43 42/48/43 
f 19/21/17 39/46/42 42/48/43 
f 19/21/17 42/48/43 20/22/18 
f 42/48/43 41/47/43 43/49/44 
f 43/49/44 44/50/44 42/48/43 
s 4
f 37/51/45 33/52/45 35/53/45 
f 35/53/45 38/54/45 37/51/45 
s 2
f 30/37/34 18/35/32 17/55/46 
f 28/56/47 27/36/33 31/38/35 
s 1
f 33/40/37 37/57/48 30/58/49 
f 30/58/49 17/19/15 33/40/37 
f 38/57/50 35/40/39 28/19/29 
f 28/19/29 31/58/51 38/57/50 
s 4
f 32/59/45 36/60/45 35/53/45 
f 35/53/45 33/52/45 32/59/45 
s 2
f 32/61/52 34/62/52 45/63/52 
f 36/64/52 32/61/52 45/63/52 
f 29/65/53 36/64/52 45/63/52 
f 46/66/54 29/65/53 45/63/52 
s 1
f 15/17/13 18/20/16 47/67/55 
f 47/67/55 18/20/16 48/68/2 
f 48/68/2 18/20/16 49/69/56 
f 14/16/12 1/1/1 4/4/3 
f 14/16/12 4/4/3 50/70/57 
f 11/13/9 14/16/12 50/70/57 
f 18/20/16 11/13/9 50/70/57 
f 49/69/56 18/20/16 50/70/57 
s 4
f 51/71/58 52/72/59 3/73/60 
f 3/73/60 21/74/61 51/71/58 
f 49/75/62 50/76/63 52/72/59 
f 53/77/64 45/78/65 34/79/66 
f 54/80/67 55/81/68 51/71/58 
f 51/71/58 56/82/69 54/80/67 
f 53/77/64 57/83/70 54/80/67 
f 54/80/67 58/84/71 53/77/64 
f 4/85/72 3/73/60 52/72/59 
f 52/72/59 50/76/63 4/85/72 
f 55/81/68 48/86/73 49/75/62 
f 49/75/62 52/72/59 55/81/68 
f 51/71/58 55/81/68 52/72/59 
f 57/83/70 15/87/74 47/88/75 
f 47/88/75 48/86/73 55/81/68 
f 57/83/70 47/88/75 55/81/68 
f 54/80/67 57/83/70 55/81/68 
f 51/71/58 21/74/61 20/89/76 
f 20/89/76 42/90/77 44/91/78 
f 51/71/58 20/89/76 44/91/78 
f 51/71/58 44/91/78 56/82/69 
f 16/92/79 15/87/74 57/83/70 
f 34/79/66 16/92/79 57/83/70 
f 53/77/64 34/79/66 57/83/70 
f 56/82/69 59/93/80 58/84/71 
f 58/84/71 54/80/67 56/82/69 
f 58/84/71 46/94/81 45/78/65 
f 53/77/64 58/84/71 45/78/65 
f 56/82/69 44/91/78 59/93/80 
f 58/84/71 59/93/80 46/94/81 
s 1
f 60/95/82 61/96/83 62/97/84 
f 60/95/82 62/97/84 63/98/82 
f 64/99/82 60/95/82 63/98/82 
f 65/100/85 66/101/86 29/32/30 
f 29/32/30 67/102/87 65/100/85 
s 2
f 29/65/53 46/66/54 59/103/88 
f 59/103/88 44/104/89 43/105/88 
f 29/65/53 59/103/88 43/105/88 
f 43/105/88 60/106/89 64/107/89 
f 43/105/88 64/107/89 68/108/89 
f 43/105/88 68/108/89 69/109/88 
f 29/65/53 43/105/88 69/109/88 
f 29/65/53 69/109/88 70/110/89 
f 67/111/89 29/65/53 70/110/89 
s 4
f 69/112/90 68/113/91 71/114/92 
f 71/114/92 72/115/93 69/112/90 
f 68/113/91 64/116/94 73/117/95 
f 73/117/95 71/114/92 68/113/91 
f 64/116/94 63/118/96 74/119/97 
f 74/119/97 73/117/95 64/116/94 
f 63/118/96 62/120/98 75/121/99 
f 75/121/99 74/119/97 63/118/96 
f 62/120/98 76/122/100 77/123/101 
f 77/123/101 75/121/99 62/120/98 
f 76/122/100 78/124/102 79/125/103 
f 79/125/103 77/123/101 76/122/100 
f 78/124/102 66/126/104 80/127/105 
f 80/127/105 79/125/103 78/124/102 
f 66/126/104 65/128/106 81/129/107 
f 81/129/107 80/127/105 66/126/104 
f 65/128/106 67/130/108 82/131/109 
f 82/131/109 81/129/107 65/128/106 
f 70/132/110 69/112/90 72/115/93 
f 72/115/93 83/133/111 70/132/110 
f 67/130/108 70/132/110 83/133/111 
f 83/133/111 82/131/109 67/130/108 
s 1
f 77/134/112 79/135/113 72/136/114 
f 72/136/114 71/137/115 77/134/112 
f 79/135/113 80/138/116 72/136/114 
f 71/137/115 74/139/117 75/140/118 
f 71/137/115 73/141/119 74/139/117 
f 81/142/120 82/143/121 83/144/122 
f 71/137/115 75/140/118 77/134/112 
f 80/138/116 81/142/120 83/144/122 
f 83/144/122 72/136/114 80/138/116 
f 84/145/123 10/12/8 5/1/7 
f 5/1/7 24/16/27 26/13/26 
f 84/145/123 5/1/7 26/13/26 
f 85/146/123 84/145/123 26/13/26 
f 85/146/123 26/13/26 27/20/28 
f 85/146/123 27/20/28 86/147/124 
f 86/147/124 27/20/28 87/148/125 
f 88/149/126 87/148/125 27/20/28 
f 88/149/126 27/20/28 29/32/30 
f 88/149/126 29/32/30 66/101/86 
f 88/149/126 66/101/86 78/150/127 
f 61/96/83 40/151/128 25/21/129 
f 62/97/84 61/96/83 25/21/129 
f 76/152/130 62/97/84 25/21/129 
f 78/150/127 76/152/130 25/21/129 
f 88/149/126 78/150/127 25/21/129 
f 88/149/126 25/21/129 89/153/131 
f 90/154/6 89/153/131 25/21/129 
f 91/155/6 90/154/6 25/21/129 
f 91/155/6 25/21/129 6/2/6 
f 91/155/6 6/2/6 8/10/6 
s 2
f 84/156/132 92/157/133 93/158/134 
f 93/158/134 10/159/135 84/156/132 
f 84/156/132 85/160/136 94/161/137 
f 94/161/137 92/157/133 84/156/132 
f 85/160/136 86/162/138 95/163/139 
f 95/163/139 94/161/137 85/160/136 
f 86/162/138 87/164/140 96/165/141 
f 96/165/141 95/163/139 86/162/138 
f 88/166/142 97/167/143 96/165/141 
f 96/165/141 87/164/140 88/166/142 
f 89/168/144 98/169/145 97/167/143 
f 97/167/143 88/166/142 89/168/144 
f 90/170/146 99/171/147 98/169/145 
f 98/169/145 89/168/144 90/170/146 
f 90/170/146 91/172/148 100/173/149 
f 100/173/149 99/171/147 90/170/146 
f 91/172/148 8/174/150 101/175/151 
f 101/175/151 100/173/149 91/172/148 
f 7/176/152 102/177/153 101/175/151 
f 101/175/151 8/174/150 7/176/152 
f 7/176/152 9/178/154 103/179/155 
f 103/179/155 102/177/153 7/176/152 
f 9/178/154 10/159/135 93/158/134 
f 93/158/134 103/179/155 9/178/154 
f 92/157/133 94/161/137 101/175/151 
f 101/175/151 93/158/134 92/157/133 
s 4
f 60/180/156 43/181/157 61/182/158 
f 43/181/157 41/183/159 61/182/158 
f 39/184/160 40/185/161 61/182/158 
f 41/183/159 39/184/160 61/182/158 
s 2
f 96/165/141 100/173/149 101/175/151 
f 101/175/151 94/161/137 96/165/141 
f 97/167/143 99/171/147 100/173/149 
f 100/173/149 96/165/141 97/167/143 
f 101/175/151 102/177/153 103/179/155 
f 103/179/155 93/158/134 101/175/151 
f 97/167/143 98/169/145 99/171/147 
f 94/161/137 95/163/139 96/165/141 
# 200 faces

