# 3ds Max Wavefront OBJ Exporter v0.97b - (c)2007 guruware
# File Created: 26.06.2015 14:36:22

mtllib spiral_crash_1.mtl

#
# object spiral_crash_1
#

v  56.4290 175.8897 -189.8977
v  30.1661 178.7351 -194.0032
v  46.3571 208.4376 -217.5350
v  68.9006 203.3653 -205.7994
v  24.2255 182.9012 -190.4033
v  36.4713 206.1560 -210.2894
v  23.4016 192.2851 -178.5970
v  35.8801 222.0788 -204.8795
v  28.7171 195.2364 -173.2419
v  37.3260 219.1129 -193.2675
v  54.9634 192.3929 -169.1390
v  65.0278 227.1612 -190.7321
v  60.9056 188.2215 -172.7348
v  69.6848 216.4738 -188.8781
v  61.7387 178.8367 -184.5398
v  75.5563 213.1975 -203.3631
v  -59.1053 -60.2102 45.2595
v  -56.7781 -50.8951 57.9085
v  -39.8526 25.7993 -29.4299
v  -31.6372 13.7967 -42.4153
v  -52.9711 -49.7009 60.6030
v  -37.9004 28.9269 -24.8111
v  -44.2429 -51.7743 60.5193
v  -28.1042 30.4198 -19.9998
v  -41.4286 -54.5402 57.7625
v  -22.6261 28.4257 -20.9681
v  -43.7543 -63.8494 45.1214
v  -14.4159 16.4306 -33.9453
v  -47.5685 -65.0751 42.4571
v  -16.3747 13.2800 -38.5437
v  -56.2976 -63.0050 42.5365
v  -26.1681 11.7828 -43.3596
v  -75.5562 -222.9553 213.1198
v  -74.4264 -226.0333 209.5009
v  -72.2252 -227.1612 208.6457
v  -63.9630 -227.0970 211.1691
v  -62.6216 -225.9429 213.1046
v  -63.7486 -222.8649 216.7243
v  -65.9464 -221.6835 217.5349
v  -74.2139 -221.7477 215.0099
v  -63.7494 -132.8771 141.3981
v  -71.8985 -137.2661 133.3546
v  9.1393 90.7284 -122.4026
v  -10.4125 100.7849 -115.2654
v  -60.0988 -133.3217 141.9524
v  -12.1131 105.1920 -110.0931
v  -55.0745 -136.9174 138.8194
v  -5.5442 111.1476 -100.5047
v  -54.9124 -139.2002 135.8893
v  1.1383 111.2583 -98.4040
v  -63.0564 -143.5864 127.8509
v  20.6777 101.2082 -105.5366
v  -66.7124 -143.1831 127.3352
v  22.3751 96.7861 -110.6978
v  -71.7396 -139.5889 130.4655
v  15.8130 90.8270 -120.2887
# 56 vertices

vn 0.4256 -0.6574 -0.6218
vn -0.3372 -0.5118 -0.7901
vn 0.0015 0.5545 -0.8322
vn 0.5496 -0.2997 -0.7798
vn -0.8575 -0.0579 -0.5112
vn -0.6003 0.1291 -0.7893
vn -0.8984 0.4351 0.0600
vn -0.4520 0.7773 -0.4376
vn -0.4081 0.6800 0.6091
vn -0.4024 0.8085 0.4295
vn 0.3132 0.4709 0.8247
vn 0.3914 0.8913 -0.2289
vn 0.8536 -0.0040 0.5208
vn 0.7993 0.5039 0.3273
vn 0.8938 -0.4438 -0.0643
vn 0.8382 0.3538 -0.4150
vn -0.9641 -0.0708 -0.2559
vn -0.8307 0.4678 0.3018
vn -0.9771 0.1444 -0.1561
vn -0.6609 -0.4173 -0.6238
vn -0.2363 0.7062 0.6674
vn -0.7224 0.5838 0.3705
vn 0.5209 0.5437 0.6581
vn -0.0319 0.7088 0.7047
vn 0.9586 0.0546 0.2795
vn 0.6561 0.4055 0.6365
vn 0.8140 -0.5130 -0.2724
vn 0.9633 -0.1941 0.1852
vn 0.1941 -0.7433 -0.6402
vn 0.6837 -0.6365 -0.3570
vn -0.5298 -0.5612 -0.6360
vn 0.0197 -0.7187 -0.6951
vn -0.1747 -0.7748 0.6076
vn -0.1607 -0.7760 0.6099
vn -0.1734 -0.7776 0.6043
vn -0.1743 -0.7879 0.5906
vn -0.1825 -0.7778 0.6015
vn -0.1964 -0.7763 0.5990
vn -0.1837 -0.7750 0.6047
vn -0.1829 -0.7644 0.6183
vn -0.5644 0.5578 0.6085
vn 0.2025 0.6345 0.7459
vn -0.4031 0.6424 0.6518
vn -0.9363 0.2828 0.2081
vn -0.1408 -0.6504 -0.7465
vn -0.7932 -0.2193 -0.5681
vn 0.8121 0.3470 0.4691
vn 0.3369 0.6135 0.7142
vn -0.9548 0.2878 -0.0745
vn 0.9877 -0.1448 -0.0590
vn 0.9039 0.2247 0.3639
vn -0.5664 0.6644 0.4876
vn 0.6157 -0.5678 -0.5463
vn 0.9352 -0.3032 -0.1827
vn 0.1317 0.6299 0.7654
vn -0.1541 -0.6780 -0.7188
vn 0.3857 -0.6826 -0.6208
vn 0.7834 0.1663 0.5988
vn -0.8094 -0.3803 -0.4476
vn -0.3672 -0.6354 -0.6793
vn 0.9316 -0.3547 0.0793
vn -0.9825 0.1456 0.1158
vn -0.9108 -0.2355 -0.3390
vn 0.5543 -0.6873 -0.4695
# 64 vertex normals

vt 0.4277 0.0238 0.0000
vt 0.4277 0.0111 0.0000
vt 0.4073 0.0109 0.0000
vt 0.4109 0.0239 0.0000
vt 0.4277 0.0072 0.0000
vt 0.4114 0.0070 0.0000
vt 0.4034 0.0522 0.0000
vt 0.4198 0.0558 0.0000
vt 0.4212 0.0485 0.0000
vt 0.4005 0.0437 0.0000
vt 0.4114 0.0110 0.0000
vt 0.4068 0.0069 0.0000
vt 0.4065 0.0240 0.0000
vt 0.4277 0.0276 0.0000
vt 0.4108 0.0279 0.0000
vt 0.4045 0.0446 0.0000
vt 0.3992 0.0512 0.0000
vt 0.4072 0.0279 0.0000
vt 0.6032 0.0212 0.0000
vt 0.6032 0.0138 0.0000
vt 0.5445 0.0135 0.0000
vt 0.5445 0.0227 0.0000
vt 0.6032 0.0115 0.0000
vt 0.5445 0.0108 0.0000
vt 0.5992 0.0652 0.0000
vt 0.5989 0.0608 0.0000
vt 0.5394 0.0615 0.0000
vt 0.5393 0.0669 0.0000
vt 0.6032 0.0235 0.0000
vt 0.5445 0.0255 0.0000
vt 0.6944 0.0719 0.0000
vt 0.6919 0.0719 0.0000
vt 0.6910 0.0709 0.0000
vt 0.6910 0.0665 0.0000
vt 0.6919 0.0656 0.0000
vt 0.6944 0.0656 0.0000
vt 0.6954 0.0665 0.0000
vt 0.6954 0.0709 0.0000
vt 0.7199 0.0201 0.0000
vt 0.7199 0.0161 0.0000
vt 0.6615 0.0148 0.0000
vt 0.6615 0.0206 0.0000
vt 0.4866 0.0231 0.0000
vt 0.4866 0.0122 0.0000
vt 0.7199 0.0149 0.0000
vt 0.6615 0.0131 0.0000
vt 0.4866 0.0089 0.0000
vt 0.7173 0.0470 0.0000
vt 0.7167 0.0447 0.0000
vt 0.6582 0.0552 0.0000
vt 0.6587 0.0586 0.0000
vt 0.4794 0.0638 0.0000
vt 0.4800 0.0575 0.0000
vt 0.7199 0.0215 0.0000
vt 0.6615 0.0223 0.0000
vt 0.4866 0.0264 0.0000
# 56 texture coords

g spiral_crash_1
usemtl 07___Default
s 1
f 1/1/1 2/2/2 3/3/3 
f 3/3/3 4/4/4 1/1/1 
f 2/2/2 5/5/5 6/6/6 
f 6/6/6 3/3/3 2/2/2 
f 6/7/6 5/8/5 7/9/7 
f 7/9/7 8/10/8 6/7/6 
f 7/5/7 9/2/9 10/11/10 
f 10/11/10 8/12/8 7/5/7 
f 10/11/10 9/2/9 11/1/11 
f 11/1/11 12/13/12 10/11/10 
f 11/1/11 13/14/13 14/15/14 
f 14/15/14 12/13/12 11/1/11 
f 14/16/14 13/9/13 15/8/15 
f 15/8/15 16/17/16 14/16/14 
f 15/14/15 1/1/1 4/4/4 
f 4/4/4 16/18/16 15/14/15 
f 17/19/17 18/20/18 19/21/19 
f 19/21/19 20/22/20 17/19/17 
f 19/21/19 18/20/18 21/23/21 
f 21/23/21 22/24/22 19/21/19 
f 21/25/21 23/26/23 24/27/24 
f 24/27/24 22/28/22 21/25/21 
f 23/23/23 25/20/25 26/21/26 
f 26/21/26 24/24/24 23/23/23 
f 25/20/25 27/19/27 28/22/28 
f 28/22/28 26/21/26 25/20/25 
f 28/22/28 27/19/27 29/29/29 
f 29/29/29 30/30/30 28/22/28 
f 30/27/30 29/26/29 31/25/31 
f 31/25/31 32/28/32 30/27/30 
f 31/29/31 17/19/17 20/22/20 
f 20/22/20 32/30/32 31/29/31 
s 2
f 33/31/33 34/32/34 35/33/35 
f 35/33/35 36/34/36 37/35/37 
f 37/35/37 38/36/38 39/37/39 
f 35/33/35 37/35/37 39/37/39 
f 33/31/33 35/33/35 39/37/39 
f 40/38/40 33/31/33 39/37/39 
s 1
f 40/39/41 39/40/42 41/41/43 
f 41/41/43 42/42/44 40/39/41 
f 42/42/44 41/41/43 18/20/18 
f 18/20/18 17/19/17 42/42/44 
f 2/2/2 1/1/1 43/43/45 
f 43/43/45 44/44/46 2/2/2 
f 44/44/46 43/43/45 20/22/20 
f 20/22/20 19/21/19 44/44/46 
f 41/41/43 39/40/42 38/45/47 
f 38/45/47 45/46/48 41/41/43 
f 18/20/18 41/41/43 45/46/48 
f 45/46/48 21/23/21 18/20/18 
f 46/47/49 5/5/5 2/2/2 
f 2/2/2 44/44/46 46/47/49 
f 22/24/22 46/47/49 44/44/46 
f 44/44/46 19/21/19 22/24/22 
f 38/48/47 37/49/50 47/50/51 
f 47/50/51 45/51/48 38/48/47 
f 45/51/48 47/50/51 23/26/23 
f 23/26/23 21/25/21 45/51/48 
f 7/9/7 5/8/5 46/52/49 
f 46/52/49 48/53/52 7/9/7 
f 48/53/52 46/52/49 22/28/22 
f 22/28/22 24/27/24 48/53/52 
f 37/45/50 36/40/53 49/41/54 
f 49/41/54 47/46/51 37/45/50 
f 47/46/51 49/41/54 25/20/25 
f 25/20/25 23/23/23 47/46/51 
f 9/2/9 7/5/7 48/47/52 
f 48/47/52 50/44/55 9/2/9 
f 50/44/55 48/47/52 24/24/24 
f 24/24/24 26/21/26 50/44/55 
f 36/40/53 35/39/56 51/42/57 
f 51/42/57 49/41/54 36/40/53 
f 49/41/54 51/42/57 27/19/27 
f 27/19/27 25/20/25 49/41/54 
f 11/1/11 9/2/9 50/44/55 
f 50/44/55 52/43/58 11/1/11 
f 52/43/58 50/44/55 26/21/26 
f 26/21/26 28/22/28 52/43/58 
f 51/42/57 35/39/56 34/54/59 
f 34/54/59 53/55/60 51/42/57 
f 27/19/27 51/42/57 53/55/60 
f 53/55/60 29/29/29 27/19/27 
f 54/56/61 13/14/13 11/1/11 
f 11/1/11 52/43/58 54/56/61 
f 30/30/30 54/56/61 52/43/58 
f 52/43/58 28/22/28 30/30/30 
f 34/49/59 33/48/62 55/51/63 
f 55/51/63 53/50/60 34/49/59 
f 29/26/29 53/50/60 55/51/63 
f 55/51/63 31/25/31 29/26/29 
f 56/52/64 15/8/15 13/9/13 
f 13/9/13 54/53/61 56/52/64 
f 32/28/32 56/52/64 54/53/61 
f 54/53/61 30/27/30 32/28/32 
f 33/54/62 40/39/41 42/42/44 
f 42/42/44 55/55/63 33/54/62 
f 55/55/63 42/42/44 17/19/17 
f 17/19/17 31/29/31 55/55/63 
f 1/1/1 15/14/15 56/56/64 
f 56/56/64 43/43/45 1/1/1 
f 20/22/20 43/43/45 56/56/64 
f 56/56/64 32/30/32 20/22/20 
f 16/17/16 4/4/4 6/6/6 
f 6/6/6 8/10/8 16/17/16 
f 8/10/8 10/11/10 14/15/14 
f 14/15/14 16/17/16 8/10/8 
f 10/11/10 12/13/12 14/15/14 
f 4/4/4 3/3/3 6/6/6 
# 108 faces

