# 3ds Max Wavefront OBJ Exporter v0.97b - (c)2007 guruware
# File Created: 22.06.2015 10:55:09

mtllib antenna_1.mtl

#
# object antenna_1
#

v  6.1021 328.0107 5.2845
v  6.1021 476.7136 5.2845
v  -6.1021 476.7136 5.2844
v  -6.1021 328.0107 5.2844
v  0.0001 476.9465 -5.2845
v  0.0001 328.2436 -5.2845
v  3.0438 476.7136 3.5188
v  -3.0437 476.7136 3.5188
v  0.0000 476.9465 -1.7531
v  3.0438 678.0901 3.5188
v  -3.0437 678.0901 3.5188
v  0.0000 678.3229 -1.7531
v  1.8337 678.0901 2.8201
v  -1.8336 678.0901 2.8201
v  0.0000 678.3229 -0.3558
v  1.8337 804.3284 2.8201
v  -1.8336 804.3284 2.8201
v  0.0000 804.5612 -0.3558
# 18 vertices

vn 0.8607 0.0000 0.5091
vn 0.8712 0.0000 0.4909
vn -0.8712 0.0000 0.4909
vn -0.8607 0.0000 0.5091
vn 0.0000 0.0000 -1.0000
vn 0.0095 0.9998 0.0165
vn -0.0052 0.9998 0.0211
vn -0.0191 0.9993 0.0331
vn 0.0061 0.9999 0.0153
vn -0.0018 1.0000 0.0060
vn -0.0219 0.9998 0.0024
vn -0.8552 0.0000 0.5184
vn 0.8552 0.0000 0.5184
vn 0.8762 0.0000 0.4819
vn -0.8763 0.0000 0.4819
vn 0.0191 0.9993 0.0331
vn -0.0127 0.9991 0.0400
vn -0.0315 0.9980 0.0546
vn 0.0146 0.9994 0.0313
vn -0.0028 1.0000 0.0090
vn -0.0287 0.9996 0.0030
vn -0.8476 0.0000 0.5306
vn 0.8476 0.0000 0.5306
vn 0.8826 0.0000 0.4700
vn -0.8826 0.0000 0.4700
vn 0.0000 0.9973 0.0731
# 26 vertex normals

vt 0.3512 0.0847 0.0000
vt 0.4271 0.0847 0.0000
vt 0.4271 0.0909 0.0000
vt 0.3512 0.0909 0.0000
vt 0.4272 0.0972 0.0000
vt 0.3513 0.0972 0.0000
vt 0.3513 0.0785 0.0000
vt 0.4272 0.0785 0.0000
vt 0.3346 0.1264 0.0000
vt 0.3377 0.1210 0.0000
vt 0.3377 0.1228 0.0000
vt 0.3362 0.1255 0.0000
vt 0.3408 0.1264 0.0000
vt 0.3393 0.1255 0.0000
vt 0.2628 0.1092 0.0000
vt 0.2628 0.1061 0.0000
vt 0.3656 0.1061 0.0000
vt 0.3656 0.1092 0.0000
vt 0.2629 0.1123 0.0000
vt 0.3657 0.1123 0.0000
vt 0.2629 0.1030 0.0000
vt 0.3657 0.1030 0.0000
vt 0.3605 0.1333 0.0000
vt 0.3617 0.1304 0.0000
vt 0.3618 0.1311 0.0000
vt 0.3611 0.1329 0.0000
vt 0.3636 0.1329 0.0000
vt 0.3629 0.1326 0.0000
vt 0.2618 0.1214 0.0000
vt 0.2618 0.1195 0.0000
vt 0.3263 0.1195 0.0000
vt 0.3263 0.1214 0.0000
vt 0.2619 0.1233 0.0000
vt 0.3264 0.1233 0.0000
vt 0.2619 0.1177 0.0000
vt 0.3264 0.1177 0.0000
vt 0.3673 0.1269 0.0000
vt 0.3664 0.1286 0.0000
vt 0.3655 0.1269 0.0000
# 39 texture coords

g antenna_1
usemtl 01___Default
s 1
f 1/1/1 2/2/2 3/3/3 
f 3/3/3 4/4/4 1/1/1 
f 4/4/4 3/3/3 5/5/5 
f 5/5/5 6/6/5 4/4/4 
f 6/7/5 5/8/5 2/2/2 
f 2/2/2 1/1/1 6/7/5 
s 2
f 3/9/6 2/10/7 7/11/8 
f 7/11/8 8/12/9 3/9/6 
f 5/13/10 3/9/6 8/12/9 
f 8/12/9 9/14/11 5/13/10 
f 2/10/7 5/13/10 9/14/11 
f 9/14/11 7/11/8 2/10/7 
s 1
f 8/15/12 7/16/13 10/17/14 
f 10/17/14 11/18/15 8/15/12 
f 9/19/5 8/15/12 11/18/15 
f 11/18/15 12/20/5 9/19/5 
f 7/16/13 9/21/5 12/22/5 
f 12/22/5 10/17/14 7/16/13 
s 2
f 11/23/16 10/24/17 13/25/18 
f 13/25/18 14/26/19 11/23/16 
f 12/27/20 11/23/16 14/26/19 
f 14/26/19 15/28/21 12/27/20 
f 10/24/17 12/27/20 15/28/21 
f 15/28/21 13/25/18 10/24/17 
s 1
f 14/29/22 13/30/23 16/31/24 
f 16/31/24 17/32/25 14/29/22 
f 15/33/5 14/29/22 17/32/25 
f 17/32/25 18/34/5 15/33/5 
f 13/30/23 15/35/5 18/36/5 
f 18/36/5 16/31/24 13/30/23 
s 2
f 16/37/26 18/38/26 17/39/26 
# 31 faces

