# 3ds Max Wavefront OBJ Exporter v0.97b - (c)2007 guruware
# File Created: 22.06.2015 10:51:34

mtllib build_att_2.mtl

#
# object build_att_2
#

v  84.3032 24.8371 -80.9302
v  97.8569 -20.4346 -70.2930
v  0.0000 -20.4346 -265.0017
v  0.0000 24.8371 -275.6389
v  128.3872 -20.4346 -39.7627
v  114.8335 24.8371 -50.3998
v  141.9409 -65.7066 416.3823
v  80.8267 138.4254 -184.6193
v  75.9747 154.6319 -224.1127
v  75.9747 154.6319 446.2078
v  94.4621 92.8810 -98.9391
v  87.6444 115.6532 -136.9094
v  45.4443 154.6319 -254.6431
v  50.2964 138.4254 -215.1495
v  63.9318 92.8810 -129.4694
v  57.1141 115.6532 -167.4398
v  141.9409 -110.9868 -71.5197
v  141.9409 -201.5479 416.3823
v  141.9409 -156.2672 -118.8435
v  111.4106 -156.2671 -149.3738
v  111.4106 -110.9867 -102.0499
v  72.3892 157.2839 -222.5975
v  72.3892 157.2839 449.3582
v  43.4941 157.2839 -251.4926
v  0.0000 92.8810 -324.1781
v  0.0000 115.6532 -362.1486
v  0.0000 138.4254 -409.8583
v  0.0000 154.5858 -449.3580
v  0.0000 -156.2671 -344.0825
v  0.0000 -110.9867 -296.7587
v  0.0000 157.2839 -446.2013
v  -97.8569 -20.4346 -70.2930
v  -84.3032 24.8371 -80.9302
v  -80.8267 138.4254 -184.6193
v  -75.9746 154.6319 446.2078
v  -75.9746 154.6319 -224.1127
v  -128.3872 -20.4346 -39.7627
v  -114.8335 24.8371 -50.3998
v  -45.4443 154.6319 -254.6431
v  -50.2964 138.4254 -215.1495
v  -57.1141 115.6532 -167.4398
v  -63.9318 92.8810 -129.4694
v  -94.4621 92.8810 -98.9391
v  -87.6444 115.6532 -136.9094
v  -111.4106 -156.2671 -149.3738
v  -141.9409 -156.2672 -118.8435
v  -141.9409 -110.9868 -71.5197
v  -111.4106 -110.9867 -102.0499
v  -72.3892 157.2839 449.3582
v  -72.3892 157.2839 -222.5975
v  -43.4941 157.2839 -251.4926
v  111.4106 -65.7063 -70.6353
v  0.0000 -65.7063 -265.3440
v  0.0000 70.1089 -296.1354
v  70.7495 70.1089 -101.4266
v  141.9409 -65.7063 -40.1050
v  101.2798 70.1088 -70.8962
v  141.9409 -201.5476 -191.8011
v  111.4106 -201.5475 -222.3314
v  0.0000 -201.5475 -417.0402
v  -111.4106 -65.7063 -70.6353
v  -70.7494 70.1089 -101.4266
v  -141.9409 -65.7063 -40.1050
v  -101.2798 70.1088 -70.8962
v  -111.4106 -201.5475 -222.3314
v  -141.9409 -201.5476 -191.8011
v  -141.9409 -65.7066 416.3823
v  -141.9409 -201.5479 416.3823
# 68 vertices

vn 0.8126 0.0299 -0.5820
vn 0.7872 0.1559 -0.5967
vn 0.9046 -0.0311 -0.4250
vn 0.9239 -0.1110 -0.3663
vn 0.9580 0.2868 0.0000
vn 0.9886 0.1506 0.0000
vn 0.7071 -0.0096 -0.7071
vn 0.6996 0.1450 -0.6996
vn 0.8483 -0.4469 -0.2840
vn 0.3902 -0.8340 -0.3902
vn 0.4264 -0.7977 -0.4264
vn 0.7081 -0.6080 -0.3589
vn 0.4918 -0.7186 -0.4918
vn 0.5714 -0.5891 -0.5714
vn 0.7691 -0.4439 -0.4598
vn 0.7336 -0.5465 -0.4040
vn 1.0000 0.0000 -0.0000
vn 0.5401 0.6455 -0.5401
vn 0.6292 0.6166 -0.4732
vn 0.7044 0.4637 -0.5374
vn 0.6144 0.4950 -0.6144
vn 0.5200 0.8264 -0.2161
vn 0.3316 0.9335 -0.1366
vn 0.2361 0.9717 -0.0000
vn 0.5947 0.8040 -0.0000
vn 0.5978 0.7561 -0.2664
vn 0.2326 0.9612 -0.1481
vn 0.8763 -0.4020 -0.2655
vn 0.8634 -0.4490 -0.2302
vn 0.8553 -0.4764 -0.2037
vn 0.8514 -0.4854 -0.1986
vn 0.7055 0.5825 -0.4037
vn 0.7882 0.4186 -0.4510
vn -0.0000 0.7761 -0.6306
vn 0.0000 0.8483 -0.5295
vn -0.9046 -0.0311 -0.4250
vn -0.7872 0.1559 -0.5967
vn -0.8126 0.0299 -0.5820
vn -0.9239 -0.1110 -0.3663
vn -0.9580 0.2868 0.0000
vn -0.9580 0.2868 -0.0000
vn -0.6996 0.1450 -0.6996
vn -0.7071 -0.0096 -0.7071
vn -0.8483 -0.4469 -0.2840
vn -0.7081 -0.6080 -0.3589
vn -0.4264 -0.7977 -0.4264
vn -0.3902 -0.8340 -0.3902
vn -0.7336 -0.5465 -0.4040
vn -0.7691 -0.4439 -0.4598
vn -0.5714 -0.5891 -0.5714
vn -0.4918 -0.7186 -0.4918
vn -0.6292 0.6166 -0.4732
vn -0.5401 0.6455 -0.5401
vn -0.6144 0.4950 -0.6144
vn -0.7044 0.4637 -0.5374
vn -0.2361 0.9717 -0.0000
vn -0.3316 0.9335 -0.1366
vn -0.5200 0.8264 -0.2161
vn -0.5947 0.8040 -0.0000
vn -0.5978 0.7561 -0.2664
vn -0.2326 0.9612 -0.1481
vn -0.8763 -0.4020 -0.2655
vn -0.8634 -0.4490 -0.2302
vn -0.8514 -0.4854 -0.1986
vn -0.8553 -0.4764 -0.2037
vn -0.7055 0.5825 -0.4037
vn -0.7882 0.4186 -0.4510
vn 0.7384 0.3177 -0.5949
vn 0.8595 0.2045 -0.4684
vn 0.9072 -0.2845 -0.3098
vn 0.8043 -0.2329 -0.5467
vn 0.9926 0.1211 0.0000
vn 0.6702 0.3188 -0.6702
vn 0.6862 -0.2412 -0.6862
vn 0.4665 0.7516 -0.4665
vn 0.6231 0.6646 -0.4125
vn 0.6777 0.6248 -0.3878
vn -0.8595 0.2045 -0.4684
vn -0.7384 0.3177 -0.5949
vn -0.8043 -0.2329 -0.5467
vn -0.9072 -0.2845 -0.3098
vn -0.6702 0.3188 -0.6702
vn -0.6862 -0.2412 -0.6862
vn -0.6231 0.6646 -0.4125
vn -0.4665 0.7516 -0.4665
vn -0.6777 0.6248 -0.3878
vn -0.9886 0.1506 0.0000
vn -0.9926 0.1211 0.0000
vn -1.0000 -0.0000 -0.0000
vn -1.0000 0.0000 -0.0000
# 90 vertex normals

vt 0.8057 0.9244 0.0000
vt 0.7974 0.9015 0.0000
vt 0.9086 0.9010 0.0000
vt 0.9139 0.9240 0.0000
vt 0.7420 0.9008 0.0000
vt 0.7475 0.9250 0.0000
vt 0.5091 0.8767 0.0000
vt 0.8160 0.9855 0.0000
vt 0.8361 0.9941 0.0000
vt 0.4939 0.9941 0.0000
vt 0.7722 0.9612 0.0000
vt 0.7916 0.9734 0.0000
vt 0.7837 0.9247 0.0000
vt 0.7754 0.9008 0.0000
vt 0.8967 0.9915 0.0000
vt 0.8756 0.9983 0.0000
vt 0.8556 0.9888 0.0000
vt 0.8767 0.9825 0.0000
vt 0.8311 0.9757 0.0000
vt 0.8114 0.9624 0.0000
vt 0.8330 0.9584 0.0000
vt 0.8524 0.9702 0.0000
vt 0.7582 0.8536 0.0000
vt 0.5091 0.8074 0.0000
vt 0.7824 0.8305 0.0000
vt 0.8064 0.8244 0.0000
vt 0.8282 0.8276 0.0000
vt 0.8075 0.8536 0.0000
vt 0.7856 0.8512 0.0000
vt 0.5685 0.6043 0.0000
vt 0.5694 0.6021 0.0000
vt 0.9124 0.6007 0.0000
vt 0.9108 0.6030 0.0000
vt 0.5527 0.5889 0.0000
vt 0.5546 0.5875 0.0000
vt 0.9376 0.9582 0.0000
vt 0.9560 0.9701 0.0000
vt 0.9794 0.9825 0.0000
vt 0.9989 0.9916 0.0000
vt 0.9427 0.8273 0.0000
vt 0.9220 0.8534 0.0000
vt 0.4533 0.5657 0.0000
vt 0.4551 0.5657 0.0000
vt 0.9121 0.5268 0.0000
vt 0.5691 0.5283 0.0000
vt 0.5682 0.5261 0.0000
vt 0.9105 0.5245 0.0000
vt 0.5526 0.5416 0.0000
vt 0.5544 0.5431 0.0000
vt 0.7939 0.8780 0.0000
vt 0.9084 0.8779 0.0000
vt 0.9240 0.9466 0.0000
vt 0.8184 0.9470 0.0000
vt 0.7422 0.8767 0.0000
vt 0.7579 0.9491 0.0000
vt 0.7719 0.8764 0.0000
vt 0.7966 0.9490 0.0000
vt 0.8196 0.8074 0.0000
vt 0.8383 0.7941 0.0000
vt 0.8602 0.7978 0.0000
vt 0.9749 0.7976 0.0000
# 61 texture coords

g build_att_2
usemtl 07___Default
s 1
f 1/1/1 2/2/2 3/3/3 
f 3/3/3 4/4/4 1/1/1 
s 2
f 5/5/5 6/6/5 7/7/6 
f 8/8/5 9/9/5 10/10/5 
f 11/11/5 12/12/5 10/10/5 
s 1
f 6/13/7 5/14/8 2/2/2 
f 2/2/2 1/1/1 6/13/7 
f 13/15/9 9/16/10 8/17/11 
f 8/17/11 14/18/12 13/15/9 
f 12/19/13 11/20/14 15/21/15 
f 15/21/15 16/22/16 12/19/13 
s 2
f 17/23/17 7/7/6 18/24/17 
f 18/24/17 19/25/17 17/23/17 
s 1
f 19/26/18 20/27/19 21/28/20 
f 21/28/20 17/29/21 19/26/18 
s 4
f 9/30/22 22/31/23 23/32/24 
f 23/32/24 10/33/25 9/30/22 
f 13/34/26 24/35/27 22/31/23 
f 22/31/23 9/30/22 13/34/26 
s 1
f 16/22/16 15/21/15 25/36/28 
f 25/36/28 26/37/29 16/22/16 
f 13/15/9 14/18/12 27/38/30 
f 27/38/30 28/39/31 13/15/9 
f 20/27/19 29/40/32 30/41/33 
f 30/41/33 21/28/20 20/27/19 
s 4
f 24/35/27 13/34/26 28/42/34 
f 28/42/34 31/43/35 24/35/27 
s 2
f 3/3/36 32/2/37 33/1/38 
f 33/1/38 4/4/39 3/3/36 
s 1
f 34/8/40 35/10/40 36/9/41 
s 2
f 32/2/37 37/14/42 38/13/43 
f 38/13/43 33/1/38 32/2/37 
f 39/15/44 40/18/45 34/17/46 
f 34/17/46 36/16/47 39/15/44 
f 41/22/48 42/21/49 43/20/50 
f 43/20/50 44/19/51 41/22/48 
f 45/27/52 46/26/53 47/29/54 
f 47/29/54 48/28/55 45/27/52 
s 4
f 49/44/56 50/45/57 36/46/58 
f 36/46/58 35/47/59 49/44/56 
f 39/48/60 36/46/58 50/45/57 
f 50/45/57 51/49/61 39/48/60 
s 2
f 25/36/62 42/21/49 41/22/48 
f 41/22/48 26/37/63 25/36/62 
f 39/15/44 28/39/64 27/38/65 
f 27/38/65 40/18/45 39/15/44 
f 29/40/66 45/27/52 48/28/55 
f 48/28/55 30/41/67 29/40/66 
s 4
f 51/49/61 31/43/35 28/42/34 
f 28/42/34 39/48/60 51/49/61 
s 1
f 2/2/2 52/50/68 53/51/69 
f 53/51/69 3/3/3 2/2/2 
f 4/4/4 54/52/70 55/53/71 
f 55/53/71 1/1/1 4/4/4 
s 2
f 56/54/72 5/5/5 7/7/6 
f 7/7/6 6/6/5 57/55/5 
f 57/55/5 11/11/5 10/10/5 
f 10/10/5 7/7/6 57/55/5 
f 10/10/5 12/12/5 8/8/5 
s 1
f 5/14/8 56/56/73 52/50/68 
f 52/50/68 2/2/2 5/14/8 
f 1/1/1 55/53/71 57/57/74 
f 57/57/74 6/13/7 1/1/1 
f 11/20/14 57/57/74 55/53/71 
f 55/53/71 15/21/15 11/20/14 
f 16/22/16 14/18/12 8/17/11 
f 8/17/11 12/19/13 16/22/16 
s 2
f 58/58/17 19/25/17 18/24/17 
f 7/7/6 17/23/17 56/54/72 
s 1
f 58/59/75 59/60/76 20/27/19 
f 20/27/19 19/26/18 58/59/75 
f 52/50/68 56/56/73 17/29/21 
f 17/29/21 21/28/20 52/50/68 
f 15/21/15 55/53/71 54/52/70 
f 54/52/70 25/36/28 15/21/15 
f 26/37/29 27/38/30 14/18/12 
f 14/18/12 16/22/16 26/37/29 
f 59/60/76 60/61/77 29/40/32 
f 29/40/32 20/27/19 59/60/76 
f 53/51/69 52/50/68 21/28/20 
f 21/28/20 30/41/33 53/51/69 
s 2
f 53/51/78 61/50/79 32/2/37 
f 32/2/37 3/3/36 53/51/78 
f 62/53/80 54/52/81 4/4/39 
f 4/4/39 33/1/38 62/53/80 
f 61/50/79 63/56/82 37/14/42 
f 37/14/42 32/2/37 61/50/79 
f 64/57/83 62/53/80 33/1/38 
f 33/1/38 38/13/43 64/57/83 
f 62/53/80 64/57/83 43/20/50 
f 43/20/50 42/21/49 62/53/80 
f 41/22/48 44/19/51 34/17/46 
f 34/17/46 40/18/45 41/22/48 
f 65/60/84 66/59/85 46/26/53 
f 46/26/53 45/27/52 65/60/84 
f 63/56/82 61/50/79 48/28/55 
f 48/28/55 47/29/54 63/56/82 
f 54/52/81 62/53/80 42/21/49 
f 42/21/49 25/36/62 54/52/81 
f 40/18/45 27/38/65 26/37/63 
f 26/37/63 41/22/48 40/18/45 
f 60/61/86 65/60/84 45/27/52 
f 45/27/52 29/40/66 60/61/86 
f 61/50/79 53/51/78 30/41/67 
f 30/41/67 48/28/55 61/50/79 
s 1
f 38/6/40 37/5/40 67/7/87 
s 4
f 49/44/56 23/32/24 22/31/23 
f 24/35/27 31/43/35 51/49/61 
f 22/31/23 24/35/27 51/49/61 
f 49/44/56 22/31/23 51/49/61 
f 49/44/56 51/49/61 50/45/57 
s 1
f 64/55/40 38/6/40 67/7/87 
f 64/55/40 67/7/87 35/10/40 
f 35/10/40 43/11/40 64/55/40 
f 44/12/40 43/11/40 35/10/40 
f 34/8/40 44/12/40 35/10/40 
f 37/5/40 63/54/88 67/7/87 
f 63/54/88 47/23/89 67/7/87 
f 47/23/89 46/25/90 68/24/90 
f 68/24/90 67/7/87 47/23/89 
f 46/25/90 66/58/90 68/24/90 
# 121 faces

