# 3ds Max Wavefront OBJ Exporter v0.97b - (c)2007 guruware
# File Created: 22.06.2015 10:54:30

mtllib build_att_4.mtl

#
# object build_att_4
#

v  12.2025 249.5724 45.9818
v  12.2123 249.5724 -45.9814
v  -12.2123 249.5724 -45.9814
v  -12.2025 249.5724 45.9818
v  49.4445 157.2839 -83.2097
v  -49.4445 157.2839 -83.2097
v  -19.9618 244.2217 -53.7302
v  19.9618 244.2217 -53.7302
v  -49.4269 157.2839 83.2100
v  -19.9506 244.2216 53.7305
v  49.4269 157.2839 83.2100
v  19.9506 244.2216 53.7305
# 12 vertices

vn 0.2296 0.9458 0.2296
vn 0.2296 0.9458 -0.2296
vn -0.2296 0.9458 -0.2296
vn -0.2296 0.9458 0.2296
vn 0.0000 0.3211 -0.9470
vn -0.9470 0.3211 0.0001
vn 0.0000 0.3211 0.9470
vn 0.9470 0.3211 0.0001
vn 0.3103 0.8986 -0.3102
vn -0.3103 0.8986 -0.3102
vn -0.3103 0.8986 0.3103
vn 0.3103 0.8986 0.3103
# 12 vertex normals

vt 0.9180 0.7889 0.0000
vt 0.9178 0.7422 0.0000
vt 0.9300 0.7421 0.0000
vt 0.9302 0.7888 0.0000
vt 0.7007 0.4220 0.0000
vt 0.7512 0.4220 0.0000
vt 0.7361 0.4688 0.0000
vt 0.7157 0.4688 0.0000
vt 0.9138 0.5443 0.0000
vt 0.9988 0.5443 0.0000
vt 0.9837 0.5912 0.0000
vt 0.9289 0.5912 0.0000
vt 0.9135 0.7379 0.0000
vt 0.9343 0.7378 0.0000
vt 0.9346 0.7931 0.0000
vt 0.9137 0.7932 0.0000
# 16 texture coords

g build_att_4
usemtl 07___Default
s 1
f 1/1/1 2/2/2 3/3/3 
f 3/3/3 4/4/4 1/1/1 
s 2
f 5/5/5 6/6/5 7/7/5 
f 7/7/5 8/8/5 5/5/5 
s 4
f 6/9/6 9/10/6 10/11/6 
f 10/11/6 7/12/6 6/9/6 
s 2
f 9/5/7 11/6/7 12/7/7 
f 12/7/7 10/8/7 9/5/7 
s 4
f 11/9/8 5/10/8 8/11/8 
f 8/11/8 12/12/8 11/9/8 
s 1
f 2/2/2 8/13/9 7/14/10 
f 7/14/10 3/3/3 2/2/2 
f 3/3/3 7/14/10 10/15/11 
f 10/15/11 4/4/4 3/3/3 
f 4/4/4 10/15/11 12/16/12 
f 12/16/12 1/1/1 4/4/4 
f 1/1/1 12/16/12 8/13/9 
f 8/13/9 2/2/2 1/1/1 
# 18 faces

