# 3ds Max Wavefront OBJ Exporter v0.97b - (c)2007 guruware
# File Created: 22.06.2015 10:51:11

mtllib landing_pad.mtl

#
# object landing_pad
#

v  137.6032 -153.9195 55.5059
v  96.8307 -153.9195 96.2910
v  113.6735 -201.5479 112.6250
v  162.3694 -201.5479 63.9141
v  137.5698 -153.9195 -52.0408
v  162.3295 -201.5479 -64.5322
v  96.7708 -153.9195 -92.8274
v  113.6019 -201.5479 -113.2449
v  -17.3704 -153.9195 -92.8271
v  20.6766 -153.9195 -92.8274
v  22.7204 -201.5479 -134.4893
v  -22.7203 -201.5479 -134.4893
v  -134.2635 -153.9195 -52.0408
v  -93.4645 -153.9195 -92.8271
v  -113.6019 -201.5479 -113.2446
v  -162.3295 -201.5479 -64.5322
v  -134.2969 -153.9195 55.5059
v  -162.3694 -201.5479 63.9141
v  -93.5244 -153.9195 96.2910
v  -113.6735 -201.5479 112.6250
v  -17.3824 -153.9195 96.2910
v  -22.7346 -203.1568 134.4893
v  22.7347 -203.1568 134.4893
v  20.6887 -153.9195 96.2910
v  113.6019 -201.5479 -134.4893
v  68.1611 -201.5479 -134.4893
v  58.7237 -153.9195 -92.8274
v  68.1611 -201.5479 -113.2449
v  22.7204 -201.5479 -113.2449
v  -68.1611 -201.5479 -134.4893
v  -113.6019 -201.5479 -134.4893
v  -55.4174 -153.9195 -92.8271
v  -22.7203 -201.5479 -113.2449
v  -68.1611 -201.5479 -113.2446
v  -113.6735 -203.1568 134.4893
v  -68.2040 -203.1568 134.4893
v  -55.4534 -153.9195 96.2910
v  -68.2040 -201.5479 112.6250
v  -22.7346 -201.5479 112.6250
v  68.2041 -203.1568 134.4893
v  113.6735 -203.1568 134.4893
v  58.7596 -153.9195 96.2910
v  22.7347 -201.5479 112.6250
v  68.2041 -201.5479 112.6250
# 44 vertices

vn 0.8073 0.4803 0.3429
vn 0.6344 0.4419 0.6342
vn 0.8124 0.4807 0.3301
vn 0.8027 0.5018 -0.3223
vn 0.7962 0.5023 -0.3372
vn 0.6187 0.4839 -0.6189
vn -0.1821 0.6589 -0.7299
vn 0.1908 0.6509 -0.7348
vn 0.4786 0.5896 -0.6506
vn -0.4805 0.6073 -0.6326
vn -0.7778 0.5419 -0.3185
vn -0.6057 0.5158 -0.6059
vn -0.7755 0.5419 -0.3240
vn -0.7831 0.5214 0.3389
vn -0.7913 0.5225 0.3175
vn -0.6219 0.4763 0.6217
vn -0.1905 0.6146 0.7655
vn -0.4741 0.5713 0.6700
vn 0.4722 0.5525 0.6869
vn 0.1998 0.6058 0.7701
vn 0.1500 0.6804 -0.7173
vn 0.4795 0.6676 -0.5695
vn -0.4640 0.5293 -0.7103
vn -0.2154 0.6184 -0.7558
vn 0.0000 0.3940 -0.9191
vn 0.4579 0.5128 -0.7262
vn -0.4771 0.6842 -0.5516
vn -0.1407 0.6849 -0.7150
vn 0.2204 0.6081 -0.7626
vn -0.0000 0.3940 -0.9191
vn -0.1459 0.6430 0.7518
vn -0.4701 0.6530 0.5938
vn 0.4517 0.4709 0.7578
vn 0.2317 0.5581 0.7968
vn 0.0000 0.3244 0.9459
vn -0.4578 0.4885 0.7428
vn 0.4726 0.6354 0.6106
vn 0.1558 0.6382 0.7539
vn -0.2263 0.5696 0.7902
vn 0.9991 0.0429 0.0000
vn -0.9938 0.1116 0.0000
vn -0.9934 0.1145 0.0084
vn 0.9990 0.0440 0.0032
vn 0.9429 0.3332 0.0000
vn -0.9809 -0.1944 -0.0000
vn -0.9211 0.3894 -0.0000
vn 0.9660 -0.2585 -0.0000
vn -0.9169 0.3980 0.0293
vn 0.9641 -0.2648 -0.0195
vn 0.9398 0.3409 0.0251
vn -0.9798 -0.1993 -0.0147
vn 0.0000 1.0000 -0.0000
# 52 vertex normals

vt 0.3164 0.4593 0.0000
vt 0.2891 0.4704 0.0000
vt 0.2795 0.4447 0.0000
vt 0.3121 0.4315 0.0000
vt 0.3713 0.4593 0.0000
vt 0.3777 0.4315 0.0000
vt 0.3984 0.4708 0.0000
vt 0.4101 0.4452 0.0000
vt 0.9630 0.6509 0.0000
vt 0.9436 0.6509 0.0000
vt 0.9417 0.6188 0.0000
vt 0.9649 0.6188 0.0000
vt 0.9490 0.6859 0.0000
vt 0.9394 0.6540 0.0000
vt 0.9627 0.6540 0.0000
vt 0.9684 0.6858 0.0000
vt 0.9780 0.6956 0.0000
vt 0.9719 0.6697 0.0000
vt 0.9951 0.6697 0.0000
vt 0.9975 0.6956 0.0000
vt 0.9339 0.6266 0.0000
vt 0.9727 0.6266 0.0000
vt 0.9333 0.6633 0.0000
vt 0.9722 0.6594 0.0000
vt 0.2708 0.6207 0.0000
vt 0.2707 0.7172 0.0000
vt 0.2513 0.7172 0.0000
vt 0.2513 0.6207 0.0000
vt 0.2319 0.7172 0.0000
vt 0.2319 0.6207 0.0000
vt 0.2124 0.7172 0.0000
vt 0.2124 0.6207 0.0000
vt 0.1930 0.7172 0.0000
vt 0.1930 0.6207 0.0000
vt 0.1736 0.7172 0.0000
vt 0.1736 0.6207 0.0000
vt 0.2916 0.6964 0.0000
vt 0.2916 0.6415 0.0000
vt 0.1527 0.6415 0.0000
vt 0.1528 0.6964 0.0000
# 40 texture coords

g landing_pad
usemtl 07___Default
s 1
f 1/1/1 2/2/2 3/3/2 
f 3/3/2 4/4/3 1/1/1 
f 5/5/4 1/1/1 4/4/3 
f 4/4/3 6/6/5 5/5/4 
f 7/7/6 5/5/4 6/6/5 
f 6/6/5 8/8/6 7/7/6 
f 9/9/7 10/10/8 11/11/9 
f 11/11/9 12/12/10 9/9/7 
f 13/5/11 14/7/12 15/8/12 
f 15/8/12 16/6/13 13/5/11 
f 17/1/14 13/5/11 16/6/13 
f 16/6/13 18/4/15 17/1/14 
f 19/2/16 17/1/14 18/4/15 
f 18/4/15 20/3/16 19/2/16 
f 21/10/17 22/11/18 23/12/19 
f 23/12/19 24/9/20 21/10/17 
s 2
f 7/13/21 25/14/22 26/15/23 
f 26/15/23 27/16/24 7/13/21 
s 4
f 27/17/25 28/18/25 29/19/25 
f 29/19/25 10/20/25 27/17/25 
s 2
f 30/15/26 31/14/27 14/13/28 
f 14/13/28 32/16/29 30/15/26 
s 4
f 33/19/30 34/18/30 32/17/30 
f 32/17/30 9/20/25 33/19/30 
s 2
f 19/13/31 35/14/32 36/15/33 
f 36/15/33 37/16/34 19/13/31 
s 4
f 37/17/35 38/18/35 39/19/35 
f 39/19/35 21/20/35 37/17/35 
s 2
f 40/15/36 41/14/37 2/13/38 
f 2/13/38 42/16/39 40/15/36 
s 4
f 43/19/35 44/18/35 42/17/35 
f 42/17/35 24/20/35 43/19/35 
s 1
f 10/10/8 29/21/40 11/11/9 
f 33/22/41 9/9/7 12/12/10 
f 21/10/17 39/21/42 22/11/18 
f 43/22/43 24/9/20 23/12/19 
s 2
f 7/13/21 8/23/44 25/14/22 
f 28/24/45 27/16/24 26/15/23 
f 15/23/46 14/13/28 31/14/27 
f 32/16/29 34/24/47 30/15/26 
f 19/13/31 20/23/48 35/14/32 
f 38/24/49 37/16/34 36/15/33 
f 3/23/50 2/13/38 41/14/37 
f 42/16/39 44/24/51 40/15/36 
s 8
f 2/25/52 7/26/52 27/27/52 
f 27/27/52 42/28/52 2/25/52 
f 42/28/52 27/27/52 10/29/52 
f 10/29/52 24/30/52 42/28/52 
f 24/30/52 10/29/52 9/31/52 
f 9/31/52 21/32/52 24/30/52 
f 21/32/52 9/31/52 32/33/52 
f 32/33/52 37/34/52 21/32/52 
f 37/34/52 32/33/52 14/35/52 
f 14/35/52 19/36/52 37/34/52 
f 5/37/52 7/26/52 2/25/52 
f 2/25/52 1/38/52 5/37/52 
f 17/39/52 19/36/52 14/35/52 
f 14/35/52 13/40/52 17/39/52 
# 58 faces

