# 3ds Max Wavefront OBJ Exporter v0.97b - (c)2007 guruware
# File Created: 22.06.2015 10:52:30

mtllib main_building.mtl

#
# object main_building
#

v  159.7291 154.6319 -97.7095
v  239.6544 -65.7066 -127.5349
v  -239.6544 -65.7066 -127.5349
v  -216.0616 154.6318 55.2887
v  -216.0961 154.6319 -55.2885
v  -282.0624 -65.7066 -85.1139
v  -282.0094 -65.7066 85.1141
v  216.0961 154.6319 -55.2885
v  216.0619 154.6318 55.2887
v  282.0096 -65.7066 85.1141
v  282.0624 -65.7066 -85.1139
v  173.6884 154.6319 -97.7095
v  -173.6881 154.6319 -97.7095
v  173.6276 154.6318 97.7097
v  239.5753 -65.7066 127.5352
v  -239.4742 -65.3684 127.4894
v  -173.6276 154.6318 97.7097
v  159.6737 154.6318 97.7097
v  -282.0624 -201.5479 -85.1139
v  -282.0094 -201.5479 85.1141
v  282.0096 -201.5479 85.1141
v  282.0624 -201.5479 -85.1139
v  239.6547 -201.5479 -127.5349
v  -239.6544 -201.5479 -127.5349
v  239.5753 -201.5479 127.5352
v  -239.4742 -201.2097 127.4894
v  -212.4767 157.2839 53.7728
v  -212.5101 157.2839 -53.7739
v  150.8295 303.2418 2.2813
v  150.8309 303.2418 -2.2781
v  148.8101 303.2418 -4.0071
v  -171.7377 157.2839 -94.5590
v  -171.6779 157.2839 94.5593
v  148.8076 303.2418 4.0103
v  -101.3510 141.1741 -80.4865
v  -127.6268 141.1741 -80.4865
v  -157.6512 141.1741 -50.4526
v  -157.6193 141.1741 50.4529
v  -127.5758 141.1741 80.4868
v  -101.3339 141.1741 80.4868
v  -71.3031 141.1741 50.4529
v  -71.3138 141.1741 -50.4526
v  157.9457 157.2839 -94.5590
v  157.8910 157.2839 94.5593
v  -127.6268 157.2839 -80.4865
v  -101.3510 157.2839 -80.4865
v  -157.6193 157.2839 50.4529
v  -157.6512 157.2839 -50.4526
v  -101.3339 157.2839 80.4868
v  -127.5758 157.2839 80.4868
v  -71.3138 157.2839 -50.4526
v  -71.3031 157.2839 50.4529
# 52 vertices

vn 0.0000 0.1341 -0.9910
vn 0.0000 0.0604 -0.9982
vn -0.8787 0.3119 0.3614
vn -0.8789 0.3120 -0.3610
vn -0.9128 0.1523 -0.3789
vn -0.9125 0.1520 0.3798
vn 0.8470 0.3896 -0.3617
vn 0.8467 0.3898 0.3622
vn 0.9126 0.1523 0.3794
vn 0.9128 0.1523 -0.3790
vn 0.6988 0.1536 -0.6986
vn 0.4533 0.4642 -0.7610
vn -0.6760 0.2939 -0.6758
vn -0.6988 0.1536 -0.6986
vn 0.4532 0.4644 0.7609
vn 0.6986 0.1536 0.6988
vn -0.6980 0.1541 0.6994
vn -0.6758 0.2938 0.6760
vn -0.0826 0.1708 0.9818
vn 0.0000 0.1341 0.9910
vn -0.0001 0.0605 0.9982
vn -0.0001 0.0604 0.9982
vn -0.9240 0.0000 -0.3825
vn -0.9237 0.0000 0.3830
vn 0.9238 0.0000 0.3829
vn 0.9240 0.0000 -0.3825
vn 0.7072 0.0000 -0.7070
vn -0.7072 0.0000 -0.7070
vn 0.7070 0.0000 0.7072
vn -0.7058 0.0000 0.7084
vn -0.0001 0.0000 1.0000
vn 0.0000 0.0000 -1.0000
vn -0.5199 0.8264 0.2162
vn -0.3316 0.9335 0.1366
vn -0.3316 0.9335 -0.1365
vn -0.5200 0.8264 -0.2159
vn 0.5553 0.7994 0.2293
vn 0.5544 0.8020 -0.2223
vn 0.4169 0.7492 -0.5146
vn -0.1284 0.9262 -0.3544
vn -0.2375 0.8106 -0.5353
vn -0.2375 0.8105 0.5354
vn -0.1284 0.9262 0.3544
vn 0.4319 0.7386 0.5177
vn -0.2971 0.6303 0.7173
vn 0.2972 0.6302 0.7173
vn 0.7174 0.6302 0.2969
vn 0.7172 0.6303 -0.2973
vn 0.2970 0.6303 -0.7173
vn -0.2971 0.6303 -0.7173
vn -0.7173 0.6303 -0.2971
vn -0.7173 0.6303 0.2972
vn 0.0000 0.7650 -0.6440
vn 0.0000 0.9242 -0.3819
vn 0.0000 0.7650 0.6440
vn 0.0000 0.9242 0.3818
vn 0.0000 1.0000 -0.0000
vn -0.3827 0.0000 0.9239
vn 0.3828 0.0000 0.9238
vn 0.9240 0.0000 0.3825
vn 0.9238 0.0000 -0.3829
vn 0.3826 0.0000 -0.9239
vn -0.3827 0.0000 -0.9239
vn -0.9239 0.0000 -0.3826
vn -0.9238 0.0000 0.3828
vn 0.0000 0.5334 -0.8459
vn 0.0000 0.5333 0.8459
vn -0.6300 0.3806 -0.6770
vn -0.7969 0.2817 -0.5345
vn -0.9982 -0.0600 -0.0040
vn -0.7969 0.2819 0.5343
vn -0.9982 -0.0600 0.0034
# 72 vertex normals

vt 0.5629 0.7971 0.0000
vt 0.5221 0.6833 0.0000
vt 0.7665 0.6833 0.0000
vt 0.1161 0.2116 0.0000
vt 0.0588 0.2116 0.0000
vt 0.0445 0.0949 0.0000
vt 0.1303 0.0948 0.0000
vt 0.0862 0.4226 0.0000
vt 0.0855 0.3665 0.0000
vt 0.2012 0.3503 0.0000
vt 0.2022 0.4362 0.0000
vt 0.1982 0.4659 0.0000
vt 0.0775 0.4517 0.0000
vt 0.0285 0.2181 0.0000
vt 0.0148 0.0989 0.0000
vt 0.0761 0.3377 0.0000
vt 0.1965 0.3206 0.0000
vt 0.1600 0.0990 0.0000
vt 0.1463 0.2180 0.0000
vt 0.7264 0.7967 0.0000
vt 0.5560 0.7967 0.0000
vt 0.5223 0.6833 0.0000
vt 0.7672 0.6830 0.0000
vt 0.0432 0.0264 0.0000
vt 0.1315 0.0263 0.0000
vt 0.2696 0.3482 0.0000
vt 0.2707 0.4366 0.0000
vt 0.2693 0.4680 0.0000
vt 0.0119 0.0280 0.0000
vt 0.2675 0.3168 0.0000
vt 0.1628 0.0281 0.0000
vt 0.5223 0.6138 0.0000
vt 0.7672 0.6136 0.0000
vt 0.5222 0.6140 0.0000
vt 0.7663 0.6140 0.0000
vt 0.1059 0.8304 0.0000
vt 0.1064 0.8291 0.0000
vt 0.1403 0.8290 0.0000
vt 0.1409 0.8303 0.0000
vt 0.0037 0.3943 0.0000
vt 0.0037 0.3968 0.0000
vt 0.0033 0.3980 0.0000
vt 0.1532 0.8161 0.0000
vt 0.1544 0.8168 0.0000
vt 0.0923 0.8170 0.0000
vt 0.0935 0.8163 0.0000
vt 0.0033 0.3931 0.0000
vt 0.9682 0.9514 0.0000
vt 0.9514 0.9512 0.0000
vt 0.9318 0.9310 0.0000
vt 0.9329 0.8626 0.0000
vt 0.9531 0.8430 0.0000
vt 0.9699 0.8433 0.0000
vt 0.9894 0.8634 0.0000
vt 0.9883 0.9319 0.0000
vt 0.1541 0.7114 0.0000
vt 0.1528 0.7120 0.0000
vt 0.0918 0.7117 0.0000
vt 0.0931 0.7122 0.0000
vt 0.1487 0.8022 0.0000
vt 0.1487 0.7939 0.0000
vt 0.1074 0.8118 0.0000
vt 0.1392 0.8117 0.0000
vt 0.0978 0.7941 0.0000
vt 0.0979 0.8023 0.0000
vt 0.1391 0.7845 0.0000
vt 0.1073 0.7846 0.0000
vt 0.9717 0.9602 0.0000
vt 0.9476 0.9598 0.0000
vt 0.9231 0.9345 0.0000
vt 0.9243 0.8588 0.0000
vt 0.9496 0.8343 0.0000
vt 0.9736 0.8347 0.0000
vt 0.9982 0.8600 0.0000
vt 0.9970 0.9356 0.0000
vt 0.7331 0.7971 0.0000
vt 0.5558 0.7971 0.0000
vt 0.7335 0.7967 0.0000
vt 0.0722 0.4565 0.0000
vt 0.0707 0.3330 0.0000
vt 0.8320 0.0068 0.0000
vt 0.8329 0.0074 0.0000
vt 0.8543 0.0432 0.0000
vt 0.8788 0.0082 0.0000
vt 0.8562 0.0433 0.0000
vt 0.8798 0.0076 0.0000
# 86 texture coords

g main_building
usemtl 07___Default
s 1
f 1/1/1 2/2/2 3/3/2 
s 2
f 4/4/3 5/5/4 6/6/5 
f 6/6/5 7/7/6 4/4/3 
f 8/8/7 9/9/8 10/10/9 
f 10/10/9 11/11/10 8/8/7 
f 8/8/7 11/11/10 2/12/11 
f 2/12/11 12/13/12 8/8/7 
f 13/14/13 3/15/14 6/6/5 
f 6/6/5 5/5/4 13/14/13 
f 9/9/8 14/16/15 15/17/16 
f 15/17/16 10/10/9 9/9/8 
f 16/18/17 17/19/18 4/4/3 
f 4/4/3 7/7/6 16/18/17 
s 9
f 18/20/19 17/21/20 16/22/21 
f 16/22/21 15/23/22 18/20/19 
s 2
f 7/7/6 6/6/5 19/24/23 
f 19/24/23 20/25/24 7/7/6 
f 11/11/10 10/10/9 21/26/25 
f 21/26/25 22/27/26 11/11/10 
f 2/12/11 11/11/10 22/27/26 
f 22/27/26 23/28/27 2/12/11 
f 6/6/5 3/15/14 24/29/28 
f 24/29/28 19/24/23 6/6/5 
f 10/10/9 15/17/16 25/30/29 
f 25/30/29 21/26/25 10/10/9 
f 16/18/17 7/7/6 20/25/24 
f 20/25/24 26/31/30 16/18/17 
s 5
f 15/23/22 16/22/21 26/32/31 
f 26/32/31 25/33/31 15/23/22 
s 1
f 2/2/2 23/34/32 24/35/32 
f 24/35/32 3/3/2 2/2/2 
s 4
f 4/36/33 27/37/34 28/38/35 
f 28/38/35 5/39/36 4/36/33 
s 2
f 29/40/37 9/9/8 8/8/7 
f 8/8/7 30/41/38 29/40/37 
f 30/41/38 8/8/7 12/13/12 
f 12/13/12 31/42/39 30/41/38 
s 4
f 5/39/36 28/38/35 32/43/40 
f 32/43/40 13/44/41 5/39/36 
f 17/45/42 33/46/43 27/37/34 
f 27/37/34 4/36/33 17/45/42 
s 2
f 34/47/44 14/16/15 9/9/8 
f 9/9/8 29/40/37 34/47/44 
s 4
f 28/38/35 27/37/34 33/46/43 
f 33/46/43 32/43/40 28/38/35 
s 2
f 29/40/37 30/41/38 31/42/39 
f 31/42/39 34/47/44 29/40/37 
s 1
f 35/48/45 36/49/46 37/50/47 
f 37/50/47 38/51/48 39/52/49 
f 39/52/49 40/53/50 41/54/51 
f 37/50/47 39/52/49 41/54/51 
f 35/48/45 37/50/47 41/54/51 
f 42/55/52 35/48/45 41/54/51 
s 4
f 1/56/53 13/44/41 32/43/40 
f 32/43/40 43/57/54 1/56/53 
f 33/46/43 17/45/42 18/58/55 
f 18/58/55 44/59/56 33/46/43 
f 43/57/54 32/43/40 45/60/57 
f 45/60/57 46/61/57 43/57/54 
f 32/43/40 33/46/43 47/62/57 
f 47/62/57 48/63/57 32/43/40 
f 33/46/43 44/59/56 49/64/57 
f 49/64/57 50/65/57 33/46/43 
f 44/59/56 43/57/54 51/66/57 
f 51/66/57 52/67/57 44/59/56 
s 1
f 46/68/58 45/69/59 36/49/46 
f 36/49/46 35/48/45 46/68/58 
f 48/70/60 47/71/61 38/51/48 
f 38/51/48 37/50/47 48/70/60 
f 50/72/62 49/73/63 40/53/50 
f 40/53/50 39/52/49 50/72/62 
f 52/74/64 51/75/65 42/55/52 
f 42/55/52 41/54/51 52/74/64 
s 4
f 43/57/54 46/61/57 51/66/57 
f 32/43/40 48/63/57 45/60/57 
f 33/46/43 50/65/57 47/62/57 
f 44/59/56 52/67/57 49/64/57 
s 1
f 51/75/65 46/68/58 35/48/45 
f 35/48/45 42/55/52 51/75/65 
f 45/69/59 48/70/60 37/50/47 
f 37/50/47 36/49/46 45/69/59 
f 47/71/61 50/72/62 39/52/49 
f 39/52/49 38/51/48 47/71/61 
f 49/73/63 52/74/64 41/54/51 
f 41/54/51 40/53/50 49/73/63 
f 3/3/2 13/76/1 1/1/1 
f 1/1/1 12/77/1 2/2/2 
f 15/23/22 14/78/20 18/20/19 
s 2
f 31/42/39 12/13/12 1/79/66 
f 18/80/67 14/16/15 34/47/44 
s 8
f 1/81/68 43/82/69 31/83/70 
f 43/82/69 44/84/71 34/85/72 
f 34/85/72 31/83/70 43/82/69 
f 44/84/71 18/86/19 34/85/72 
# 94 faces

