# 3ds Max Wavefront OBJ Exporter v0.97b - (c)2007 guruware
# File Created: 22.06.2015 10:54:05

mtllib tube_2.mtl

#
# object tube_2
#

v  10.1651 -60.5704 -16.6051
v  10.1651 -26.1512 -16.6051
v  18.5956 -26.1512 -6.5580
v  18.5956 -60.5704 -6.5580
v  -2.7513 -60.5704 -18.8826
v  -2.7513 -26.1512 -18.8826
v  -14.1098 -60.5704 -12.3248
v  -14.1098 -26.1512 -12.3248
v  -18.5956 -60.5704 -0.0001
v  -18.5956 -26.1512 -0.0001
v  -14.1098 -60.5704 12.3245
v  -14.1098 -26.1512 12.3245
v  -2.7513 -60.5704 18.8823
v  -2.7513 -26.1512 18.8823
v  10.1651 -60.5704 16.6049
v  10.1651 -26.1512 16.6049
v  18.5956 -60.5704 6.5577
v  18.5956 -26.1512 6.5577
v  6.3817 29.0709 -10.0520
v  11.4851 29.0709 -3.9700
v  -1.4373 29.0709 -11.4307
v  -8.3132 29.0709 -7.4609
v  -11.0287 29.0709 -0.0001
v  -8.3132 29.0709 7.4606
v  -1.4373 29.0709 11.4304
v  6.3817 29.0709 10.0518
v  11.4851 29.0709 3.9696
v  4.7937 29.0709 -7.3016
v  8.5008 29.0709 -2.8838
v  -0.8859 29.0709 -8.3031
v  -5.8803 29.0709 -5.4196
v  -7.8528 29.0709 -0.0001
v  -5.8803 29.0709 5.4192
v  -0.8859 29.0709 8.3027
v  4.7937 29.0709 7.3013
v  8.5008 29.0709 2.8834
v  4.7937 20.5887 -7.3016
v  8.5008 20.5887 -2.8838
v  -0.8859 20.5887 -8.3031
v  -5.8803 20.5887 -5.4196
v  -7.8528 20.5887 -0.0001
v  -5.8803 20.5887 5.4192
v  -0.8859 20.5887 8.3027
v  4.7937 20.5887 7.3013
v  8.5008 20.5887 2.8834
# 45 vertices

vn 0.5000 0.0000 -0.8660
vn 0.4989 0.0671 -0.8641
vn 0.9376 0.0671 -0.3413
vn 0.9397 0.0000 -0.3420
vn -0.1736 0.0000 -0.9848
vn -0.1733 0.0671 -0.9826
vn -0.7660 0.0000 -0.6428
vn -0.7643 0.0671 -0.6413
vn -1.0000 0.0000 0.0000
vn -0.9977 0.0671 0.0000
vn -0.7660 0.0000 0.6428
vn -0.7643 0.0671 0.6413
vn -0.1737 0.0000 0.9848
vn -0.1733 0.0671 0.9826
vn 0.5000 0.0000 0.8660
vn 0.4989 0.0671 0.8641
vn 0.9397 0.0000 0.3420
vn 0.9376 0.0671 0.3413
vn 0.4954 0.1358 -0.8580
vn 0.9310 0.1358 -0.3389
vn -0.1720 0.1358 -0.9757
vn -0.7590 0.1358 -0.6368
vn -0.9907 0.1358 0.0000
vn -0.7590 0.1358 0.6368
vn -0.1720 0.1358 0.9757
vn 0.4954 0.1358 0.8580
vn 0.9310 0.1358 0.3389
vn 0.0000 1.0000 -0.0000
vn -0.9397 0.0000 0.3420
vn -0.5000 0.0000 0.8660
vn -0.3852 0.6376 0.6671
vn -0.7239 0.6376 0.2635
vn 0.1736 0.0000 0.9848
vn 0.1338 0.6376 0.7587
vn 0.7660 0.0000 0.6428
vn 0.5901 0.6376 0.4952
vn 1.0000 0.0000 -0.0000
vn 0.7704 0.6376 -0.0000
vn 0.7660 0.0000 -0.6428
vn 0.5901 0.6376 -0.4952
vn 0.1736 0.0000 -0.9848
vn 0.1338 0.6376 -0.7587
vn -0.5000 0.0000 -0.8660
vn -0.3852 0.6376 -0.6671
vn -0.9397 0.0000 -0.3420
vn -0.7239 0.6376 -0.2635
# 46 vertex normals

vt 0.3954 0.1084 0.0000
vt 0.3954 0.1284 0.0000
vt 0.3886 0.1284 0.0000
vt 0.3886 0.1084 0.0000
vt 0.4022 0.1084 0.0000
vt 0.4022 0.1284 0.0000
vt 0.4090 0.1084 0.0000
vt 0.4090 0.1284 0.0000
vt 0.4158 0.1084 0.0000
vt 0.4158 0.1284 0.0000
vt 0.4226 0.1084 0.0000
vt 0.4226 0.1284 0.0000
vt 0.4293 0.1084 0.0000
vt 0.4293 0.1284 0.0000
vt 0.4358 0.1084 0.0000
vt 0.4358 0.1284 0.0000
vt 0.3754 0.1084 0.0000
vt 0.3819 0.1084 0.0000
vt 0.3819 0.1284 0.0000
vt 0.3754 0.1284 0.0000
vt 0.3954 0.1604 0.0000
vt 0.3886 0.1604 0.0000
vt 0.4022 0.1604 0.0000
vt 0.4090 0.1604 0.0000
vt 0.4158 0.1604 0.0000
vt 0.4226 0.1604 0.0000
vt 0.4293 0.1604 0.0000
vt 0.4358 0.1604 0.0000
vt 0.3819 0.1604 0.0000
vt 0.3754 0.1604 0.0000
vt 0.7570 0.1099 0.0000
vt 0.7544 0.1130 0.0000
vt 0.7536 0.1116 0.0000
vt 0.7555 0.1094 0.0000
vt 0.7504 0.1138 0.0000
vt 0.7507 0.1122 0.0000
vt 0.7469 0.1117 0.0000
vt 0.7481 0.1107 0.0000
vt 0.7455 0.1079 0.0000
vt 0.7471 0.1079 0.0000
vt 0.7469 0.1041 0.0000
vt 0.7481 0.1051 0.0000
vt 0.7504 0.1021 0.0000
vt 0.7507 0.1037 0.0000
vt 0.7544 0.1028 0.0000
vt 0.7536 0.1042 0.0000
vt 0.7570 0.1059 0.0000
vt 0.7555 0.1064 0.0000
vt 0.7438 0.1399 0.0000
vt 0.7443 0.1348 0.0000
vt 0.7477 0.1364 0.0000
vt 0.7475 0.1389 0.0000
vt 0.7480 0.1312 0.0000
vt 0.7495 0.1347 0.0000
vt 0.7531 0.1308 0.0000
vt 0.7520 0.1345 0.0000
vt 0.7572 0.1338 0.0000
vt 0.7541 0.1359 0.0000
vt 0.7585 0.1388 0.0000
vt 0.7547 0.1384 0.0000
vt 0.7563 0.1434 0.0000
vt 0.7536 0.1407 0.0000
vt 0.7516 0.1455 0.0000
vt 0.7513 0.1417 0.0000
vt 0.7467 0.1441 0.0000
vt 0.7489 0.1410 0.0000
# 66 texture coords

g tube_2
usemtl 07___Default
s 1
f 1/1/1 2/2/2 3/3/3 
f 3/3/3 4/4/4 1/1/1 
f 1/1/1 5/5/5 6/6/6 
f 6/6/6 2/2/2 1/1/1 
f 5/5/5 7/7/7 8/8/8 
f 8/8/8 6/6/6 5/5/5 
f 7/7/7 9/9/9 10/10/10 
f 10/10/10 8/8/8 7/7/7 
f 9/9/9 11/11/11 12/12/12 
f 12/12/12 10/10/10 9/9/9 
f 11/11/11 13/13/13 14/14/14 
f 14/14/14 12/12/12 11/11/11 
f 13/13/13 15/15/15 16/16/16 
f 16/16/16 14/14/14 13/13/13 
f 15/17/15 17/18/17 18/19/18 
f 18/19/18 16/20/16 15/17/15 
f 17/18/17 4/4/4 3/3/3 
f 3/3/3 18/19/18 17/18/17 
f 3/3/3 2/2/2 19/21/19 
f 19/21/19 20/22/20 3/3/3 
f 2/2/2 6/6/6 21/23/21 
f 21/23/21 19/21/19 2/2/2 
f 6/6/6 8/8/8 22/24/22 
f 22/24/22 21/23/21 6/6/6 
f 8/8/8 10/10/10 23/25/23 
f 23/25/23 22/24/22 8/8/8 
f 10/10/10 12/12/12 24/26/24 
f 24/26/24 23/25/23 10/10/10 
f 12/12/12 14/14/14 25/27/25 
f 25/27/25 24/26/24 12/12/12 
f 14/14/14 16/16/16 26/28/26 
f 26/28/26 25/27/25 14/14/14 
f 16/20/16 18/19/18 27/29/27 
f 27/29/27 26/30/26 16/20/16 
f 18/19/18 3/3/3 20/22/20 
f 20/22/20 27/29/27 18/19/18 
s 2
f 20/31/28 19/32/28 28/33/28 
f 28/33/28 29/34/28 20/31/28 
f 19/32/28 21/35/28 30/36/28 
f 30/36/28 28/33/28 19/32/28 
f 21/35/28 22/37/28 31/38/28 
f 31/38/28 30/36/28 21/35/28 
f 22/37/28 23/39/28 32/40/28 
f 32/40/28 31/38/28 22/37/28 
f 23/39/28 24/41/28 33/42/28 
f 33/42/28 32/40/28 23/39/28 
f 24/41/28 25/43/28 34/44/28 
f 34/44/28 33/42/28 24/41/28 
f 25/43/28 26/45/28 35/46/28 
f 35/46/28 34/44/28 25/43/28 
f 26/45/28 27/47/28 36/48/28 
f 36/48/28 35/46/28 26/45/28 
f 27/47/28 20/31/28 29/34/28 
f 29/34/28 36/48/28 27/47/28 
s 1
f 29/49/29 28/50/30 37/51/31 
f 37/51/31 38/52/32 29/49/29 
f 28/50/30 30/53/33 39/54/34 
f 39/54/34 37/51/31 28/50/30 
f 30/53/33 31/55/35 40/56/36 
f 40/56/36 39/54/34 30/53/33 
f 31/55/35 32/57/37 41/58/38 
f 41/58/38 40/56/36 31/55/35 
f 32/57/37 33/59/39 42/60/40 
f 42/60/40 41/58/38 32/57/37 
f 33/59/39 34/61/41 43/62/42 
f 43/62/42 42/60/40 33/59/39 
f 34/61/41 35/63/43 44/64/44 
f 44/64/44 43/62/42 34/61/41 
f 35/63/43 36/65/45 45/66/46 
f 45/66/46 44/64/44 35/63/43 
f 36/65/45 29/49/29 38/52/32 
f 38/52/32 45/66/46 36/65/45 
f 39/54/34 40/56/36 41/58/38 
f 41/58/38 42/60/40 43/62/42 
f 43/62/42 44/64/44 45/66/46 
f 41/58/38 43/62/42 45/66/46 
f 39/54/34 41/58/38 45/66/46 
f 39/54/34 45/66/46 38/52/32 
f 37/51/31 39/54/34 38/52/32 
# 79 faces

