# 3ds Max Wavefront OBJ Exporter v0.97b - (c)2007 guruware
# File Created: 22.07.2015 15:13:47

mtllib 10.mtl

#
# object Object010
#

v  27.2189 -16.1918 34.4165
v  -27.2186 -16.1918 34.4165
v  -27.2186 -16.1918 -34.4165
v  27.2189 -16.1918 -34.4165
v  19.3156 16.1918 26.5132
v  19.3156 16.1918 -26.5132
v  -19.3153 16.1918 -26.5132
v  -19.3153 16.1918 26.5132
v  -27.2186 8.2885 34.4165
v  -27.2186 8.2885 -34.4165
v  27.2189 8.2885 34.4165
v  27.2189 8.2885 -34.4165
# 12 vertices

vn 0.0000 -1.0000 -0.0000
vn 0.0000 1.0000 -0.0000
vn -1.0000 0.0000 -0.0000
vn 0.0000 0.0000 1.0000
vn 1.0000 0.0000 -0.0000
vn 0.0000 0.0000 -1.0000
vn -0.7071 0.7071 -0.0000
vn 0.0000 0.7071 0.7071
vn 0.7071 0.7071 0.0000
vn 0.7071 0.7071 -0.0000
vn 0.0000 0.7071 -0.7071
# 11 vertex normals

vt 0.8145 0.6775 0.0000
vt 0.7069 0.6775 0.0000
vt 0.7069 0.5414 0.0000
vt 0.8145 0.5414 0.0000
vt 0.8698 0.4287 0.0000
vt 0.8698 0.5335 0.0000
vt 0.7935 0.5335 0.0000
vt 0.7935 0.4287 0.0000
vt 0.7769 0.5362 0.0000
vt 0.6409 0.5362 0.0000
vt 0.6409 0.4879 0.0000
vt 0.7769 0.4879 0.0000
vt 0.7791 0.4704 0.0000
vt 0.6715 0.4704 0.0000
vt 0.6715 0.4220 0.0000
vt 0.7791 0.4220 0.0000
vt 0.8454 0.6828 0.0000
vt 0.8233 0.6672 0.0000
vt 0.8233 0.5624 0.0000
vt 0.8454 0.5468 0.0000
vt 0.8798 0.7280 0.0000
vt 0.8577 0.7124 0.0000
vt 0.8577 0.6360 0.0000
vt 0.8798 0.6204 0.0000
# 24 texture coords

g Object010
usemtl 02___Default
s 1
f 1/1/1 2/2/1 3/3/1 
f 3/3/1 4/4/1 1/1/1 
f 5/5/2 6/6/2 7/7/2 
f 7/7/2 8/8/2 5/5/2 
s 2
f 9/9/3 10/10/3 3/11/3 
f 3/11/3 2/12/3 9/9/3 
s 4
f 11/13/4 9/14/4 2/15/4 
f 2/15/4 1/16/4 11/13/4 
s 2
f 12/9/5 11/10/5 1/11/5 
f 1/11/5 4/12/5 12/9/5 
s 4
f 10/13/6 12/14/6 4/15/6 
f 4/15/6 3/16/6 10/13/6 
s 8
f 9/17/7 8/18/7 7/19/7 
f 7/19/7 10/20/7 9/17/7 
s 16
f 11/21/8 5/22/8 8/23/8 
f 8/23/8 9/24/8 11/21/8 
s 8
f 12/17/9 6/18/9 5/19/9 
f 5/19/9 11/20/10 12/17/9 
s 16
f 10/21/11 7/22/11 6/23/11 
f 6/23/11 12/24/11 10/21/11 
# 20 faces

