# 3ds Max Wavefront OBJ Exporter v0.97b - (c)2007 guruware
# File Created: 22.07.2015 15:13:58

mtllib 11.mtl

#
# object Object011
#

v  33.0379 -9.6041 10.7346
v  33.0379 -9.6041 -10.7346
v  34.7381 -9.6041 -0.0000
v  -5.6791 9.6041 17.4789
v  5.6794 9.6041 17.4789
v  14.8686 9.6041 10.8025
v  18.3785 9.6041 0.0000
v  14.8686 9.6041 -10.8026
v  5.6794 9.6041 -17.4789
v  -5.6791 9.6041 -17.4789
v  -14.8683 9.6041 -10.8026
v  -18.3783 9.6041 -0.0000
v  -14.8683 9.6041 10.8026
v  34.4392 2.6760 -0.0000
v  32.7536 2.6760 -10.6423
v  30.4824 6.2904 -0.0000
v  24.6608 6.2904 -17.9170
v  27.8619 2.6760 -20.2428
v  20.2429 2.6760 -27.8618
v  9.4196 6.2904 -28.9903
v  10.6424 2.6760 -32.7535
v  0.0001 2.6760 -34.4391
v  -9.4194 6.2904 -28.9903
v  -10.6421 2.6760 -32.7535
v  -20.2426 2.6760 -27.8618
v  -24.6605 6.2904 -17.9170
v  -27.8617 2.6760 -20.2428
v  -32.7534 2.6760 -10.6422
v  -30.4821 6.2904 0.0000
v  -34.4389 2.6760 0.0000
v  -32.7534 2.6760 10.6423
v  -24.6605 6.2904 17.9170
v  -27.8616 2.6760 20.2428
v  -20.2426 2.6760 27.8618
v  -9.4194 6.2904 28.9903
v  -10.6421 2.6760 32.7535
v  0.0002 2.6760 34.4391
v  9.4197 6.2904 28.9903
v  10.6424 2.6760 32.7535
v  20.2429 2.6760 27.8618
v  24.6608 6.2904 17.9170
v  27.8619 2.6760 20.2427
v  32.7536 2.6760 10.6422
v  36.5033 -6.9498 -0.0000
v  34.7167 -6.9498 -11.2801
v  29.5318 -6.9498 -21.4560
v  21.4561 -6.9498 -29.5317
v  11.2802 -6.9498 -34.7166
v  0.0001 -6.9498 -36.5032
v  -11.2800 -6.9498 -34.7166
v  -21.4559 -6.9498 -29.5317
v  -29.5316 -6.9498 -21.4560
v  -34.7164 -6.9498 -11.2801
v  -36.5031 -6.9498 0.0000
v  -34.7164 -6.9498 11.2801
v  -29.5316 -6.9498 21.4560
v  -21.4559 -6.9498 29.5317
v  -11.2799 -6.9498 34.7166
v  0.0002 -6.9498 36.5032
v  11.2803 -6.9498 34.7166
v  21.4562 -6.9498 29.5316
v  29.5318 -6.9498 21.4560
v  34.7167 -6.9498 11.2800
v  28.1037 -9.6041 20.4184
v  20.4186 -9.6041 28.1036
v  10.7348 -9.6041 33.0377
v  0.0002 -9.6041 34.7379
v  -10.7345 -9.6041 33.0378
v  -20.4183 -9.6041 28.1036
v  -28.1035 -9.6041 20.4185
v  -33.0376 -9.6041 10.7346
v  -34.7378 -9.6041 0.0000
v  -33.0376 -9.6041 -10.7346
v  -28.1035 -9.6041 -20.4184
v  -20.4183 -9.6041 -28.1036
v  -10.7345 -9.6041 -33.0377
v  0.0001 -9.6041 -34.7379
v  10.7347 -9.6041 -33.0377
v  20.4186 -9.6041 -28.1036
v  28.1037 -9.6041 -20.4184
# 80 vertices

vn 0.0000 -1.0000 -0.0000
vn -0.0492 0.9873 0.1514
vn 0.0492 0.9873 0.1514
vn 0.1288 0.9873 0.0936
vn 0.1592 0.9873 0.0000
vn 0.1288 0.9873 -0.0936
vn 0.0492 0.9873 -0.1514
vn -0.0492 0.9873 -0.1514
vn -0.1288 0.9873 -0.0936
vn -0.1592 0.9873 0.0000
vn -0.1288 0.9873 0.0936
vn 0.6744 0.7383 -0.0000
vn 0.5657 0.8039 -0.1838
vn 0.4884 0.8726 -0.0000
vn 0.3952 0.8726 -0.2871
vn 0.5456 0.7383 -0.3964
vn 0.3496 0.8039 -0.4812
vn 0.1509 0.8726 -0.4645
vn 0.2084 0.7383 -0.6414
vn -0.0000 0.8039 -0.5948
vn -0.1509 0.8726 -0.4645
vn -0.2084 0.7383 -0.6414
vn -0.3496 0.8039 -0.4812
vn -0.3952 0.8726 -0.2871
vn -0.5456 0.7383 -0.3964
vn -0.5657 0.8039 -0.1838
vn -0.4884 0.8726 0.0000
vn -0.6744 0.7383 -0.0000
vn -0.5657 0.8039 0.1838
vn -0.3952 0.8726 0.2871
vn -0.5456 0.7383 0.3964
vn -0.3496 0.8039 0.4812
vn -0.1509 0.8726 0.4645
vn -0.2084 0.7383 0.6414
vn 0.0000 0.8039 0.5948
vn 0.1509 0.8726 0.4645
vn 0.2084 0.7383 0.6414
vn 0.3496 0.8039 0.4812
vn 0.3952 0.8726 0.2871
vn 0.5456 0.7383 0.3964
vn 0.5657 0.8039 0.1838
vn 0.9299 0.2097 -0.3021
vn 0.9778 0.2097 -0.0000
vn 0.7910 0.2097 -0.5747
vn 0.5747 0.2097 -0.7910
vn 0.3021 0.2097 -0.9299
vn -0.0000 0.2097 -0.9778
vn -0.3021 0.2097 -0.9299
vn -0.5747 0.2097 -0.7910
vn -0.7910 0.2097 -0.5747
vn -0.9299 0.2097 -0.3021
vn -0.9778 0.2097 -0.0000
vn -0.9299 0.2097 0.3022
vn -0.9299 0.2097 0.3021
vn -0.7910 0.2097 0.5747
vn -0.5747 0.2097 0.7910
vn -0.3021 0.2097 0.9299
vn 0.0000 0.2097 0.9778
vn 0.3021 0.2097 0.9299
vn 0.5747 0.2097 0.7910
vn 0.7910 0.2097 0.5747
vn 0.9299 0.2097 0.3021
vn 0.8327 -0.5538 0.0000
vn 0.7919 -0.5538 -0.2573
vn 0.7919 -0.5538 0.2573
vn 0.6736 -0.5538 0.4894
vn 0.4894 -0.5538 0.6736
vn 0.2573 -0.5538 0.7919
vn 0.0000 -0.5538 0.8327
vn -0.2573 -0.5538 0.7919
vn -0.4894 -0.5538 0.6736
vn -0.6736 -0.5538 0.4894
vn -0.7919 -0.5538 0.2573
vn -0.8327 -0.5538 0.0000
vn -0.7919 -0.5538 -0.2573
vn -0.6736 -0.5538 -0.4894
vn -0.4894 -0.5538 -0.6736
vn -0.2573 -0.5538 -0.7919
vn -0.0000 -0.5538 -0.8327
vn 0.2573 -0.5538 -0.7919
vn 0.4894 -0.5538 -0.6736
vn 0.6736 -0.5538 -0.4894
# 82 vertex normals

vt 0.9874 0.8125 0.0000
vt 0.9913 0.7703 0.0000
vt 0.9927 0.7917 0.0000
vt 0.8957 0.9482 0.0000
vt 0.8888 0.9269 0.0000
vt 0.8957 0.9057 0.0000
vt 0.9138 0.8926 0.0000
vt 0.9362 0.8926 0.0000
vt 0.9542 0.9057 0.0000
vt 0.9611 0.9270 0.0000
vt 0.9542 0.9482 0.0000
vt 0.9361 0.9613 0.0000
vt 0.9138 0.9613 0.0000
vt 0.9027 0.8593 0.0000
vt 0.9247 0.8561 0.0000
vt 0.9062 0.8692 0.0000
vt 0.9438 0.8692 0.0000
vt 0.9467 0.8592 0.0000
vt 0.9664 0.8695 0.0000
vt 0.9741 0.8913 0.0000
vt 0.9824 0.8849 0.0000
vt 0.9923 0.9048 0.0000
vt 0.9857 0.9270 0.0000
vt 0.9961 0.9267 0.0000
vt 0.9925 0.9486 0.0000
vt 0.9741 0.9627 0.0000
vt 0.9827 0.9686 0.0000
vt 0.9668 0.9841 0.0000
vt 0.9437 0.9847 0.0000
vt 0.9472 0.9945 0.0000
vt 0.9252 0.9978 0.0000
vt 0.9062 0.9847 0.0000
vt 0.9032 0.9947 0.0000
vt 0.8835 0.9844 0.0000
vt 0.8758 0.9626 0.0000
vt 0.8675 0.9690 0.0000
vt 0.8576 0.9491 0.0000
vt 0.8642 0.9269 0.0000
vt 0.8538 0.9272 0.0000
vt 0.8575 0.9053 0.0000
vt 0.8759 0.8912 0.0000
vt 0.8673 0.8853 0.0000
vt 0.8831 0.8698 0.0000
vt 0.5022 0.0333 0.0000
vt 0.4799 0.0334 0.0000
vt 0.4799 0.0136 0.0000
vt 0.5022 0.0136 0.0000
vt 0.5245 0.0333 0.0000
vt 0.5245 0.0136 0.0000
vt 0.5468 0.0333 0.0000
vt 0.5468 0.0136 0.0000
vt 0.5691 0.0333 0.0000
vt 0.5691 0.0136 0.0000
vt 0.5912 0.0333 0.0000
vt 0.5912 0.0136 0.0000
vt 0.3907 0.0333 0.0000
vt 0.3686 0.0333 0.0000
vt 0.3686 0.0136 0.0000
vt 0.3907 0.0136 0.0000
vt 0.4129 0.0333 0.0000
vt 0.4129 0.0136 0.0000
vt 0.4352 0.0333 0.0000
vt 0.4352 0.0136 0.0000
vt 0.4575 0.0333 0.0000
vt 0.4575 0.0136 0.0000
vt 0.4798 0.0333 0.0000
vt 0.4798 0.0136 0.0000
vt 0.4798 0.0072 0.0000
vt 0.5022 0.0072 0.0000
vt 0.4575 0.0072 0.0000
vt 0.4352 0.0072 0.0000
vt 0.4129 0.0072 0.0000
vt 0.3907 0.0072 0.0000
vt 0.3686 0.0072 0.0000
vt 0.5691 0.0072 0.0000
vt 0.5912 0.0072 0.0000
vt 0.5468 0.0072 0.0000
vt 0.5245 0.0072 0.0000
vt 0.5913 0.0072 0.0000
vt 0.8573 0.8005 0.0000
vt 0.8559 0.7791 0.0000
vt 0.8612 0.7583 0.0000
vt 0.8727 0.7401 0.0000
vt 0.8892 0.7264 0.0000
vt 0.9092 0.7184 0.0000
vt 0.9306 0.7170 0.0000
vt 0.9514 0.7223 0.0000
vt 0.9696 0.7338 0.0000
vt 0.9833 0.7503 0.0000
vt 0.9759 0.8307 0.0000
vt 0.9594 0.8444 0.0000
vt 0.9394 0.8524 0.0000
vt 0.9180 0.8538 0.0000
vt 0.8972 0.8485 0.0000
vt 0.8790 0.8370 0.0000
vt 0.8653 0.8205 0.0000
# 96 texture coords

g Object011
usemtl 02___Default
s off
f 1/1/1 2/2/1 3/3/1 
s 1
f 4/4/2 5/5/3 6/6/4 
f 6/6/4 7/7/5 8/8/6 
f 8/8/6 9/9/7 10/10/8 
f 6/6/4 8/8/6 10/10/8 
f 10/10/8 11/11/9 12/12/10 
f 6/6/4 10/10/8 12/12/10 
f 4/4/2 6/6/4 12/12/10 
f 4/4/2 12/12/10 13/13/11 
f 14/14/12 15/15/13 16/16/14 
f 17/17/15 16/16/14 15/15/13 
f 15/15/13 18/18/16 17/17/15 
f 18/18/16 19/19/17 17/17/15 
f 20/20/18 17/17/15 19/19/17 
f 19/19/17 21/21/19 20/20/18 
f 21/21/19 22/22/20 20/20/18 
f 23/23/21 20/20/18 22/22/20 
f 22/22/20 24/24/22 23/23/21 
f 24/24/22 25/25/23 23/23/21 
f 26/26/24 23/23/21 25/25/23 
f 25/25/23 27/27/25 26/26/24 
f 27/27/25 28/28/26 26/26/24 
f 29/29/27 26/26/24 28/28/26 
f 28/28/26 30/30/28 29/29/27 
f 30/30/28 31/31/29 29/29/27 
f 32/32/30 29/29/27 31/31/29 
f 31/31/29 33/33/31 32/32/30 
f 33/33/31 34/34/32 32/32/30 
f 35/35/33 32/32/30 34/34/32 
f 34/34/32 36/36/34 35/35/33 
f 36/36/34 37/37/35 35/35/33 
f 38/38/36 35/35/33 37/37/35 
f 37/37/35 39/39/37 38/38/36 
f 39/39/37 40/40/38 38/38/36 
f 41/41/39 38/38/36 40/40/38 
f 40/40/38 42/42/40 41/41/39 
f 42/42/40 43/43/41 41/41/39 
f 16/16/14 41/41/39 43/43/41 
f 43/43/41 14/14/12 16/16/14 
s 3
f 8/8/6 7/7/5 16/16/14 
f 16/16/14 17/17/15 8/8/6 
f 9/9/7 8/8/6 17/17/15 
f 17/17/15 20/20/18 9/9/7 
f 10/10/8 9/9/7 20/20/18 
f 20/20/18 23/23/21 10/10/8 
f 11/11/9 10/10/8 23/23/21 
f 23/23/21 26/26/24 11/11/9 
f 12/12/10 11/11/9 26/26/24 
f 26/26/24 29/29/27 12/12/10 
f 13/13/11 12/12/10 29/29/27 
f 29/29/27 32/32/30 13/13/11 
f 4/4/2 13/13/11 32/32/30 
f 32/32/30 35/35/33 4/4/2 
f 5/5/3 4/4/2 35/35/33 
f 35/35/33 38/38/36 5/5/3 
f 6/6/4 5/5/3 38/38/36 
f 38/38/36 41/41/39 6/6/4 
f 7/7/5 6/6/4 41/41/39 
f 41/41/39 16/16/14 7/7/5 
s 2
f 15/44/42 14/45/43 44/46/43 
f 44/46/43 45/47/42 15/44/42 
f 18/48/44 15/44/42 45/47/42 
f 45/47/42 46/49/44 18/48/44 
f 19/50/45 18/48/44 46/49/44 
f 46/49/44 47/51/45 19/50/45 
f 21/52/46 19/50/45 47/51/45 
f 47/51/45 48/53/46 21/52/46 
f 22/54/47 21/52/46 48/53/46 
f 48/53/46 49/55/47 22/54/47 
f 24/56/48 22/57/47 49/58/47 
f 49/58/47 50/59/48 24/56/48 
f 25/60/49 24/56/48 50/59/48 
f 50/59/48 51/61/49 25/60/49 
f 27/62/50 25/60/49 51/61/49 
f 51/61/49 52/63/50 27/62/50 
f 28/64/51 27/62/50 52/63/50 
f 52/63/50 53/65/51 28/64/51 
f 30/66/52 28/64/51 53/65/51 
f 53/65/51 54/67/52 30/66/52 
f 31/44/53 30/66/52 54/67/52 
f 54/67/52 55/47/54 31/44/53 
f 33/48/55 31/44/53 55/47/54 
f 55/47/54 56/49/55 33/48/55 
f 34/50/56 33/48/55 56/49/55 
f 56/49/55 57/51/56 34/50/56 
f 36/52/57 34/50/56 57/51/56 
f 57/51/56 58/53/57 36/52/57 
f 37/54/58 36/52/57 58/53/57 
f 58/53/57 59/55/58 37/54/58 
f 39/56/59 37/57/58 59/58/58 
f 59/58/58 60/59/59 39/56/59 
f 40/60/60 39/56/59 60/59/59 
f 60/59/59 61/61/60 40/60/60 
f 42/62/61 40/60/60 61/61/60 
f 61/61/60 62/63/61 42/62/61 
f 43/64/62 42/62/61 62/63/61 
f 62/63/61 63/65/62 43/64/62 
f 14/45/43 43/64/62 63/65/62 
f 63/65/62 44/46/43 14/45/43 
s 1
f 3/68/63 2/69/64 45/47/64 
f 45/47/64 44/46/63 3/68/63 
f 1/70/65 3/68/63 44/46/63 
f 44/46/63 63/65/65 1/70/65 
f 64/71/66 1/70/65 63/65/65 
f 63/65/65 62/63/66 64/71/66 
f 65/72/67 64/71/66 62/63/66 
f 62/63/66 61/61/67 65/72/67 
f 66/73/68 65/72/67 61/61/67 
f 61/61/67 60/59/68 66/73/68 
f 67/74/69 66/73/68 60/59/68 
f 60/59/68 59/58/69 67/74/69 
f 68/75/70 67/76/69 59/55/69 
f 59/55/69 58/53/70 68/75/70 
f 69/77/71 68/75/70 58/53/70 
f 58/53/70 57/51/71 69/77/71 
f 70/78/72 69/77/71 57/51/71 
f 57/51/71 56/49/72 70/78/72 
f 71/69/73 70/78/72 56/49/72 
f 56/49/72 55/47/73 71/69/73 
f 72/68/74 71/69/73 55/47/73 
f 55/47/73 54/67/74 72/68/74 
f 73/70/75 72/68/74 54/67/74 
f 54/67/74 53/65/75 73/70/75 
f 74/71/76 73/70/75 53/65/75 
f 53/65/75 52/63/76 74/71/76 
f 75/72/77 74/71/76 52/63/76 
f 52/63/76 51/61/77 75/72/77 
f 76/73/78 75/72/77 51/61/77 
f 51/61/77 50/59/78 76/73/78 
f 77/74/79 76/73/78 50/59/78 
f 50/59/78 49/58/79 77/74/79 
f 78/75/80 77/79/79 49/55/79 
f 49/55/79 48/53/80 78/75/80 
f 79/77/81 78/75/80 48/53/80 
f 48/53/80 47/51/81 79/77/81 
f 80/78/82 79/77/81 47/51/81 
f 47/51/81 46/49/82 80/78/82 
f 2/69/64 80/78/82 46/49/82 
f 46/49/82 45/47/64 2/69/64 
s off
f 71/80/1 72/81/1 73/82/1 
f 73/82/1 74/83/1 75/84/1 
f 75/84/1 76/85/1 77/86/1 
f 77/86/1 78/87/1 79/88/1 
f 79/88/1 80/89/1 2/2/1 
f 1/1/1 79/88/1 2/2/1 
f 1/1/1 64/90/1 65/91/1 
f 65/91/1 66/92/1 67/93/1 
f 67/93/1 68/94/1 69/95/1 
f 69/95/1 70/96/1 71/80/1 
f 75/84/1 77/86/1 79/88/1 
f 1/1/1 75/84/1 79/88/1 
f 1/1/1 65/91/1 67/93/1 
f 67/93/1 69/95/1 71/80/1 
f 71/80/1 73/82/1 75/84/1 
f 75/84/1 1/1/1 67/93/1 
f 67/93/1 71/80/1 75/84/1 
# 156 faces

