# 3ds Max Wavefront OBJ Exporter v0.97b - (c)2007 guruware
# File Created: 22.07.2015 15:14:35

mtllib 12.mtl

#
# object Object006
#

v  13.6607 20.2118 -23.1522
v  13.6607 20.2118 23.1522
v  13.6607 11.8503 31.5137
v  13.6607 11.8503 -31.5137
v  13.6608 -11.8503 -31.5137
v  13.6608 -11.8503 31.5137
v  13.6608 -20.2118 23.1522
v  13.6608 -20.2118 -23.1522
v  -13.6605 20.2118 -23.1522
v  -13.6606 20.2118 23.1522
v  -13.6605 -20.2118 23.1522
v  -13.6605 -20.2118 -23.1522
v  -13.6606 11.8503 31.5138
v  -13.6605 11.8503 -31.5137
v  -13.6605 -11.8503 -31.5137
v  -13.6605 -11.8503 31.5138
# 16 vertices

vn 1.0000 0.0000 0.0000
vn 1.0000 -0.0000 0.0000
vn 0.0000 1.0000 -0.0000
vn -0.0000 -1.0000 -0.0000
vn 0.0000 0.7071 0.7071
vn 0.0000 0.7071 -0.7071
vn -0.0000 0.7071 -0.7071
vn 0.0000 -0.7071 -0.7071
vn -0.0000 -0.7071 -0.7071
vn -0.0000 -0.7071 0.7071
vn 0.0000 -0.7071 0.7071
vn 0.0000 0.0000 -1.0000
vn 0.0000 0.0000 1.0000
# 13 vertex normals

vt 0.6473 0.6272 0.0000
vt 0.5558 0.6272 0.0000
vt 0.5392 0.6106 0.0000
vt 0.6638 0.6106 0.0000
vt 0.6638 0.5638 0.0000
vt 0.5392 0.5638 0.0000
vt 0.5558 0.5473 0.0000
vt 0.6473 0.5473 0.0000
vt 0.4831 0.6276 0.0000
vt 0.4831 0.5360 0.0000
vt 0.5371 0.5361 0.0000
vt 0.5371 0.6276 0.0000
vt 0.5371 0.5360 0.0000
vt 0.4256 0.6278 0.0000
vt 0.4256 0.6045 0.0000
vt 0.4796 0.6045 0.0000
vt 0.4796 0.6278 0.0000
vt 0.4796 0.5343 0.0000
vt 0.4796 0.5576 0.0000
vt 0.4256 0.5576 0.0000
vt 0.4256 0.5343 0.0000
# 21 texture coords

g Object006
usemtl 02___Default
s off
f 1/1/1 2/2/1 3/3/1 
f 3/3/2 4/4/2 1/1/2 
f 5/5/2 6/6/2 7/7/2 
f 7/7/1 8/8/1 5/5/1 
f 9/9/3 10/10/3 2/11/3 
f 2/11/3 1/12/3 9/9/3 
f 11/13/4 12/12/4 8/9/4 
f 8/9/4 7/10/4 11/13/4 
f 10/14/5 13/15/5 3/16/5 
f 3/16/5 2/17/5 10/14/5 
f 14/16/6 9/17/6 1/14/6 
f 1/14/7 4/15/7 14/16/7 
f 12/18/8 15/19/8 5/20/8 
f 5/20/9 8/21/9 12/18/9 
f 16/20/10 11/21/10 7/18/10 
f 7/18/11 6/19/11 16/20/11 
f 14/16/12 4/15/12 5/20/12 
f 5/20/12 15/19/12 14/16/12 
f 6/6/1 5/5/1 4/4/1 
f 4/4/1 3/3/1 6/6/1 
f 16/20/13 6/19/13 3/16/13 
f 3/16/13 13/15/13 16/20/13 
# 22 faces

