# 3ds Max Wavefront OBJ Exporter v0.97b - (c)2007 guruware
# File Created: 22.07.2015 15:15:34

mtllib 17.mtl

#
# object Object017
#

v  8.6932 -24.7351 -16.8109
v  8.6932 -24.7351 16.8109
v  -8.6932 -24.7351 16.8109
v  -8.6932 -24.7351 -16.8109
v  7.3167 24.7350 14.1490
v  -7.3167 24.7350 14.1490
v  7.3167 24.7350 -14.1490
v  -7.3167 24.7350 -14.1490
# 8 vertices

vn 0.0000 -1.0000 -0.0000
vn 0.0000 0.0537 0.9986
vn 0.9996 0.0278 -0.0000
vn 0.0000 0.0537 -0.9986
vn -0.9996 0.0278 -0.0000
vn 0.0000 1.0000 -0.0000
# 6 vertex normals

vt 0.9118 0.3400 0.0000
vt 0.9118 0.4065 0.0000
vt 0.8774 0.4065 0.0000
vt 0.8774 0.3400 0.0000
vt 0.9955 0.6112 0.0000
vt 0.9666 0.6112 0.0000
vt 0.9639 0.5133 0.0000
vt 0.9983 0.5133 0.0000
vt 0.9908 0.5048 0.0000
vt 0.9349 0.5048 0.0000
vt 0.9296 0.4070 0.0000
vt 0.9961 0.4070 0.0000
vt 0.8810 0.2744 0.0000
vt 0.9099 0.2744 0.0000
vt 0.9099 0.3303 0.0000
vt 0.8810 0.3303 0.0000
# 16 texture coords

g Object017
usemtl 02___Default
s 4
f 1/1/1 2/2/1 3/3/1 
f 3/3/1 4/4/1 1/1/1 
s off
f 5/5/2 6/6/2 3/7/2 
f 3/7/2 2/8/2 5/5/2 
f 7/9/3 5/10/3 2/11/3 
f 2/11/3 1/12/3 7/9/3 
f 8/5/4 7/6/4 1/7/4 
f 1/7/4 4/8/4 8/5/4 
f 6/9/5 8/10/5 4/11/5 
f 4/11/5 3/12/5 6/9/5 
f 6/13/6 5/14/6 7/15/6 
f 7/15/6 8/16/6 6/13/6 
# 12 faces

