# 3ds Max Wavefront OBJ Exporter v0.97b - (c)2007 guruware
# File Created: 22.07.2015 15:15:47

mtllib 18.mtl

#
# object Object018
#

v  0.0001 -1.5798 6.7147
v  3.3575 -1.5798 5.8151
v  5.8152 -1.5798 3.3573
v  6.7148 -1.5798 -0.0000
v  5.8152 -1.5798 -3.3573
v  3.3575 -1.5798 -5.8151
v  0.0002 -1.5798 -6.7147
v  -3.3572 -1.5798 -5.8151
v  -5.8149 -1.5798 -3.3573
v  -6.7145 -1.5798 -0.0000
v  -5.8149 -1.5798 3.3573
v  -3.3572 -1.5798 5.8151
v  10.2950 14.4725 -5.9437
v  11.8876 14.4725 -0.0000
v  14.6045 12.9645 -0.0000
v  12.6479 12.9645 -7.3022
v  5.9438 14.4725 -10.2948
v  7.3023 12.9645 -12.6477
v  0.0002 14.4725 -11.8875
v  0.0002 12.9645 -14.6043
v  -5.9436 14.4725 -10.2948
v  -7.3020 12.9645 -12.6477
v  -10.2947 14.4725 -5.9437
v  -12.6476 12.9645 -7.3022
v  -11.8873 14.4725 -0.0000
v  -14.6042 12.9645 -0.0000
v  -10.2947 14.4725 5.9437
v  -12.6476 12.9645 7.3021
v  -5.9436 14.4725 10.2948
v  -7.3020 12.9645 12.6477
v  0.0001 14.4725 11.8874
v  0.0001 12.9645 14.6043
v  5.9438 14.4725 10.2948
v  7.3023 12.9645 12.6477
v  10.2950 14.4725 5.9437
v  12.6479 12.9645 7.3022
v  7.1393 15.5016 -4.1218
v  8.2437 15.5016 -0.0000
v  4.1219 15.5016 -7.1391
v  0.0002 15.5016 -8.2436
v  -4.1216 15.5016 -7.1391
v  -7.1390 15.5016 -4.1218
v  -8.2434 15.5016 -0.0000
v  -7.1390 15.5016 4.1217
v  -4.1216 15.5016 7.1391
v  0.0001 15.5016 8.2435
v  4.1219 15.5016 7.1391
v  7.1393 15.5016 4.1218
v  13.4507 11.5087 -7.7657
v  15.5315 11.5087 -0.0000
v  7.7658 11.5087 -13.4505
v  0.0002 11.5087 -15.5313
v  -7.7655 11.5087 -13.4505
v  -13.4504 11.5087 -7.7657
v  -15.5312 11.5087 -0.0000
v  -13.4504 11.5087 7.7656
v  -7.7655 11.5087 13.4505
v  0.0001 11.5087 15.5313
v  7.7658 11.5087 13.4505
v  13.4507 11.5087 7.7656
v  15.5315 -15.5016 -0.0000
v  13.4507 -15.5016 -7.7657
v  7.7658 -15.5016 -13.4505
v  0.0002 -15.5016 -15.5313
v  -7.7655 -15.5016 -13.4505
v  -13.4504 -15.5016 -7.7657
v  -15.5312 -15.5016 -0.0000
v  -13.4504 -15.5016 7.7656
v  -7.7655 -15.5016 13.4505
v  0.0001 -15.5016 15.5313
v  7.7658 -15.5016 13.4505
v  13.4507 -15.5016 7.7656
# 72 vertices

vn 0.0000 1.0000 -0.0000
vn 0.3440 0.9177 -0.1986
vn 0.3973 0.9177 -0.0000
vn 0.4853 0.8744 -0.0000
vn 0.4203 0.8744 -0.2426
vn 0.1986 0.9177 -0.3440
vn 0.2426 0.8744 -0.4203
vn 0.0000 0.9177 -0.3973
vn -0.0000 0.8744 -0.4853
vn -0.1986 0.9177 -0.3440
vn -0.2426 0.8744 -0.4203
vn -0.3440 0.9177 -0.1986
vn -0.4203 0.8744 -0.2426
vn -0.3973 0.9177 -0.0000
vn -0.4853 0.8744 -0.0000
vn -0.3440 0.9177 0.1986
vn -0.4203 0.8744 0.2426
vn -0.1986 0.9177 0.3441
vn -0.2426 0.8744 0.4203
vn -0.0000 0.9177 0.3973
vn -0.0000 0.8744 0.4853
vn 0.1986 0.9177 0.3440
vn 0.2426 0.8744 0.4203
vn 0.3440 0.9177 0.1986
vn 0.4203 0.8744 0.2426
vn 0.2354 0.9624 -0.1359
vn 0.2718 0.9624 0.0000
vn 0.1359 0.9624 -0.2354
vn 0.0000 0.9624 -0.2718
vn -0.1359 0.9624 -0.2354
vn -0.2354 0.9624 -0.1359
vn -0.2718 0.9624 0.0000
vn -0.2354 0.9624 0.1359
vn -0.1359 0.9624 0.2354
vn -0.0000 0.9624 0.2718
vn 0.1359 0.9624 0.2354
vn 0.2354 0.9624 0.1359
vn -0.8626 0.0891 0.4980
vn -0.9960 0.0891 0.0000
vn -0.4980 0.0891 0.8626
vn 0.0000 0.0891 0.9960
vn -0.0000 0.0891 0.9960
vn 0.4980 0.0891 0.8626
vn 0.8626 0.0891 0.4980
vn 0.9960 0.0891 -0.0000
vn 0.8626 0.0891 -0.4980
vn 0.4980 0.0891 -0.8626
vn 0.0000 0.0891 -0.9960
vn -0.4980 0.0891 -0.8626
vn -0.8626 0.0891 -0.4980
vn 0.7305 0.5371 -0.4218
vn 0.8435 0.5371 -0.0000
vn 0.4218 0.5371 -0.7305
vn 0.0000 0.5371 -0.8435
vn -0.4218 0.5371 -0.7305
vn -0.7305 0.5371 -0.4218
vn -0.8435 0.5371 -0.0000
vn -0.7305 0.5371 0.4218
vn -0.4218 0.5371 0.7305
vn -0.0000 0.5371 0.8435
vn 0.4218 0.5371 0.7305
vn 0.7305 0.5371 0.4218
vn 1.0000 0.0000 0.0000
vn 0.8660 0.0000 -0.5000
vn 0.5000 0.0000 -0.8660
vn -0.0000 0.0000 -1.0000
vn 0.0000 0.0000 -1.0000
vn -0.5000 0.0000 -0.8660
vn -0.8660 0.0000 -0.5000
vn -1.0000 0.0000 0.0000
vn -0.8660 -0.0000 0.5000
vn -0.8660 0.0000 0.5000
vn -0.5000 -0.0000 0.8660
vn -0.0000 0.0000 1.0000
vn -0.0000 -0.0000 1.0000
vn 0.5000 0.0000 0.8660
vn 0.8660 0.0000 0.5000
# 77 vertex normals

vt 0.4476 0.1573 0.0000
vt 0.4542 0.1591 0.0000
vt 0.4591 0.1640 0.0000
vt 0.4608 0.1706 0.0000
vt 0.4591 0.1772 0.0000
vt 0.4542 0.1821 0.0000
vt 0.4476 0.1839 0.0000
vt 0.4409 0.1821 0.0000
vt 0.4361 0.1772 0.0000
vt 0.4343 0.1706 0.0000
vt 0.4361 0.1640 0.0000
vt 0.4409 0.1591 0.0000
vt 0.4907 0.1182 0.0000
vt 0.4939 0.1299 0.0000
vt 0.5000 0.1299 0.0000
vt 0.4960 0.1151 0.0000
vt 0.4821 0.1096 0.0000
vt 0.4852 0.1043 0.0000
vt 0.4704 0.1064 0.0000
vt 0.4704 0.1004 0.0000
vt 0.4907 0.1417 0.0000
vt 0.4960 0.1447 0.0000
vt 0.4821 0.1503 0.0000
vt 0.4852 0.1556 0.0000
vt 0.4704 0.1534 0.0000
vt 0.4704 0.1595 0.0000
vt 0.4842 0.1220 0.0000
vt 0.4863 0.1299 0.0000
vt 0.4783 0.1161 0.0000
vt 0.4704 0.1140 0.0000
vt 0.4842 0.1379 0.0000
vt 0.4783 0.1437 0.0000
vt 0.4704 0.1459 0.0000
vt 0.3856 0.1564 0.0000
vt 0.3931 0.1564 0.0000
vt 0.3931 0.1898 0.0000
vt 0.3856 0.1898 0.0000
vt 0.3780 0.1564 0.0000
vt 0.3780 0.1898 0.0000
vt 0.3705 0.1564 0.0000
vt 0.3705 0.1898 0.0000
vt 0.4083 0.1564 0.0000
vt 0.4158 0.1564 0.0000
vt 0.4158 0.1898 0.0000
vt 0.4083 0.1898 0.0000
vt 0.4007 0.1564 0.0000
vt 0.4007 0.1898 0.0000
vt 0.4989 0.1135 0.0000
vt 0.5033 0.1299 0.0000
vt 0.4868 0.1014 0.0000
vt 0.4704 0.0970 0.0000
vt 0.4989 0.1464 0.0000
vt 0.4868 0.1585 0.0000
vt 0.4704 0.1629 0.0000
vt 0.4184 0.0971 0.0000
vt 0.4343 0.0971 0.0000
vt 0.4343 0.1504 0.0000
vt 0.4184 0.1504 0.0000
vt 0.4502 0.0971 0.0000
vt 0.4502 0.1504 0.0000
vt 0.4661 0.0970 0.0000
vt 0.4661 0.1504 0.0000
vt 0.3708 0.0971 0.0000
vt 0.3866 0.0971 0.0000
vt 0.3866 0.1504 0.0000
vt 0.3708 0.1504 0.0000
vt 0.4025 0.0971 0.0000
vt 0.4025 0.1504 0.0000
# 68 texture coords

g Object018
usemtl 02___Default
s 1
f 1/1/1 2/2/1 3/3/1 
f 3/3/1 4/4/1 5/5/1 
f 5/5/1 6/6/1 7/7/1 
f 3/3/1 5/5/1 7/7/1 
f 7/7/1 8/8/1 9/9/1 
f 9/9/1 10/10/1 11/11/1 
f 7/7/1 9/9/1 11/11/1 
f 3/3/1 7/7/1 11/11/1 
f 1/1/1 3/3/1 11/11/1 
f 1/1/1 11/11/1 12/12/1 
f 13/13/2 14/14/3 15/15/4 
f 15/15/4 16/16/5 13/13/2 
f 17/17/6 13/13/2 16/16/5 
f 16/16/5 18/18/7 17/17/6 
f 19/19/8 17/17/6 18/18/7 
f 18/18/7 20/20/9 19/19/8 
f 21/17/10 19/19/8 20/20/9 
f 20/20/9 22/18/11 21/17/10 
f 23/13/12 21/17/10 22/18/11 
f 22/18/11 24/16/13 23/13/12 
f 25/14/14 23/13/12 24/16/13 
f 24/16/13 26/15/15 25/14/14 
f 27/21/16 25/14/14 26/15/15 
f 26/15/15 28/22/17 27/21/16 
f 29/23/18 27/21/16 28/22/17 
f 28/22/17 30/24/19 29/23/18 
f 31/25/20 29/23/18 30/24/19 
f 30/24/19 32/26/21 31/25/20 
f 33/23/22 31/25/20 32/26/21 
f 32/26/21 34/24/23 33/23/22 
f 35/21/24 33/23/22 34/24/23 
f 34/24/23 36/22/25 35/21/24 
f 14/14/3 35/21/24 36/22/25 
f 36/22/25 15/15/4 14/14/3 
f 37/27/26 38/28/27 14/14/3 
f 14/14/3 13/13/2 37/27/26 
f 39/29/28 37/27/26 13/13/2 
f 13/13/2 17/17/6 39/29/28 
f 40/30/29 39/29/28 17/17/6 
f 17/17/6 19/19/8 40/30/29 
f 41/29/30 40/30/29 19/19/8 
f 19/19/8 21/17/10 41/29/30 
f 42/27/31 41/29/30 21/17/10 
f 21/17/10 23/13/12 42/27/31 
f 43/28/32 42/27/31 23/13/12 
f 23/13/12 25/14/14 43/28/32 
f 44/31/33 43/28/32 25/14/14 
f 25/14/14 27/21/16 44/31/33 
f 45/32/34 44/31/33 27/21/16 
f 27/21/16 29/23/18 45/32/34 
f 46/33/35 45/32/34 29/23/18 
f 29/23/18 31/25/20 46/33/35 
f 47/32/36 46/33/35 31/25/20 
f 31/25/20 33/23/22 47/32/36 
f 48/31/37 47/32/36 33/23/22 
f 33/23/22 35/21/24 48/31/37 
f 38/28/27 48/31/37 35/21/24 
f 35/21/24 14/14/3 38/28/27 
s 2
f 5/34/38 4/35/39 38/36/39 
f 38/36/39 37/37/38 5/34/38 
f 6/38/40 5/34/38 37/37/38 
f 37/37/38 39/39/40 6/38/40 
f 7/40/41 6/38/40 39/39/40 
f 39/39/40 40/41/42 7/40/41 
f 8/42/43 7/43/41 40/44/42 
f 40/44/42 41/45/43 8/42/43 
f 9/46/44 8/42/43 41/45/43 
f 41/45/43 42/47/44 9/46/44 
f 10/35/45 9/46/44 42/47/44 
f 42/47/44 43/36/45 10/35/45 
f 11/34/46 10/35/45 43/36/45 
f 43/36/45 44/37/46 11/34/46 
f 12/38/47 11/34/46 44/37/46 
f 44/37/46 45/39/47 12/38/47 
f 1/40/48 12/38/47 45/39/47 
f 45/39/47 46/41/48 1/40/48 
f 2/42/49 1/43/48 46/44/48 
f 46/44/48 47/45/49 2/42/49 
f 3/46/50 2/42/49 47/45/49 
f 47/45/49 48/47/50 3/46/50 
f 4/35/39 3/46/50 48/47/50 
f 48/47/50 38/36/39 4/35/39 
s 8
f 49/48/51 16/16/51 15/15/52 
f 15/15/52 50/49/52 49/48/51 
f 51/50/53 18/18/53 16/16/51 
f 16/16/51 49/48/51 51/50/53 
f 52/51/54 20/20/54 18/18/53 
f 18/18/53 51/50/53 52/51/54 
f 53/50/55 22/18/55 20/20/54 
f 20/20/54 52/51/54 53/50/55 
f 54/48/56 24/16/56 22/18/55 
f 22/18/55 53/50/55 54/48/56 
f 55/49/57 26/15/57 24/16/56 
f 24/16/56 54/48/56 55/49/57 
f 56/52/58 28/22/58 26/15/57 
f 26/15/57 55/49/57 56/52/58 
f 57/53/59 30/24/59 28/22/58 
f 28/22/58 56/52/58 57/53/59 
f 58/54/60 32/26/60 30/24/59 
f 30/24/59 57/53/59 58/54/60 
f 59/53/61 34/24/61 32/26/60 
f 32/26/60 58/54/60 59/53/61 
f 60/52/62 36/22/62 34/24/61 
f 34/24/61 59/53/61 60/52/62 
f 50/49/52 15/15/52 36/22/62 
f 36/22/62 60/52/62 50/49/52 
s 1
f 61/55/63 62/56/64 49/57/64 
f 49/57/64 50/58/63 61/55/63 
f 62/56/64 63/59/65 51/60/65 
f 51/60/65 49/57/64 62/56/64 
f 63/59/65 64/61/66 52/62/67 
f 52/62/67 51/60/65 63/59/65 
f 64/63/66 65/64/68 53/65/68 
f 53/65/68 52/66/67 64/63/66 
f 65/64/68 66/67/69 54/68/69 
f 54/68/69 53/65/68 65/64/68 
f 66/67/69 67/55/70 55/58/70 
f 55/58/70 54/68/69 66/67/69 
f 67/55/70 68/56/71 56/57/72 
f 56/57/72 55/58/70 67/55/70 
f 68/56/71 69/59/73 57/60/73 
f 57/60/73 56/57/72 68/56/71 
f 69/59/73 70/61/74 58/62/75 
f 58/62/75 57/60/73 69/59/73 
f 70/63/74 71/64/76 59/65/76 
f 59/65/76 58/66/75 70/63/74 
f 71/64/76 72/67/77 60/68/77 
f 60/68/77 59/65/76 71/64/76 
f 72/67/77 61/55/63 50/58/63 
f 50/58/63 60/68/77 72/67/77 
# 130 faces

