# 3ds Max Wavefront OBJ Exporter v0.97b - (c)2007 guruware
# File Created: 22.07.2015 15:15:58

mtllib 19.mtl

#
# object Object027
#

v  -7.7798 -8.9362 16.3522
v  -7.7798 -8.9362 -16.3522
v  7.7801 -8.9362 -16.3522
v  7.7801 -8.9362 16.3522
v  -7.7798 8.9362 16.3522
v  7.7801 8.9362 16.3522
v  7.7801 8.9362 -16.3522
v  -7.7798 8.9362 -16.3522
# 8 vertices

vn 0.0000 -1.0000 -0.0000
vn 0.0000 1.0000 -0.0000
vn 0.0000 0.0000 1.0000
vn 1.0000 0.0000 -0.0000
vn 0.0000 0.0000 -1.0000
vn -1.0000 0.0000 -0.0000
# 6 vertex normals

vt 0.6731 0.0701 0.0000
vt 0.6731 0.1347 0.0000
vt 0.6424 0.1347 0.0000
vt 0.6424 0.0701 0.0000
vt 0.6690 0.0086 0.0000
vt 0.6998 0.0086 0.0000
vt 0.6998 0.0439 0.0000
vt 0.6690 0.0439 0.0000
vt 0.5981 0.0065 0.0000
vt 0.6628 0.0065 0.0000
vt 0.6628 0.0418 0.0000
vt 0.5981 0.0418 0.0000
# 12 texture coords

g Object027
usemtl 02___Default
s 2
f 1/1/1 2/2/1 3/3/1 
f 3/3/1 4/4/1 1/1/1 
s 4
f 5/4/2 6/1/2 7/2/2 
f 7/2/2 8/3/2 5/4/2 
s 8
f 1/5/3 4/6/3 6/7/3 
f 6/7/3 5/8/3 1/5/3 
s 16
f 4/9/4 3/10/4 7/11/4 
f 7/11/4 6/12/4 4/9/4 
s 32
f 3/5/5 2/6/5 8/7/5 
f 8/7/5 7/8/5 3/5/5 
s 64
f 2/9/6 1/10/6 5/11/6 
f 5/11/6 8/12/6 2/9/6 
# 12 faces

