# 3ds Max Wavefront OBJ Exporter v0.97b - (c)2007 guruware
# File Created: 22.07.2015 15:12:21

mtllib 2.mtl

#
# object Object003
#

v  106.5050 -22.5673 -35.8746
v  106.5050 -22.5673 18.8268
v  -106.5049 -22.5673 18.8268
v  -106.5049 -22.5673 -35.8746
v  106.5050 22.5673 -18.8268
v  -106.5049 22.5673 -18.8268
v  -106.5049 22.5673 35.8746
v  106.5050 22.5673 35.8746
v  -106.5049 -5.5195 35.8746
v  106.5050 -5.5195 35.8746
v  -106.5049 5.5195 -35.8746
v  106.5050 5.5195 -35.8746
# 12 vertices

vn 0.0000 -1.0000 -0.0000
vn 0.0000 1.0000 -0.0000
vn 0.0000 0.0000 1.0000
vn 1.0000 0.0000 -0.0000
vn 0.0000 0.0000 -1.0000
vn -1.0000 0.0000 -0.0000
vn 0.0000 -0.7071 0.7071
vn 0.0000 0.7071 -0.7071
# 8 vertex normals

vt 0.0015 0.7950 0.0000
vt 0.0015 0.6869 0.0000
vt 0.4224 0.6869 0.0000
vt 0.4224 0.7950 0.0000
vt 0.0015 0.5837 0.0000
vt 0.4224 0.5837 0.0000
vt 0.4224 0.6392 0.0000
vt 0.0015 0.6392 0.0000
vt 0.7129 0.7208 0.0000
vt 0.8210 0.7763 0.0000
vt 0.7129 0.7763 0.0000
vt 0.7382 0.0757 0.0000
vt 0.8463 0.0757 0.0000
vt 0.7382 0.1312 0.0000
vt 0.7466 0.6871 0.0000
vt 0.8547 0.7427 0.0000
vt 0.8547 0.6871 0.0000
vt 0.8800 0.1094 0.0000
vt 0.7718 0.1649 0.0000
vt 0.8799 0.1649 0.0000
# 20 texture coords

g Object003
usemtl 02___Default
s 1
f 1/1/1 2/2/1 3/3/1 
f 3/3/1 4/4/1 1/1/1 
f 5/2/2 6/3/2 7/4/2 
f 7/4/2 8/1/2 5/2/2 
s 2
f 8/5/3 7/6/3 9/7/3 
f 9/7/3 10/8/3 8/5/3 
s 4
f 10/9/4 5/10/4 8/11/4 
s 2
f 11/7/5 12/8/5 1/5/5 
f 1/5/5 4/6/5 11/7/5 
s 4
f 4/12/6 3/13/6 11/14/6 
s 8
f 9/7/7 3/3/7 2/2/7 
f 2/2/7 10/8/7 9/7/7 
f 11/7/8 6/3/8 5/2/8 
f 5/2/8 12/8/8 11/7/8 
s 4
f 5/10/4 10/9/4 2/15/4 
f 2/15/4 12/16/4 5/10/4 
f 2/15/4 1/17/4 12/16/4 
f 11/14/6 3/13/6 9/18/6 
f 9/18/6 6/19/6 11/14/6 
f 9/18/6 7/20/6 6/19/6 
# 20 faces

