# 3ds Max Wavefront OBJ Exporter v0.97b - (c)2007 guruware
# File Created: 22.07.2015 15:17:01

mtllib 24.mtl

#
# object Object031
#

v  9.1613 -4.5857 -10.2272
v  9.1613 -4.5857 10.2272
v  -9.1610 -4.5857 10.2272
v  -9.1610 -4.5857 -10.2272
v  7.4698 4.5857 -8.3389
v  -7.4695 4.5857 -8.3389
v  -7.4695 4.5857 8.3388
v  7.4698 4.5857 8.3388
# 8 vertices

vn 0.0000 -1.0000 -0.0000
vn 0.0000 1.0000 -0.0000
vn 0.0000 0.2017 0.9795
vn 0.9834 0.1814 -0.0000
vn 0.0000 0.2017 -0.9795
vn -0.9834 0.1814 -0.0000
# 6 vertex normals

vt 0.8917 0.2115 0.0000
vt 0.8917 0.2520 0.0000
vt 0.8555 0.2520 0.0000
vt 0.8555 0.2115 0.0000
vt 0.9580 0.2318 0.0000
vt 0.9223 0.2318 0.0000
vt 0.9223 0.1919 0.0000
vt 0.9580 0.1919 0.0000
vt 0.9183 0.1696 0.0000
vt 0.9621 0.1696 0.0000
vt 0.9803 0.1874 0.0000
vt 0.9803 0.2363 0.0000
vt 0.9621 0.2542 0.0000
vt 0.9183 0.2542 0.0000
vt 0.9000 0.2363 0.0000
vt 0.9000 0.1874 0.0000
# 16 texture coords

g Object031
usemtl 02___Default
s 2
f 1/1/1 2/2/1 3/3/1 
f 3/3/1 4/4/1 1/1/1 
s 4
f 5/5/2 6/6/2 7/7/2 
f 7/7/2 8/8/2 5/5/2 
s 8
f 8/8/3 7/7/3 3/9/3 
f 3/9/3 2/10/3 8/8/3 
s 16
f 5/5/4 8/8/4 2/11/4 
f 2/11/4 1/12/4 5/5/4 
s 32
f 6/6/5 5/5/5 1/13/5 
f 1/13/5 4/14/5 6/6/5 
s 64
f 7/7/6 6/6/6 4/15/6 
f 4/15/6 3/16/6 7/7/6 
# 12 faces

