# 3ds Max Wavefront OBJ Exporter v0.97b - (c)2007 guruware
# File Created: 22.07.2015 15:18:15

mtllib 29.mtl

#
# object Object033
#

v  10.0934 -1.0456 4.3641
v  -10.0933 -1.0456 4.3641
v  -10.0933 -1.0456 -4.3641
v  10.0934 -1.0456 -4.3641
v  10.0934 0.3989 2.9932
v  10.0934 0.3989 -2.9932
v  5.1531 0.3989 -6.3000
v  5.1531 -1.0456 -6.3000
v  -8.1575 -1.0456 -6.3000
v  -8.1575 0.3989 -6.3000
v  -10.0933 0.3989 -4.3641
v  -10.0933 0.3989 4.3641
v  -8.1575 0.3989 6.3000
v  -8.1575 -1.0456 6.3000
v  5.1531 -1.0456 6.3000
v  5.1531 0.3989 6.3000
v  8.1576 1.0456 -6.3000
v  10.0934 1.0456 -4.3641
v  8.1576 -1.0456 -6.3000
v  8.1576 -1.0456 6.3000
v  10.0934 1.0456 4.3641
v  8.1576 1.0456 6.3000
v  8.9568 0.3989 2.9932
v  8.9568 0.3989 -2.9932
v  10.0934 1.0456 -2.9932
v  8.9568 1.0456 -2.9932
v  5.9753 0.3989 -5.0542
v  5.9753 0.3989 5.0542
v  8.1438 0.3989 3.8154
v  8.1438 0.3989 -3.8154
v  8.1576 0.3989 -5.0542
v  5.1531 1.0456 6.3000
v  5.1531 1.0456 5.8765
v  8.1576 1.0456 5.0542
v  8.1438 1.0456 3.8154
v  8.1576 1.0456 -5.0542
v  5.9753 1.0456 -5.0542
v  8.1576 0.3989 5.0542
v  5.1531 1.0456 -6.3000
v  5.1531 1.0456 -5.8764
v  5.1531 0.3989 -5.8764
v  8.1438 1.0456 -3.8154
v  10.0934 1.0456 2.9932
v  8.9568 1.0456 2.9932
v  5.9753 1.0456 5.0542
v  5.1531 0.3989 5.8765
# 46 vertices

vn 0.0000 -1.0000 -0.0000
vn 1.0000 0.0000 -0.0000
vn 0.0000 0.0000 -1.0000
vn -1.0000 0.0000 -0.0000
vn 0.0000 0.0000 1.0000
vn 0.7071 0.0000 -0.7071
vn 0.7071 0.0000 0.7071
vn -0.7071 0.0000 -0.7071
vn -0.7071 0.0000 0.7071
vn 0.0000 1.0000 -0.0000
vn -0.9999 0.0000 -0.0112
vn -0.9999 0.0000 0.0112
vn -0.7111 0.0000 0.7031
vn -0.7111 0.0000 -0.7031
# 14 vertex normals

vt 0.8465 0.2547 0.0000
vt 0.8066 0.2547 0.0000
vt 0.8066 0.2375 0.0000
vt 0.8465 0.2375 0.0000
vt 0.7563 0.2440 0.0000
vt 0.7536 0.2412 0.0000
vt 0.7709 0.2412 0.0000
vt 0.7682 0.2440 0.0000
vt 0.7632 0.2538 0.0000
vt 0.7632 0.2510 0.0000
vt 0.7895 0.2512 0.0000
vt 0.7894 0.2541 0.0000
vt 0.7768 0.2459 0.0000
vt 0.7768 0.2430 0.0000
vt 0.7941 0.2430 0.0000
vt 0.7941 0.2459 0.0000
vt 0.7573 0.2552 0.0000
vt 0.7519 0.2553 0.0000
vt 0.7518 0.2512 0.0000
vt 0.7572 0.2511 0.0000
vt 0.7948 0.2543 0.0000
vt 0.7949 0.2514 0.0000
vt 0.8445 0.2106 0.0000
vt 0.8468 0.2106 0.0000
vt 0.8468 0.2224 0.0000
vt 0.8445 0.2224 0.0000
vt 0.8104 0.2336 0.0000
vt 0.8367 0.2336 0.0000
vt 0.8427 0.2336 0.0000
vt 0.8427 0.2585 0.0000
vt 0.8367 0.2585 0.0000
vt 0.8104 0.2585 0.0000
vt 0.7709 0.2453 0.0000
vt 0.7536 0.2453 0.0000
vt 0.7662 0.2368 0.0000
vt 0.7662 0.2341 0.0000
vt 0.7640 0.2368 0.0000
vt 0.8386 0.2265 0.0000
vt 0.8386 0.2065 0.0000
vt 0.8429 0.2090 0.0000
vt 0.8429 0.2240 0.0000
vt 0.8429 0.2265 0.0000
vt 0.7564 0.2302 0.0000
vt 0.7624 0.2302 0.0000
vt 0.7564 0.2311 0.0000
vt 0.7624 0.2327 0.0000
vt 0.7623 0.2351 0.0000
vt 0.7581 0.2327 0.0000
vt 0.8429 0.2065 0.0000
vt 0.7632 0.2551 0.0000
vt 0.7784 0.2344 0.0000
vt 0.7775 0.2344 0.0000
vt 0.7775 0.2332 0.0000
vt 0.7784 0.2332 0.0000
vt 0.7850 0.2344 0.0000
vt 0.7807 0.2344 0.0000
vt 0.7807 0.2332 0.0000
vt 0.7850 0.2332 0.0000
vt 0.7874 0.2344 0.0000
vt 0.7874 0.2332 0.0000
vt 0.7920 0.2344 0.0000
vt 0.7897 0.2344 0.0000
vt 0.7897 0.2332 0.0000
vt 0.7920 0.2332 0.0000
vt 0.7682 0.2453 0.0000
vt 0.7563 0.2453 0.0000
vt 0.8069 0.2079 0.0000
vt 0.8107 0.2041 0.0000
vt 0.8370 0.2041 0.0000
vt 0.8370 0.2049 0.0000
vt 0.8370 0.2281 0.0000
vt 0.8069 0.2251 0.0000
vt 0.8107 0.2290 0.0000
vt 0.8370 0.2290 0.0000
# 74 texture coords

g Object033
usemtl 02___Default
s 1
f 1/1/1 2/2/1 3/3/1 
f 3/3/1 4/4/1 1/1/1 
s 2
f 5/5/2 1/6/2 4/7/2 
f 4/7/2 6/8/2 5/5/2 
f 7/9/3 8/10/3 9/11/3 
f 9/11/3 10/12/3 7/9/3 
f 11/13/4 3/14/4 2/15/4 
f 2/15/4 12/16/4 11/13/4 
f 13/12/5 14/11/5 15/10/5 
f 15/10/5 16/9/5 13/12/5 
s 4
f 17/17/6 18/18/6 4/19/6 
f 4/19/6 19/20/6 17/17/6 
f 20/20/7 1/19/7 21/18/7 
f 21/18/7 22/17/7 20/20/7 
f 11/21/8 10/12/8 9/11/8 
f 9/11/8 3/22/8 11/21/8 
f 13/12/9 12/21/9 2/22/9 
f 2/22/9 14/11/9 13/12/9 
s 1
f 23/23/10 5/24/10 6/25/10 
f 6/25/10 24/26/10 23/23/10 
f 3/3/1 9/27/1 8/28/1 
f 3/3/1 8/28/1 19/29/1 
f 3/3/1 19/29/1 4/4/1 
f 1/1/1 20/30/1 15/31/1 
f 1/1/1 15/31/1 14/32/1 
f 1/1/1 14/32/1 2/2/1 
s 2
f 4/7/2 18/33/2 6/8/2 
f 5/5/2 21/34/2 1/6/2 
s 1
f 25/35/10 18/36/10 26/37/10 
f 27/38/10 28/39/10 29/40/10 
f 29/40/10 30/41/10 27/38/10 
s 2
f 8/10/3 7/9/3 17/17/3 
f 17/17/3 19/20/3 8/10/3 
f 16/9/5 15/10/5 20/20/5 
f 20/20/5 22/17/5 16/9/5 
s 1
f 27/38/10 30/41/10 31/42/10 
f 32/43/10 22/44/10 33/45/10 
f 29/40/10 23/23/10 24/26/10 
f 24/26/10 30/41/10 29/40/10 
f 34/46/10 21/36/10 35/47/10 
f 36/46/10 17/44/10 37/48/10 
f 38/49/10 29/40/10 28/39/10 
s 2
f 17/17/3 7/9/3 39/50/3 
s 4
f 40/51/4 39/52/4 7/53/4 
f 7/53/4 41/54/4 40/51/4 
s 2
f 36/55/5 37/56/5 27/57/5 
f 27/57/5 31/58/5 36/55/5 
s 4
f 42/59/11 36/55/11 31/58/11 
f 31/58/11 30/60/11 42/59/11 
f 25/61/5 26/62/5 24/63/5 
f 24/63/5 6/64/5 25/61/5 
s 2
f 6/8/2 18/33/2 25/65/2 
f 21/34/2 5/5/2 43/66/2 
s 4
f 44/62/3 43/61/3 5/64/3 
f 5/64/3 23/63/3 44/62/3 
s 2
f 34/55/12 35/59/12 29/60/12 
f 29/60/12 38/58/12 34/55/12 
s 4
f 45/56/3 34/55/3 38/58/3 
f 38/58/3 28/57/3 45/56/3 
f 32/52/4 33/51/4 46/54/4 
f 46/54/4 16/53/4 32/52/4 
s 2
f 16/9/5 22/17/5 32/50/5 
f 26/62/13 42/59/13 30/60/13 
f 30/60/13 24/63/13 26/62/13 
s 8
f 35/59/14 44/62/14 23/63/14 
f 23/63/14 29/60/14 35/59/14 
s 1
f 12/67/10 13/68/10 16/69/10 
f 16/69/10 46/70/10 12/67/10 
s 8
f 37/56/9 40/51/9 41/54/9 
f 41/54/9 27/57/9 37/56/9 
s 2
f 33/51/8 45/56/8 28/57/8 
f 28/57/8 46/54/8 33/51/8 
s 1
f 27/38/10 41/71/10 11/72/10 
f 12/67/10 28/39/10 27/38/10 
f 27/38/10 11/72/10 12/67/10 
f 10/73/10 11/72/10 41/71/10 
f 41/71/10 7/74/10 10/73/10 
f 46/70/10 28/39/10 12/67/10 
f 18/36/10 42/47/10 26/37/10 
f 18/36/10 36/46/10 42/47/10 
f 17/44/10 40/45/10 37/48/10 
f 17/44/10 39/43/10 40/45/10 
f 21/36/10 44/37/10 35/47/10 
f 21/36/10 43/35/10 44/37/10 
f 22/44/10 45/48/10 33/45/10 
f 22/44/10 34/46/10 45/48/10 
f 18/36/10 17/44/10 36/46/10 
f 34/46/10 22/44/10 21/36/10 
# 88 faces

