# 3ds Max Wavefront OBJ Exporter v0.97b - (c)2007 guruware
# File Created: 22.07.2015 15:12:32

mtllib 3.mtl

#
# object Object005
#

v  -84.4215 -20.2118 -23.1522
v  84.4219 -20.2118 -23.1522
v  84.4219 -20.2118 23.1522
v  -84.4216 -20.2118 23.1522
v  -84.4216 20.2118 23.1522
v  84.4219 20.2118 23.1522
v  84.4219 20.2118 -23.1522
v  -84.4215 20.2118 -23.1522
v  -84.4216 -11.8503 31.5137
v  84.4219 -11.8503 31.5137
v  84.4219 11.8503 31.5137
v  -84.4216 11.8503 31.5137
v  -84.4215 -11.8503 -31.5138
v  84.4219 -11.8503 -31.5137
v  84.4219 11.8503 -31.5137
v  -84.4215 11.8503 -31.5138
# 16 vertices

vn 0.0000 -1.0000 -0.0000
vn 0.0000 1.0000 -0.0000
vn 0.0000 0.0000 1.0000
vn -0.0000 -0.7071 0.7071
vn 0.0000 -0.7071 0.7071
vn 0.0000 -0.7071 -0.7071
vn 0.0000 0.7071 -0.7071
vn 0.0000 0.7071 0.7071
vn -0.0000 0.7071 0.7071
vn 0.0000 0.0000 -1.0000
vn -1.0000 0.0000 -0.0000
vn -1.0000 -0.0000 -0.0000
vn 1.0000 0.0000 0.0000
vn 1.0000 -0.0000 -0.0000
# 14 vertex normals

vt 0.0032 0.3950 0.0000
vt 0.3369 0.3950 0.0000
vt 0.3369 0.4865 0.0000
vt 0.0032 0.4865 0.0000
vt 0.0025 0.5118 0.0000
vt 0.3361 0.5118 0.0000
vt 0.3361 0.5586 0.0000
vt 0.0025 0.5586 0.0000
vt 0.0025 0.4884 0.0000
vt 0.3361 0.4884 0.0000
vt 0.3361 0.5820 0.0000
vt 0.0025 0.5820 0.0000
vt 0.4885 0.4224 0.0000
vt 0.4885 0.4662 0.0000
vt 0.4731 0.4816 0.0000
vt 0.3877 0.4816 0.0000
vt 0.3723 0.4662 0.0000
vt 0.3723 0.4224 0.0000
vt 0.3877 0.4070 0.0000
vt 0.4731 0.4070 0.0000
# 20 texture coords

g Object005
usemtl 02___Default
s off
f 1/1/1 2/2/1 3/3/1 
f 3/3/1 4/4/1 1/1/1 
f 5/1/2 6/2/2 7/3/2 
f 7/3/2 8/4/2 5/1/2 
f 9/5/3 10/6/3 11/7/3 
f 11/7/3 12/8/3 9/5/3 
f 4/9/4 3/10/4 10/6/4 
f 10/6/5 9/5/5 4/9/5 
f 13/6/6 14/5/6 2/9/6 
f 2/9/6 1/10/6 13/6/6 
f 8/11/7 7/12/7 15/8/7 
f 15/8/7 16/7/7 8/11/7 
f 12/8/8 11/7/8 6/11/8 
f 6/11/9 5/12/9 12/8/9 
f 16/7/10 15/8/10 14/5/10 
f 14/5/10 13/6/10 16/7/10 
f 9/13/11 12/14/11 5/15/11 
f 5/15/11 8/16/11 16/17/11 
f 16/17/11 13/18/11 1/19/11 
f 5/15/12 16/17/12 1/19/12 
f 9/13/12 5/15/12 1/19/12 
f 4/20/11 9/13/11 1/19/11 
f 14/13/13 15/14/13 7/15/13 
f 7/15/14 6/16/14 11/17/14 
f 11/17/13 10/18/13 3/19/13 
f 7/15/13 11/17/13 3/19/13 
f 14/13/13 7/15/13 3/19/13 
f 2/20/14 14/13/14 3/19/14 
# 28 faces

