# 3ds Max Wavefront OBJ Exporter v0.97b - (c)2007 guruware
# File Created: 22.07.2015 15:19:41

mtllib 32.mtl

#
# object Object024
#

v  -0.6228 1.0790 -6.4199
v  -1.2458 0.0000 -6.4199
v  -1.2458 0.0000 6.4199
v  -0.6228 1.0790 6.4199
v  0.6231 1.0790 -6.4199
v  0.6231 1.0790 6.4199
v  1.2461 0.0000 -6.4199
v  1.2461 0.0000 6.4199
v  0.6231 -1.0790 -6.4199
v  0.6231 -1.0790 6.4199
v  -0.6228 -1.0790 -6.4199
v  -0.6228 -1.0790 6.4199
# 12 vertices

vn -0.8660 0.5000 -0.0000
vn 0.0000 1.0000 -0.0000
vn 0.8660 0.5000 -0.0000
vn 0.8660 -0.5000 -0.0000
vn 0.0000 -1.0000 -0.0000
vn -0.8660 -0.5000 -0.0000
# 6 vertex normals

vt 0.8473 0.1800 0.0000
vt 0.8473 0.1824 0.0000
vt 0.8219 0.1824 0.0000
vt 0.8219 0.1800 0.0000
vt 0.8473 0.1775 0.0000
vt 0.8219 0.1775 0.0000
vt 0.8473 0.1751 0.0000
vt 0.8219 0.1751 0.0000
vt 0.8473 0.1726 0.0000
vt 0.8219 0.1726 0.0000
vt 0.8473 0.1849 0.0000
vt 0.8473 0.1874 0.0000
vt 0.8219 0.1874 0.0000
vt 0.8219 0.1849 0.0000
# 14 texture coords

g Object024
usemtl 02___Default
s off
f 1/1/1 2/2/1 3/3/1 
f 3/3/1 4/4/1 1/1/1 
f 5/5/2 1/1/2 4/4/2 
f 4/4/2 6/6/2 5/5/2 
f 7/7/3 5/5/3 6/6/3 
f 6/6/3 8/8/3 7/7/3 
f 9/9/4 7/7/4 8/8/4 
f 8/8/4 10/10/4 9/9/4 
f 11/11/5 9/12/5 10/13/5 
f 10/13/5 12/14/5 11/11/5 
f 2/2/6 11/11/6 12/14/6 
f 12/14/6 3/3/6 2/2/6 
# 12 faces

