# 3ds Max Wavefront OBJ Exporter v0.97b - (c)2007 guruware
# File Created: 22.07.2015 15:19:51

mtllib 33.mtl

#
# object Object028
#

v  -1.2456 0.0000 0.0003
v  -0.6226 1.0790 0.0003
v  0.0183 1.0790 -2.3916
v  -0.5212 0.0000 -2.7031
v  0.6234 1.0790 0.0003
v  1.0974 1.0790 -1.7686
v  1.2464 0.0000 0.0003
v  1.6369 0.0000 -1.4571
v  0.6234 -1.0790 0.0003
v  1.0974 -1.0790 -1.7686
v  -0.6226 -1.0790 0.0003
v  0.0183 -1.0790 -2.3916
v  1.7693 1.0790 -4.1426
v  1.4578 0.0000 -4.6821
v  2.3923 1.0790 -3.0636
v  2.7038 0.0000 -2.5240
v  2.3923 -1.0790 -3.0636
v  1.7693 -1.0790 -4.1426
v  4.1613 1.0790 -4.7835
v  4.1613 0.0000 -5.4065
v  4.1613 1.0790 -3.5375
v  4.1613 0.0000 -2.9146
v  4.1613 -1.0790 -3.5375
v  4.1613 -1.0790 -4.7835
# 24 vertices

vn -0.9659 -0.0000 -0.2588
vn -0.5512 0.8212 -0.1477
vn -0.4827 0.8303 -0.2787
vn -0.8660 -0.0000 -0.5000
vn 0.4296 0.8957 0.1151
vn 0.3745 0.9016 0.2162
vn 0.9659 0.0000 0.2588
vn 0.8660 0.0000 0.5000
vn 0.4296 -0.8957 0.1151
vn 0.3745 -0.9016 0.2162
vn -0.5512 -0.8212 -0.1477
vn -0.4827 -0.8303 -0.2787
vn -0.2787 0.8303 -0.4827
vn -0.5000 0.0000 -0.8660
vn 0.2162 0.9016 0.3745
vn 0.5000 -0.0000 0.8660
vn 0.2162 -0.9016 0.3745
vn -0.2787 -0.8303 -0.4827
vn -0.1477 0.8212 -0.5512
vn -0.2588 0.0000 -0.9659
vn 0.1151 0.8957 0.4296
vn 0.2588 -0.0000 0.9659
vn 0.1151 -0.8957 0.4296
vn -0.1477 -0.8212 -0.5512
# 24 vertex normals

vt 0.8623 0.1869 0.0000
vt 0.8645 0.1880 0.0000
vt 0.8631 0.1926 0.0000
vt 0.8606 0.1922 0.0000
vt 0.8663 0.1895 0.0000
vt 0.8656 0.1931 0.0000
vt 0.8683 0.1902 0.0000
vt 0.8683 0.1933 0.0000
vt 0.8702 0.1895 0.0000
vt 0.8709 0.1931 0.0000
vt 0.8720 0.1880 0.0000
vt 0.8734 0.1926 0.0000
vt 0.8742 0.1869 0.0000
vt 0.8759 0.1922 0.0000
vt 0.8631 0.1972 0.0000
vt 0.8606 0.1977 0.0000
vt 0.8656 0.1968 0.0000
vt 0.8683 0.1965 0.0000
vt 0.8709 0.1968 0.0000
vt 0.8734 0.1972 0.0000
vt 0.8759 0.1977 0.0000
vt 0.8645 0.2018 0.0000
vt 0.8623 0.2029 0.0000
vt 0.8663 0.2004 0.0000
vt 0.8683 0.1996 0.0000
vt 0.8702 0.2004 0.0000
vt 0.8720 0.2018 0.0000
vt 0.8742 0.2029 0.0000
# 28 texture coords

g Object028
usemtl 02___Default
s 1
f 1/1/1 2/2/2 3/3/3 
f 3/3/3 4/4/4 1/1/1 
f 2/2/2 5/5/5 6/6/6 
f 6/6/6 3/3/3 2/2/2 
f 5/5/5 7/7/7 8/8/8 
f 8/8/8 6/6/6 5/5/5 
f 7/7/7 9/9/9 10/10/10 
f 10/10/10 8/8/8 7/7/7 
f 9/9/9 11/11/11 12/12/12 
f 12/12/12 10/10/10 9/9/9 
f 11/11/11 1/13/1 4/14/4 
f 4/14/4 12/12/12 11/11/11 
f 4/4/4 3/3/3 13/15/13 
f 13/15/13 14/16/14 4/4/4 
f 3/3/3 6/6/6 15/17/15 
f 15/17/15 13/15/13 3/3/3 
f 6/6/6 8/8/8 16/18/16 
f 16/18/16 15/17/15 6/6/6 
f 8/8/8 10/10/10 17/19/17 
f 17/19/17 16/18/16 8/8/8 
f 10/10/10 12/12/12 18/20/18 
f 18/20/18 17/19/17 10/10/10 
f 12/12/12 4/14/4 14/21/14 
f 14/21/14 18/20/18 12/12/12 
f 14/16/14 13/15/13 19/22/19 
f 19/22/19 20/23/20 14/16/14 
f 13/15/13 15/17/15 21/24/21 
f 21/24/21 19/22/19 13/15/13 
f 15/17/15 16/18/16 22/25/22 
f 22/25/22 21/24/21 15/17/15 
f 16/18/16 17/19/17 23/26/23 
f 23/26/23 22/25/22 16/18/16 
f 17/19/17 18/20/18 24/27/24 
f 24/27/24 23/26/23 17/19/17 
f 18/20/18 14/21/14 20/28/20 
f 20/28/20 24/27/24 18/20/18 
# 36 faces

