# 3ds Max Wavefront OBJ Exporter v0.97b - (c)2007 guruware
# File Created: 22.07.2015 15:20:06

mtllib 34.mtl

#
# object Object034
#

v  3.4741 3.8357 -0.5769
v  4.4733 3.8357 -1.1538
v  4.3418 2.7067 -1.1538
v  3.4362 3.1290 -0.5769
v  3.4741 3.8357 0.5769
v  3.4362 3.1290 0.5769
v  4.4733 3.8357 1.1538
v  4.3418 2.7067 1.1538
v  5.4725 3.8357 0.5769
v  5.2474 2.2844 0.5769
v  5.4725 3.8357 -0.5769
v  5.2474 2.2844 -0.5769
v  -4.7656 -3.1292 -1.1538
v  -5.4721 -2.4226 -0.5769
v  -5.4721 -2.4226 0.5769
v  -4.7656 -3.1292 1.1538
v  -4.0591 -3.8357 0.5769
v  -4.0591 -3.8357 -0.5769
# 18 vertices

vn -0.8645 0.0557 -0.4996
vn 0.0409 -0.0101 -0.9991
vn 0.1087 -0.0182 -0.9939
vn -0.8462 0.0453 -0.5309
vn -0.8607 0.0461 0.5070
vn -0.8390 0.0548 0.5414
vn 0.0309 -0.0098 0.9995
vn 0.0986 -0.0175 0.9950
vn 0.8716 -0.1225 0.4747
vn 0.8846 -0.1284 0.4483
vn 0.8696 -0.1262 -0.4773
vn 0.8841 -0.1245 -0.4505
vn -0.2697 0.4327 -0.8602
vn -0.3044 0.4751 -0.8256
vn -0.5289 0.8487 -0.0000
vn -0.2745 0.4284 0.8609
vn -0.3001 0.4815 0.8235
vn 0.2790 -0.4243 0.8614
vn 0.3044 -0.4751 0.8256
vn 0.5495 -0.8355 -0.0000
vn 0.2745 -0.4284 -0.8609
vn 0.3085 -0.4691 -0.8276
# 22 vertex normals

vt 0.7386 0.2491 0.0000
vt 0.7367 0.2508 0.0000
vt 0.7356 0.2488 0.0000
vt 0.7377 0.2479 0.0000
vt 0.7272 0.2496 0.0000
vt 0.7251 0.2494 0.0000
vt 0.7253 0.2481 0.0000
vt 0.7276 0.2482 0.0000
vt 0.7290 0.2510 0.0000
vt 0.7299 0.2489 0.0000
vt 0.7314 0.2523 0.0000
vt 0.7318 0.2495 0.0000
vt 0.7344 0.2522 0.0000
vt 0.7337 0.2494 0.0000
vt 0.7358 0.2273 0.0000
vt 0.7381 0.2270 0.0000
vt 0.7243 0.2274 0.0000
vt 0.7266 0.2273 0.0000
vt 0.7289 0.2274 0.0000
vt 0.7312 0.2276 0.0000
vt 0.7335 0.2275 0.0000
# 21 texture coords

g Object034
usemtl 02___Default
s 8
f 1/1/1 2/2/2 3/3/3 
f 3/3/3 4/4/4 1/1/1 
f 5/5/5 1/6/1 4/7/4 
f 4/7/4 6/8/6 5/5/5 
f 7/9/7 5/5/5 6/8/6 
f 6/8/6 8/10/8 7/9/7 
f 9/11/9 7/9/7 8/10/8 
f 8/10/8 10/12/10 9/11/9 
f 11/13/11 9/11/9 10/12/10 
f 10/12/10 12/14/12 11/13/11 
f 2/2/2 11/13/11 12/14/12 
f 12/14/12 3/3/3 2/2/2 
s off
f 13/15/13 14/16/13 4/4/13 
f 4/4/14 3/3/14 13/15/14 
f 14/17/15 15/18/15 6/8/15 
f 6/8/15 4/7/15 14/17/15 
f 15/18/16 16/19/16 8/10/16 
f 8/10/17 6/8/17 15/18/17 
f 16/19/18 17/20/18 10/12/18 
f 10/12/19 8/10/19 16/19/19 
f 17/20/20 18/21/20 12/14/20 
f 12/14/20 10/12/20 17/20/20 
f 18/21/21 13/15/21 3/3/21 
f 3/3/22 12/14/22 18/21/22 
# 24 faces

