# 3ds Max Wavefront OBJ Exporter v0.97b - (c)2007 guruware
# File Created: 22.07.2015 15:13:04

mtllib 6.mtl

#
# object Object023
#

v  6.4324 -5.6154 0.0000
v  6.4325 -5.6154 79.4283
v  -6.4322 -5.6154 79.4283
v  -6.4323 -5.6154 -0.0000
v  -6.4323 5.6154 -0.0000
v  -6.4322 5.6154 79.4283
v  6.4325 5.6154 79.4283
v  6.4324 5.6154 0.0000
v  8.7555 3.2923 0.0000
v  8.7555 3.2923 79.4283
v  8.7555 -3.2923 79.4283
v  8.7555 -3.2923 0.0000
v  -8.7552 -3.2923 79.4283
v  -8.7553 -3.2923 0.0000
v  -8.7553 3.2923 0.0000
v  -8.7552 3.2923 79.4283
v  -6.4323 -5.6154 -79.4283
v  6.4324 -5.6154 -79.4283
v  6.4324 5.6154 -79.4283
v  -6.4323 5.6154 -79.4283
v  8.7554 -3.2923 -79.4283
v  8.7554 3.2923 -79.4283
v  -8.7553 -3.2923 -79.4283
v  -8.7553 3.2923 -79.4283
# 24 vertices

vn 0.0000 -1.0000 -0.0000
vn 0.0000 1.0000 -0.0000
vn 1.0000 0.0000 -0.0000
vn 0.7071 -0.7071 -0.0000
vn -0.7071 -0.7071 0.0000
vn -0.7071 0.7071 0.0000
vn 0.7071 0.7071 -0.0000
vn -1.0000 0.0000 0.0000
vn 0.7071 -0.7071 0.0000
vn 0.7071 0.7071 0.0000
vn 0.0000 0.0000 1.0000
vn 0.0000 0.0000 -1.0000
vn 0.0000 -0.0000 -1.0000
# 13 vertex normals

vt 0.3678 0.0656 0.0000
vt 0.5248 0.0656 0.0000
vt 0.5248 0.0910 0.0000
vt 0.3678 0.0910 0.0000
vt 0.5262 0.0565 0.0000
vt 0.3692 0.0565 0.0000
vt 0.3692 0.0434 0.0000
vt 0.5262 0.0434 0.0000
vt 0.3692 0.0371 0.0000
vt 0.5262 0.0371 0.0000
vt 0.5262 0.0628 0.0000
vt 0.3692 0.0628 0.0000
vt 0.5364 0.0571 0.0000
vt 0.5364 0.0441 0.0000
vt 0.5410 0.0395 0.0000
vt 0.5664 0.0395 0.0000
vt 0.5710 0.0441 0.0000
vt 0.5710 0.0571 0.0000
vt 0.5664 0.0617 0.0000
vt 0.5410 0.0617 0.0000
# 20 texture coords

g Object023
usemtl 02___Default
s off
f 1/1/1 2/2/1 3/3/1 
f 3/3/1 4/4/1 1/1/1 
f 5/3/2 6/4/2 7/1/2 
f 7/1/2 8/2/2 5/3/2 
f 9/5/3 10/6/3 11/7/3 
f 11/7/3 12/8/3 9/5/3 
f 12/8/4 11/7/4 2/9/4 
f 2/9/4 1/10/4 12/8/4 
f 4/9/5 3/10/5 13/8/5 
f 13/8/5 14/7/5 4/9/5 
f 15/6/6 16/5/6 6/11/6 
f 6/11/6 5/12/6 15/6/6 
f 8/11/7 7/12/7 10/6/7 
f 10/6/7 9/5/7 8/11/7 
f 14/7/8 13/8/8 16/5/8 
f 16/5/8 15/6/8 14/7/8 
f 1/2/1 4/3/1 17/4/1 
f 17/4/1 18/1/1 1/2/1 
f 5/4/2 8/1/2 19/2/2 
f 19/2/2 20/3/2 5/4/2 
f 9/6/3 12/7/3 21/8/3 
f 21/8/3 22/5/3 9/6/3 
f 12/7/9 1/9/9 18/10/9 
f 18/10/4 21/8/4 12/7/4 
f 4/10/5 14/8/5 23/7/5 
f 23/7/5 17/9/5 4/10/5 
f 15/5/6 5/11/6 20/12/6 
f 20/12/6 24/6/6 15/5/6 
f 8/12/7 9/6/7 22/5/7 
f 22/5/10 19/11/10 8/12/10 
f 14/8/8 15/5/8 24/6/8 
f 24/6/8 23/7/8 14/8/8 
f 16/13/11 13/14/11 3/15/11 
f 3/15/11 2/16/11 11/17/11 
f 11/17/11 10/18/11 7/19/11 
f 3/15/11 11/17/11 7/19/11 
f 16/13/11 3/15/11 7/19/11 
f 16/13/11 7/19/11 6/20/11 
f 22/13/12 21/14/12 18/15/12 
f 18/15/12 17/16/12 23/17/12 
f 23/17/12 24/18/12 20/19/12 
f 18/15/13 23/17/13 20/19/13 
f 22/13/12 18/15/12 20/19/12 
f 22/13/13 20/19/13 19/20/13 
# 44 faces

