# 3ds Max Wavefront OBJ Exporter v0.97b - (c)2007 guruware
# File Created: 22.07.2015 15:13:25

mtllib 8.mtl

#
# object Object019
#

v  35.7584 -15.0000 7.2217
v  -35.7581 -15.0000 7.2217
v  -35.7581 -15.0000 -7.2217
v  35.7584 -15.0000 -7.2217
v  45.9286 15.0000 5.8576
v  45.9286 15.0000 -5.8576
v  -45.9283 15.0000 -5.8576
v  -45.9283 15.0000 5.8576
v  -42.3588 -6.8948 -10.5598
v  -42.3588 -6.8948 10.5598
v  42.3591 -6.8948 10.5598
v  42.3591 -6.8948 -10.5598
v  -45.9283 -2.2231 9.5565
v  -45.9283 -2.2231 -9.5565
v  45.9286 -2.2231 9.5565
v  45.9286 -2.2231 -9.5565
# 16 vertices

vn 0.0000 -1.0000 -0.0000
vn 0.0000 1.0000 -0.0000
vn -0.7754 -0.6315 -0.0000
vn -0.0000 -0.3808 0.9247
vn 0.0000 -0.3808 0.9247
vn 0.7754 -0.6315 -0.0000
vn 0.0000 -0.3808 -0.9247
vn -0.7946 -0.6071 -0.0000
vn 0.0000 0.2100 0.9777
vn 0.7946 -0.6071 -0.0000
vn 0.0000 0.2100 -0.9777
vn -1.0000 0.0000 -0.0000
vn -0.0000 0.2100 0.9777
vn 1.0000 0.0000 -0.0000
# 14 vertex normals

vt 0.1481 0.0538 0.0000
vt 0.0067 0.0538 0.0000
vt 0.0067 0.0252 0.0000
vt 0.1481 0.0252 0.0000
vt 0.1876 0.0607 0.0000
vt 0.1876 0.0838 0.0000
vt 0.0061 0.0838 0.0000
vt 0.0061 0.0607 0.0000
vt 0.2457 0.1568 0.0000
vt 0.2663 0.1634 0.0000
vt 0.2663 0.1920 0.0000
vt 0.2457 0.1986 0.0000
vt 0.0125 0.1099 0.0000
vt 0.0254 0.0925 0.0000
vt 0.1668 0.0920 0.0000
vt 0.1799 0.1093 0.0000
vt 0.2341 0.1966 0.0000
vt 0.2341 0.1588 0.0000
vt 0.1870 0.1187 0.0000
vt 0.0054 0.1194 0.0000
vt 0.2000 0.1893 0.0000
vt 0.2000 0.1661 0.0000
vt 0.1871 0.1535 0.0000
vt 0.0056 0.1542 0.0000
# 24 texture coords

g Object019
usemtl 02___Default
s off
f 1/1/1 2/2/1 3/3/1 
f 3/3/1 4/4/1 1/1/1 
f 5/5/2 6/6/2 7/7/2 
f 7/7/2 8/8/2 5/5/2 
f 9/9/3 3/10/3 2/11/3 
f 2/11/3 10/12/3 9/9/3 
f 10/13/4 2/14/4 1/15/4 
f 1/15/5 11/16/5 10/13/5 
f 11/9/6 1/10/6 4/11/6 
f 4/11/6 12/12/6 11/9/6 
f 12/13/7 4/14/7 3/15/7 
f 3/15/7 9/16/7 12/13/7 
f 9/9/8 10/12/8 13/17/8 
f 13/17/8 14/18/8 9/9/8 
f 10/13/9 11/16/9 15/19/9 
f 15/19/9 13/20/9 10/13/9 
f 11/9/10 12/12/10 16/17/10 
f 16/17/10 15/18/10 11/9/10 
f 12/13/11 9/16/11 14/19/11 
f 14/19/11 16/20/11 12/13/11 
f 14/18/12 13/17/12 8/21/12 
f 8/21/12 7/22/12 14/18/12 
f 13/20/9 15/19/9 5/23/9 
f 5/23/13 8/24/13 13/20/13 
f 15/18/14 16/17/14 6/21/14 
f 6/21/14 5/22/14 15/18/14 
f 16/20/11 14/19/11 7/23/11 
f 7/23/11 6/24/11 16/20/11 
# 28 faces

